<svg width="200" height="24" viewBox="0 0 200 24" fill="none" xmlns="http://www.w3.org/2000/svg">
<path d="M193.214 20.2753V23.4432H200V0H193.214V3.1679H196.713V20.2753H193.214Z" fill="white"/>
<path fill-rule="evenodd" clip-rule="evenodd" d="M90.9533 19.5635L81.2381 5.63098H81.2415L80.2454 4.2485H76.0698L75.1569 5.63098L65.3167 19.5635H68.6628L71.1792 15.9649H85.0631L87.6073 19.5635H90.9533ZM78.1142 6.08255L83.1506 13.3076H73.0778L78.1142 6.08255Z" fill="white"/>
<path fill-rule="evenodd" clip-rule="evenodd" d="M36.0496 15.6379C36.0496 17.795 34.1961 19.5387 31.8983 19.5387H15.5223V4.26195H31.8983C34.1961 4.26195 35.9628 6.00569 35.9628 8.16625V8.8297C35.9628 10.0767 35.3797 11.1813 34.4391 11.9003C35.4075 12.5951 36.0426 13.7274 36.0426 14.9745V15.6379H36.0496ZM33.3943 10.5734V6.91924H18.181V10.5734H33.3943ZM33.3943 16.8849V13.2307H18.181V16.8849H33.3943Z" fill="white"/>
<path fill-rule="evenodd" clip-rule="evenodd" d="M60.8288 19.5426H59.017V14.8915H44.189V19.5426H41.5337V4.26584H57.521C59.8188 4.26584 61.6723 6.12073 61.6723 8.42023V10.7441C61.6723 12.0154 61.0093 13.0123 59.9854 13.5681C61.0093 14.1204 61.6723 15.1173 61.6723 16.3921V19.5496H60.8323L60.8288 19.5426ZM59.017 12.2342V6.91965H44.189V12.2342H59.017Z" fill="white"/>
<path d="M113.983 19.5423H97.9961C95.6983 19.5423 93.8448 17.6874 93.8448 15.3879V8.41298C93.8448 6.11348 95.6983 4.25859 97.9961 4.25859H113.983V6.91587H96.5001V16.8816H113.983V19.5423Z" fill="white"/>
<path d="M118.829 19.5422H121.484V13.4148L123.917 14.5836L133.626 19.5387H139.405L124.521 11.9701V11.7197L139.214 4.26195H133.403L124.521 8.79497V8.79149L123.93 9.09636L123.751 9.18748V9.18853L121.484 10.3564V4.26542H118.829V19.5422Z" fill="white"/>
<path d="M162.958 19.5422H146.971C145.68 19.5422 142.841 19.5144 142.841 19.5144C142.841 19.5144 142.823 16.3917 142.823 15.3913V8.41635C142.823 7.12418 142.841 4.26195 142.841 4.26195H162.958V6.91924H145.475V10.5734H162.958V13.2307H145.475V16.8849H162.958V19.5422Z" fill="white"/>
<path d="M178.005 6.91924H186.634V4.26195H166.721V6.91924H175.35V19.5422H178.005V6.91924Z" fill="white"/>
<path d="M6.78575 5.50213e-05V3.16796H3.29048V20.2753H6.78575V23.4432H0V5.50213e-05H6.78575Z" fill="white"/>
</svg>
