<svg width="104" height="103" viewBox="0 0 104 103" fill="none" xmlns="http://www.w3.org/2000/svg">
<path d="M102.977 51.7599C102.977 53.7036 102.885 55.6529 103.005 57.5882C103.097 59.046 102.432 59.6352 101.142 59.9257C99.2516 60.353 97.3889 60.9031 95.4927 61.3136C94.2639 61.5817 93.6328 62.1542 93.1832 63.4333C92.0745 66.5834 90.7452 69.6665 89.3321 72.6965C88.8657 73.7019 88.7596 74.4224 89.3516 75.3551C90.4855 77.1424 91.4936 79.0107 92.619 80.8036C93.2502 81.8118 93.4317 82.5518 92.404 83.5293C89.3321 86.4504 86.3551 89.4748 83.3949 92.5105C82.6353 93.2896 82.0041 93.3566 81.1105 92.7981C79.3148 91.6754 77.4298 90.6924 75.6704 89.5195C74.5813 88.7934 73.763 88.8297 72.5594 89.3994C69.5405 90.8321 66.4267 92.0804 63.2877 93.2282C62.2489 93.608 61.668 94.0325 61.4278 95.1216C60.9726 97.1882 60.361 99.2184 59.8779 101.277C59.5958 102.475 59.0261 103.008 57.6968 102.98C53.6335 102.896 49.5646 102.854 45.5069 102.997C43.848 103.056 43.3565 102.279 43.0437 100.941C42.6053 99.0537 42.0328 97.1937 41.6418 95.2975C41.3989 94.1134 40.8096 93.6191 39.6534 93.1974C36.4307 92.0217 33.2722 90.6589 30.1528 89.2291C29.2284 88.8046 28.5554 88.7795 27.7316 89.2905C25.8549 90.4495 23.928 91.5274 22.0653 92.7087C21.1074 93.3147 20.4288 93.3566 19.5602 92.4518C16.6196 89.3966 13.6175 86.3973 10.5651 83.4594C9.66305 82.5909 9.70215 81.9067 10.3082 80.9488C11.4839 79.0833 12.5562 77.1508 13.7124 75.2742C14.2235 74.4447 14.19 73.7717 13.7711 72.8501C12.3161 69.6469 10.9505 66.3935 9.70494 63.1037C9.3419 62.1458 8.90624 61.6543 7.94277 61.4365C5.96557 60.9869 4.01629 60.42 2.04188 59.9648C0.684648 59.652 -0.0554072 59.1186 0.00323866 57.4821C0.142872 53.5109 0.128908 49.5286 0.00882399 45.5574C-0.0386513 43.9852 0.584112 43.3373 1.99441 43.0273C3.88783 42.614 5.75053 42.0582 7.64396 41.6477C8.78895 41.3992 9.34748 40.8574 9.77476 39.6789C10.9393 36.4534 12.2854 33.2837 13.7515 30.1811C14.2514 29.1226 14.1285 28.4049 13.5923 27.528C12.4892 25.7212 11.4867 23.8473 10.3249 22.0795C9.59324 20.9681 9.7971 20.2587 10.7131 19.3735C13.6984 16.4886 16.6335 13.548 19.5156 10.5598C20.3589 9.68571 21.0348 9.62148 22.0206 10.2526C23.8051 11.392 25.6678 12.4086 27.4663 13.5256C28.4325 14.1288 29.1949 14.2182 30.3483 13.6569C33.3532 12.1963 36.467 10.9396 39.606 9.79184C40.7314 9.38131 41.3737 8.94287 41.6223 7.72247C42.044 5.65311 42.6807 3.62564 43.1806 1.57024C43.4459 0.475519 43.9737 -0.0215743 45.1969 0.00076703C49.3468 0.0733762 53.5022 0.0733762 57.6521 0.00076703C58.9451 -0.0215743 59.5791 0.442007 59.8639 1.67078C60.3415 3.73176 60.9503 5.76203 61.4138 7.8258C61.654 8.8926 62.193 9.35618 63.2486 9.74436C66.4658 10.9312 69.6438 12.255 72.7493 13.7099C73.7853 14.1959 74.5058 14.1735 75.4079 13.6122C77.2818 12.4477 79.2115 11.3725 81.0826 10.2051C81.9595 9.65779 82.599 9.65779 83.3753 10.4565C86.3942 13.5591 89.4522 16.6255 92.5576 19.6388C93.3842 20.4403 93.2809 21.0854 92.7587 21.9371C91.6025 23.8166 90.5273 25.7463 89.3544 27.6118C88.7708 28.539 88.8462 29.2567 89.3181 30.2704C90.734 33.2977 92.0661 36.3808 93.172 39.5309C93.6188 40.8015 94.2276 41.4103 95.4592 41.6812C97.266 42.0778 99.0422 42.6251 100.852 43.0049C102.346 43.3205 103.136 43.9517 103.002 45.6636C102.843 47.6827 102.966 49.7241 102.963 51.7572L102.977 51.7599ZM89.1617 51.5226C89.1841 30.9714 72.1153 13.8775 51.5418 13.8468C30.9934 13.8161 13.8939 30.8904 13.866 51.4667C13.8381 72.0151 30.904 89.1062 51.4859 89.1425C72.026 89.1788 89.1422 72.0877 89.1645 51.5226H89.1617Z" fill="white"/>
<path d="M86.8969 50.6205C87.2209 68.8399 73.5117 86.1795 52.3182 86.8246C33.6325 87.3943 16.8989 72.9898 16.1839 52.5028C15.5472 34.2667 29.463 16.8936 50.5728 16.1703C69.1132 15.5363 85.9949 29.8013 86.8969 50.6233V50.6205ZM65.3459 48.7913C64.4942 47.166 63.7765 45.6887 62.9526 44.2756C62.5896 43.6529 62.1539 43.6305 61.506 44.2505C57.0406 48.5233 51.5418 51.1288 45.9788 53.5752C42.6444 55.0413 41.2146 54.6113 38.824 51.8521C38.3046 51.2545 38.0058 50.9194 37.545 51.8158C35.9727 54.8654 34.3837 57.9066 32.8338 60.9701C32.0462 62.5257 32.616 63.9415 33.6269 65.1144C34.7356 66.4019 36.2241 66.9073 37.9136 66.3432C38.5755 66.1226 39.2122 65.8042 39.8294 65.4719C46.3307 61.9476 52.846 58.4456 59.311 54.857C60.8358 54.0108 62.3047 52.9775 63.5838 51.799C64.3518 51.0897 64.7036 49.9308 65.3431 48.7941L65.3459 48.7913ZM42.9013 53.5361C44.8674 53.2847 46.7077 52.8491 47.6796 50.5898C48.9279 47.6799 50.4108 44.8677 51.8546 42.0443C52.7482 40.2989 53.8597 38.6987 55.8118 37.9726C56.5742 37.6877 57.3785 37.5146 58.166 37.2912C57.7471 36.4227 57.3422 35.5513 56.9065 34.6912C56.5882 34.0629 56.2335 33.4513 55.8872 32.8369C53.2286 28.1033 50.327 27.9972 47.6516 32.7335C44.7501 37.872 42.0607 43.1334 39.3574 48.3808C38.2097 50.6066 40.2036 53.4886 42.9041 53.5361H42.9013ZM65.9966 64.7877C69.292 64.4107 71.3027 61.5398 70.0432 58.7695C68.9932 56.4572 67.6806 54.2594 66.4574 52.028C65.9519 51.1065 65.5051 51.1874 64.7399 51.9526C63.5084 53.1842 62.1288 54.3041 60.6738 55.2675C59.7467 55.8819 59.4814 56.3846 60.0203 57.362C60.9978 59.127 61.749 61.0455 62.9275 62.6597C63.6201 63.6092 64.9522 64.0951 65.9966 64.7905V64.7877ZM61.2854 42.4492C60.4336 41.3601 59.7774 39.718 58.7078 39.3773C57.5488 39.0059 55.8286 39.5588 54.6752 40.2486C53.5777 40.9021 52.3601 42.0275 52.8683 43.7087C54.1446 47.934 55.1499 48.2552 58.6799 45.6161C59.2412 45.1972 59.8221 44.7727 60.2773 44.2505C60.6543 43.8148 60.8609 43.2312 61.2826 42.452L61.2854 42.4492Z" fill="white"/>
</svg>
