<svg width="140" height="32" viewBox="0 0 140 32" fill="none" xmlns="http://www.w3.org/2000/svg">
<g clip-path="url(#clip0_3438_20993)">
<path d="M44.2622 16.5661V16.2146C44.2622 15.3479 43.9577 14.6685 43.3719 14.2C42.7863 13.708 42.0367 13.4738 41.0996 13.4738C40.3734 13.4738 39.8111 13.5909 39.3895 13.8486C38.9913 14.0829 38.6164 14.4343 38.2415 14.9262C38.1244 15.0668 38.0073 15.1605 37.8902 15.2307C37.7731 15.2776 37.5857 15.301 37.3748 15.301H36.555C36.3675 15.301 36.1801 15.2307 36.0161 15.0902C35.8756 14.9496 35.8052 14.7856 35.8287 14.5748C35.8756 14.036 36.1567 13.5206 36.6252 13.0052C37.1172 12.4664 37.7497 12.0447 38.5462 11.6934C39.3427 11.3654 40.186 11.178 41.0996 11.178C42.7863 11.178 44.1451 11.6465 45.1758 12.5601C46.23 13.4972 46.7454 14.7856 46.7454 16.449V24.6013C46.7454 24.7887 46.6751 24.9762 46.5347 25.1167C46.394 25.2573 46.2067 25.3276 46.0191 25.3276H45.0119C44.8244 25.3276 44.6371 25.2573 44.4964 25.1167C44.3559 24.9762 44.2857 24.8122 44.2857 24.6013V23.5004C44.0046 24.1328 43.3719 24.6482 42.435 25.0231C41.4979 25.3978 40.5609 25.5853 39.6238 25.5853C38.7102 25.5853 37.8902 25.4213 37.1639 25.0933C36.4377 24.7653 35.8756 24.2968 35.4772 23.7346C35.1025 23.1724 34.915 22.5164 34.915 21.8136C34.915 20.4783 35.4305 19.4476 36.4377 18.6978C37.4451 17.9248 38.8038 17.4095 40.4905 17.1517L44.2622 16.5661ZM44.2622 18.7213L41.0527 19.2367C39.8815 19.424 38.9678 19.7052 38.3119 20.1269C37.6559 20.5252 37.3279 21.0172 37.3279 21.6261C37.3279 22.0712 37.5388 22.4695 37.9604 22.821C38.3822 23.1724 39.0147 23.3597 39.858 23.3597C41.1699 23.3597 42.2241 22.9848 43.0206 22.2588C43.8406 21.5325 44.2388 20.572 44.2388 19.4007V18.7213H44.2622Z" fill="white"/>
<path d="M53.1639 24.648C53.1639 24.8355 53.0935 25.0229 52.9531 25.1633C52.8124 25.304 52.6251 25.3742 52.4377 25.3742H51.4303C51.243 25.3742 51.0555 25.304 50.915 25.1633C50.7743 25.0229 50.7041 24.8589 50.7041 24.648V7.12503C50.7041 6.9376 50.7743 6.7502 50.915 6.60964C51.0555 6.46908 51.243 6.3988 51.4303 6.3988H52.4377C52.6251 6.3988 52.8124 6.46908 52.9531 6.60964C53.0935 6.7502 53.1639 6.91418 53.1639 7.12503V24.648Z" fill="white"/>
<path d="M62.9324 23.3364C64.7363 23.3364 65.9543 22.6335 66.5868 21.2514C66.7041 20.9937 66.8446 20.8063 66.9617 20.6892C67.0788 20.5721 67.2662 20.5252 67.4771 20.5252H68.2971C68.4844 20.5252 68.6718 20.5954 68.8124 20.7361C68.9529 20.8532 69.0233 21.0172 69.0233 21.181C69.0233 21.7901 68.7889 22.4461 68.2971 23.1255C67.8051 23.8282 67.1023 24.414 66.1886 24.8825C65.275 25.3745 64.174 25.6087 62.9324 25.6087C61.6439 25.6087 60.5428 25.3509 59.6059 24.8122C58.6687 24.2733 57.9425 23.5471 57.4271 22.6335C56.9118 21.6965 56.6307 20.6423 56.5838 19.4709C56.5604 19.2601 56.5604 18.8385 56.5604 18.2529C56.5604 17.8311 56.5604 17.5266 56.5838 17.3391C56.7478 15.5119 57.3803 14.036 58.4579 12.9115C59.5355 11.7637 61.0348 11.2014 62.9324 11.2014C64.174 11.2014 65.2516 11.4357 66.1652 11.9276C67.0788 12.3962 67.7817 12.9584 68.2502 13.6612C68.7422 14.3406 68.9998 14.9731 69.0467 15.5822C69.07 15.7696 68.9998 15.957 68.8358 16.0975C68.6953 16.2381 68.5079 16.3084 68.3204 16.3084H67.5006C67.2897 16.3084 67.1023 16.2615 66.9852 16.1444C66.8679 16.0273 66.7275 15.8399 66.6103 15.5822C65.9779 14.2 64.7596 13.4972 62.9558 13.4972C61.9719 13.4972 61.0817 13.8252 60.3555 14.4811C59.6059 15.1371 59.1841 16.1444 59.0905 17.4797C59.067 17.6671 59.067 17.9951 59.067 18.4402C59.067 18.8385 59.067 19.1429 59.0905 19.3538C59.2076 20.6892 59.6527 21.6965 60.3555 22.3524C61.0817 23.0084 61.9484 23.3364 62.9324 23.3364Z" fill="white"/>
<path d="M84.8135 24.648C84.8135 24.8355 84.7432 25.0229 84.6026 25.1633C84.4621 25.304 84.2748 25.3742 84.0872 25.3742H83.0799C82.8925 25.3742 82.7052 25.304 82.5645 25.1633C82.424 25.0229 82.3536 24.8589 82.3536 24.648V17.5966C82.3536 16.2614 82.0258 15.254 81.3464 14.5512C80.6671 13.8484 79.7533 13.5204 78.5586 13.5204C77.3872 13.5204 76.4503 13.8718 75.7709 14.5512C75.0916 15.254 74.7635 16.2614 74.7635 17.5966V24.648C74.7635 24.8355 74.6933 25.0229 74.5527 25.1633C74.4122 25.304 74.2247 25.3742 74.0373 25.3742H73.0299C72.8426 25.3742 72.6551 25.304 72.5146 25.1633C72.374 25.0229 72.3037 24.8589 72.3037 24.648V7.12503C72.3037 6.9376 72.374 6.7502 72.5146 6.60964C72.6551 6.46908 72.8426 6.3988 73.0299 6.3988H74.0373C74.2247 6.3988 74.4122 6.46908 74.5527 6.60964C74.6933 6.7502 74.7635 6.91418 74.7635 7.12503V13.0285C75.1618 12.5131 75.7005 12.0914 76.38 11.74C77.0828 11.3886 77.9495 11.2012 78.9568 11.2012C80.1048 11.2012 81.112 11.4355 82.0023 11.9274C82.8925 12.4194 83.5719 13.0988 84.0639 14.0124C84.5792 14.9026 84.8135 15.9568 84.8135 17.1984V24.648Z" fill="white"/>
<path d="M94.3241 11.2014C96.2686 11.2014 97.7913 11.8105 98.9158 13.0287C100.04 14.2469 100.602 15.8867 100.602 17.9717V18.6978C100.602 18.8853 100.532 19.0727 100.392 19.2133C100.251 19.3538 100.064 19.4241 99.8763 19.4241H90.5525V19.5881C90.5993 20.7594 90.9507 21.6965 91.6301 22.3759C92.3329 23.0317 93.2465 23.3597 94.3477 23.3597C95.2613 23.3597 95.9406 23.2426 96.4325 23.0084C96.948 22.7741 97.3931 22.4461 97.7913 22.0244C97.9318 21.8839 98.0725 21.7901 98.1661 21.7199C98.2832 21.673 98.4472 21.6497 98.6581 21.6497H99.4781C99.6888 21.6497 99.8763 21.7199 100.017 21.8605C100.157 22.001 100.228 22.165 100.204 22.3759C100.134 22.8677 99.8528 23.3597 99.3843 23.8751C98.9392 24.3671 98.2832 24.8122 97.3931 25.1636C96.5497 25.4916 95.5189 25.6789 94.3241 25.6789C93.1763 25.6789 92.1456 25.4213 91.2318 24.906C90.3182 24.3671 89.6155 23.6409 89.0533 22.7273C88.5379 21.7901 88.2099 20.7594 88.0928 19.6116C88.0459 19.0727 88.0459 18.6745 88.0459 18.3933C88.0459 18.1122 88.0693 17.6906 88.0928 17.1751C88.2099 16.0741 88.5144 15.0668 89.0533 14.1766C89.592 13.2864 90.3182 12.5836 91.1849 12.0682C92.0987 11.4591 93.1528 11.2014 94.3241 11.2014ZM98.1427 17.1751V17.1049C98.1427 16.0273 97.7913 15.1605 97.0885 14.5046C96.4091 13.8486 95.472 13.5206 94.3241 13.5206C93.2699 13.5206 92.3798 13.8486 91.6301 14.5046C90.9038 15.1605 90.5291 16.0273 90.5291 17.1049V17.1751H98.1427Z" fill="white"/>
<path d="M106.318 13.0287C106.763 12.4665 107.232 12.0448 107.794 11.7168C108.333 11.3888 109.059 11.2014 109.973 11.2014C112.081 11.2014 113.58 11.9745 114.424 13.5206C114.939 12.771 115.548 12.2088 116.204 11.8105C116.884 11.4123 117.75 11.2014 118.828 11.2014C120.608 11.2014 121.92 11.7168 122.764 12.771C123.63 13.8252 124.075 15.301 124.075 17.222V24.6249C124.075 24.8122 124.005 24.9996 123.865 25.1402C123.724 25.2807 123.537 25.3509 123.349 25.3509H122.342C122.154 25.3509 121.967 25.2807 121.827 25.1402C121.686 24.9996 121.616 24.8356 121.616 24.6249V17.5031C121.616 14.8325 120.538 13.4972 118.406 13.4972C117.422 13.4972 116.649 13.8252 116.064 14.4577C115.478 15.0902 115.197 16.0508 115.197 17.3157V24.6249C115.197 24.8122 115.127 24.9996 114.986 25.1402C114.845 25.2807 114.658 25.3509 114.471 25.3509H113.463C113.276 25.3509 113.088 25.2807 112.948 25.1402C112.807 24.9996 112.737 24.8356 112.737 24.6249V17.5031C112.737 14.8325 111.659 13.4972 109.528 13.4972C108.544 13.4972 107.771 13.8252 107.185 14.4577C106.599 15.0902 106.318 16.0508 106.318 17.3157V24.6249C106.318 24.8122 106.248 24.9996 106.107 25.1402C105.967 25.2807 105.779 25.3509 105.592 25.3509H104.585C104.397 25.3509 104.21 25.2807 104.069 25.1402C103.929 24.9996 103.858 24.8356 103.858 24.6249V12.1853C103.858 11.9979 103.929 11.8105 104.069 11.67C104.21 11.5294 104.397 11.4591 104.585 11.4591H105.592C105.779 11.4591 105.967 11.5294 106.107 11.67C106.248 11.8105 106.318 11.9745 106.318 12.1853V13.0287Z" fill="white"/>
<path d="M131.665 29.8019C131.501 30.2235 131.244 30.4344 130.869 30.4344H129.768C129.58 30.4344 129.44 30.3642 129.299 30.247C129.182 30.1299 129.112 29.9659 129.112 29.8019C129.112 29.7317 129.112 29.6613 129.135 29.6146L131.736 24.039L126.371 12.3024C126.348 12.2555 126.348 12.1852 126.348 12.1149C126.348 11.9275 126.418 11.787 126.535 11.6698C126.652 11.5527 126.816 11.4824 127.003 11.4824H128.105C128.456 11.4824 128.737 11.6933 128.901 12.1149L133.071 21.2045L137.311 12.1149C137.475 11.6933 137.733 11.4824 138.108 11.4824H139.209C139.396 11.4824 139.537 11.5527 139.677 11.6698C139.794 11.787 139.865 11.951 139.865 12.1149C139.865 12.1852 139.865 12.2555 139.841 12.3024L131.665 29.8019Z" fill="white"/>
<path d="M24.6296 16.5192L15.5168 1.05774C15.4699 0.987462 15.3997 0.917182 15.3294 0.870329C15.2591 0.823476 15.1654 0.800049 15.0717 0.800049C14.978 0.800049 14.8843 0.823476 14.814 0.870329C14.7437 0.917182 14.6734 0.987462 14.6266 1.05774L11.9091 5.69618C11.8154 5.83674 11.7686 6.02414 11.7686 6.18813C11.7686 6.35213 11.8154 6.53952 11.9091 6.68008L17.8594 16.7768C17.9531 16.9175 18.0703 17.058 18.2343 17.1517C18.3983 17.2455 18.5623 17.2922 18.7496 17.2922H24.1847C24.2783 17.2922 24.372 17.2688 24.4423 17.222C24.5125 17.1751 24.5829 17.1048 24.6296 17.0346C24.6765 16.9644 24.7 16.8706 24.7 16.7768C24.7 16.6832 24.6765 16.6128 24.6296 16.5192Z" fill="white"/>
<path d="M0.758745 24.6014L9.87163 9.13988C9.91849 9.06961 9.98877 8.99934 10.059 8.95247C10.1293 8.90563 10.223 8.8822 10.3167 8.8822C10.4104 8.8822 10.5041 8.90563 10.5744 8.95247C10.6447 8.99934 10.715 9.06961 10.7618 9.13988L13.4793 13.7783C13.573 13.9189 13.6199 14.1063 13.6199 14.2703C13.6199 14.4343 13.573 14.6217 13.4793 14.7622L7.52899 24.859C7.43528 24.9997 7.31816 25.1401 7.15417 25.2339C6.99017 25.3275 6.82619 25.3744 6.63878 25.3744H1.18042C1.08672 25.3744 0.993009 25.351 0.92273 25.3041C0.85245 25.2573 0.782172 25.187 0.735319 25.1168C0.688466 25.0464 0.665039 24.9528 0.665039 24.859C0.688465 24.7653 0.711892 24.695 0.758745 24.6014Z" fill="white"/>
<path d="M10.7382 25.3508H28.9641C29.0577 25.3508 29.1514 25.3275 29.2217 25.2806C29.2919 25.2337 29.3623 25.1635 29.4092 25.0932C29.4559 25.0228 29.4794 24.9292 29.4794 24.8355C29.4794 24.7417 29.4559 24.6715 29.4092 24.5779L26.6916 19.9393C26.598 19.7988 26.4809 19.6582 26.3169 19.5646C26.1529 19.4708 25.9889 19.424 25.8015 19.424H13.9242C13.7368 19.424 13.5728 19.4708 13.4089 19.5646C13.2449 19.6582 13.1277 19.7753 13.034 19.9393L10.3166 24.5779C10.2697 24.6481 10.2463 24.7417 10.2463 24.8355C10.2463 24.9292 10.2697 24.9995 10.3166 25.0932C10.3634 25.1635 10.4337 25.2337 10.504 25.2806C10.5742 25.3275 10.668 25.3508 10.7382 25.3508Z" fill="white"/>
</g>
<defs>
<clipPath id="clip0_3438_20993">
<rect width="139.2" height="32" fill="white" transform="translate(0.665039)"/>
</clipPath>
</defs>
</svg>
