<svg width="124" height="32" viewBox="0 0 124 32" fill="none" xmlns="http://www.w3.org/2000/svg">
<g clip-path="url(#clip0_3438_20950)">
<mask id="mask0_3438_20950" style="mask-type:luminance" maskUnits="userSpaceOnUse" x="0" y="0" width="124" height="32">
<path d="M123.077 0.615356H0V31.9754H123.077V0.615356Z" fill="white"/>
</mask>
<g mask="url(#mask0_3438_20950)">
<path d="M16.242 18.6783L14.7355 22.8186C14.6715 22.9417 14.6715 23.0697 14.7355 23.1928L17.3693 30.3411L20.3773 28.5835L16.7392 18.6783C16.6801 18.4272 16.365 18.4272 16.242 18.6783Z" fill="white"/>
<path d="M19.2497 11.658C19.1857 11.407 18.8756 11.407 18.7476 11.658L17.2411 15.7984C17.1771 15.9214 17.1771 16.0494 17.2411 16.1725L21.5045 27.8993L24.5125 26.1417L19.2497 11.658Z" fill="white"/>
<path d="M13.8589 2.56498C13.9229 2.56498 13.982 2.56498 14.046 2.62898L25.5807 9.27513C25.7038 9.33913 25.7678 9.46221 25.7678 9.64929V22.9416C25.7678 23.0646 25.7038 23.2566 25.5807 23.3157L14.046 29.9619C13.982 30.0259 13.9229 30.0259 13.8589 30.0259C13.7949 30.0259 13.7358 30.0259 13.6718 29.9619L2.1371 23.3157C2.01402 23.2517 1.95002 23.1286 1.95002 22.9416V9.64929C1.95002 9.52621 2.01402 9.33421 2.1371 9.27513L13.6718 2.62898C13.7309 2.56498 13.7949 2.56498 13.8589 2.56498ZM13.8589 0.620361C13.4207 0.620361 13.0417 0.743438 12.6675 0.935438L1.13279 7.58159C0.37956 8.01975 -0.0585938 8.77298 -0.0585938 9.64929V22.9416C-0.0585938 23.7588 0.37956 24.5711 1.13279 25.0093L12.6675 31.6554C13.0417 31.8425 13.4207 31.9705 13.8589 31.9705C14.297 31.9705 14.6761 31.8474 15.0503 31.6554L26.585 25.0093C27.3383 24.5711 27.7764 23.8179 27.7764 22.9416V9.64929C27.7764 8.83206 27.3383 8.01975 26.585 7.58159L15.1093 0.935438C14.7352 0.748361 14.3561 0.620361 13.918 0.620361H13.8589Z" fill="white"/>
<path d="M6.27258 27.8943L7.33597 25.0094L9.46766 26.7669L7.46397 28.6476L6.27258 27.8943Z" fill="white"/>
<path d="M12.9186 8.70898H9.96967C9.78259 8.70898 9.53152 8.83206 9.46752 9.02406L3.20044 26.2007L6.20844 27.9583L13.1057 9.08314C13.1697 8.89606 13.0417 8.70898 12.8546 8.70898H12.9186Z" fill="white"/>
<path d="M17.9948 8.7091H15.0459C14.8588 8.7091 14.6078 8.83218 14.5438 9.02418L7.40039 28.5836L10.4084 30.3411L18.1819 9.02418C18.2459 8.8371 18.1179 8.65002 17.9308 8.65002L17.9948 8.7091Z" fill="white"/>
<path d="M40.1925 12.2831C40.5075 12.2831 40.7586 12.3471 40.9457 12.4702C41.1328 12.5933 41.3198 12.8443 41.5118 13.1594L45.3371 20.0566C45.4011 20.1206 45.4011 20.1797 45.3371 20.2437C45.3371 20.3077 45.2731 20.3077 45.15 20.3077H43.7075C43.5845 20.3077 43.5205 20.2437 43.4565 20.1846L42.6343 18.6782H37.2435L36.4263 20.1846C36.3623 20.3077 36.3032 20.3077 36.1752 20.3077H34.6688C34.5457 20.3077 34.4817 20.3077 34.4817 20.2437C34.4817 20.1797 34.4817 20.1206 34.4817 20.0566L38.2429 13.1594C38.43 12.7853 38.6171 12.5933 38.8091 12.4702C39.0011 12.3471 39.1832 12.2831 39.4343 12.2831H40.1235H40.1925ZM37.9328 17.3637H41.8811L40.0645 13.9766C40.0005 13.9126 40.0005 13.9126 39.9414 13.9126H39.8774C39.8134 13.9126 39.7543 13.9126 39.7543 13.9766L37.9328 17.3637Z" fill="white"/>
<path d="M53.6714 12.2831C54.5477 12.2831 55.1779 12.4702 55.552 12.9083C55.9262 13.2825 56.1182 13.9126 56.1182 14.6659V15.2911C56.1182 15.9803 55.9951 16.4825 55.744 16.8566C55.4929 17.2308 55.0548 17.4819 54.4295 17.6099L56.3742 20.0566C56.4382 20.1206 56.4382 20.1797 56.4382 20.2437C56.4382 20.3077 56.3742 20.3668 56.2511 20.3668H54.7446C54.6215 20.3668 54.5575 20.3668 54.5575 20.3028C54.4935 20.3028 54.4935 20.2388 54.4345 20.1797L52.6179 17.797H48.9206V20.1157C48.9206 20.3028 48.8566 20.3668 48.6695 20.3668H47.4142C47.2271 20.3668 47.1631 20.3028 47.1631 20.1157V12.6573C47.1631 12.4062 47.2862 12.2831 47.5372 12.2831H53.7452H53.6714ZM48.9059 16.4185H53.2923C53.6665 16.4185 53.9815 16.3545 54.1095 16.1674C54.2966 15.9803 54.3606 15.7293 54.3606 15.4142V14.912C54.3606 14.5379 54.2966 14.2868 54.1095 14.1588C53.9225 13.9717 53.6714 13.9077 53.2923 13.9077H49.0289C48.9059 13.9077 48.9059 13.9717 48.9059 14.0308V16.4185Z" fill="white"/>
<path d="M65.7727 12.2831C66.5899 12.2831 67.1511 12.4702 67.4662 12.7853C67.7813 13.1003 67.9684 13.6025 67.9684 14.2277V14.7939C67.9684 15.4191 67.7173 15.9213 67.2151 16.2363C67.7173 16.5514 68.0324 17.0536 68.0324 17.7428V18.432C68.0324 18.7471 67.9684 18.9982 67.9093 19.2493C67.8502 19.5003 67.7222 19.6874 67.5942 19.8745C67.4071 20.0616 67.2201 20.1896 66.969 20.2486C66.7179 20.3126 66.4028 20.3717 66.0287 20.3717H59.1954C58.9444 20.3717 58.8213 20.2486 58.8213 19.9976V12.6622C58.8213 12.4111 58.9444 12.288 59.1954 12.288H65.8416H65.7727V12.2831ZM60.569 15.6062H65.2705C65.6447 15.6062 65.8958 15.5422 66.0238 15.4191C66.1518 15.296 66.2108 15.168 66.2108 14.917V14.5428C66.2108 14.2917 66.1468 14.1046 66.0238 14.0406C65.9007 13.9176 65.6496 13.8536 65.3985 13.8536H60.697C60.5739 13.8536 60.5739 13.9176 60.5739 13.9766V15.6062H60.569ZM60.569 16.8616V18.5551C60.569 18.6782 60.633 18.6782 60.6921 18.6782H65.3936C65.7087 18.6782 65.8958 18.6142 66.0188 18.4911C66.1419 18.368 66.2059 18.176 66.2059 17.989V17.5508C66.2059 17.2997 66.1419 17.1126 66.0188 16.9846C65.8958 16.8566 65.6447 16.7976 65.2016 16.7976H60.505L60.569 16.8616Z" fill="white"/>
<path d="M72.2906 12.2831C72.4777 12.2831 72.5417 12.3471 72.5417 12.5342V20.0566C72.5417 20.2437 72.4777 20.3077 72.2906 20.3077H71.0353C70.8482 20.3077 70.7842 20.2437 70.7842 20.0566V12.5342C70.7842 12.3471 70.8482 12.2831 71.0353 12.2831H72.2906Z" fill="white"/>
<path d="M84.3916 12.2831C84.5787 12.2831 84.6427 12.3471 84.6427 12.5342V13.6616C84.6427 13.8486 84.5787 13.9126 84.3916 13.9126H80.7535V20.0566C80.7535 20.2437 80.6895 20.3077 80.5024 20.3077H79.247C79.0599 20.3077 78.9959 20.2437 78.9959 20.0566V13.9126H75.3578C75.1707 13.9126 75.1067 13.8486 75.1067 13.6616V12.5342C75.1067 12.3471 75.1707 12.2831 75.3578 12.2831H84.3227H84.3916Z" fill="white"/>
<path d="M93.4849 12.2831C94.3612 12.2831 94.9913 12.4702 95.3655 12.9083C95.7396 13.2825 95.9316 13.9126 95.9316 14.6659V15.2911C95.9316 15.9803 95.8086 16.4825 95.5575 16.8566C95.3064 17.2308 94.8683 17.4819 94.243 17.6099L96.1876 20.0566C96.2516 20.1206 96.2516 20.1797 96.2516 20.2437C96.2516 20.3077 96.1876 20.3668 96.0646 20.3668H94.5581C94.435 20.3668 94.371 20.3668 94.371 20.3028C94.307 20.3028 94.307 20.2388 94.2479 20.1797L92.4313 17.797H88.7341V20.1157C88.7341 20.3028 88.6701 20.3668 88.483 20.3668H87.2276C87.0406 20.3668 86.9766 20.3028 86.9766 20.1157V12.6573C86.9766 12.4062 87.0996 12.2831 87.3507 12.2831H93.5587H93.4849ZM88.7193 16.4185H93.1058C93.48 16.4185 93.795 16.3545 93.923 16.1674C94.1101 15.9803 94.1741 15.7293 94.1741 15.4142V14.912C94.1741 14.5379 94.1101 14.2868 93.923 14.1588C93.7359 13.9717 93.4849 13.9077 93.1058 13.9077H88.8424C88.7193 13.9077 88.7193 13.9717 88.7193 14.0308V16.4185Z" fill="white"/>
<path d="M99.9439 12.2831C100.131 12.2831 100.195 12.3471 100.195 12.5342V17.1126C100.195 17.4277 100.195 17.6788 100.259 17.8659C100.323 18.053 100.382 18.24 100.51 18.368C100.638 18.496 100.761 18.5551 100.948 18.6191C101.135 18.6831 101.386 18.6831 101.701 18.6831H104.901C105.216 18.6831 105.468 18.6831 105.655 18.6191C105.842 18.5551 106.029 18.496 106.093 18.368C106.216 18.245 106.28 18.053 106.344 17.8659C106.408 17.6788 106.408 17.4277 106.408 17.1126V12.5342C106.408 12.3471 106.472 12.2831 106.659 12.2831H107.914C108.101 12.2831 108.165 12.3471 108.165 12.5342V17.2997C108.165 17.8659 108.101 18.304 107.978 18.6782C107.855 19.0523 107.663 19.3674 107.412 19.6185C107.161 19.8696 106.846 20.0566 106.408 20.1206C105.97 20.2437 105.532 20.3077 104.901 20.3077H101.578C101.012 20.3077 100.51 20.2437 100.072 20.1206C99.6977 19.9976 99.3186 19.8056 99.0676 19.6185C98.8165 19.3674 98.6294 19.0523 98.5014 18.6782C98.3783 18.304 98.3143 17.8019 98.3143 17.2997V12.5342C98.3143 12.3471 98.3783 12.2831 98.5654 12.2831H99.8208H99.9439Z" fill="white"/>
<path d="M113.108 12.2831C113.295 12.2831 113.423 12.2831 113.546 12.3471C113.669 12.3471 113.797 12.4111 113.861 12.4702C113.925 12.5342 114.048 12.5933 114.112 12.7213C114.176 12.8443 114.235 12.9723 114.363 13.1594L116.746 18.6782C116.81 18.7422 116.81 18.8013 116.933 18.8013H117.056C117.12 18.8013 117.179 18.7373 117.243 18.6782L119.626 13.1594C119.69 12.9723 119.749 12.8443 119.877 12.7213C119.941 12.5982 120 12.5342 120.128 12.4702C120.192 12.4062 120.315 12.3471 120.443 12.3471C120.571 12.3471 120.695 12.2831 120.882 12.2831H122.137C122.511 12.2831 122.826 12.3471 122.954 12.5342C123.077 12.7213 123.141 13.0363 123.141 13.4745V20.0566C123.141 20.2437 123.077 20.3077 122.89 20.3077H121.699C121.512 20.3077 121.448 20.2437 121.448 20.0566V14.0406C121.448 13.9766 121.384 13.9176 121.384 13.9176H121.261C121.197 13.9176 121.138 13.9816 121.138 13.9816L118.819 19.1213C118.755 19.3083 118.632 19.4954 118.504 19.6234C118.376 19.7514 118.317 19.8745 118.189 19.9976C118.066 20.0616 117.938 20.1846 117.815 20.1846C117.691 20.2486 117.499 20.2486 117.312 20.2486H116.746C116.559 20.2486 116.372 20.2486 116.244 20.1846C116.116 20.1206 115.993 20.0616 115.87 19.9976C115.747 19.9336 115.683 19.8105 115.555 19.6234C115.432 19.5003 115.368 19.3083 115.24 19.1213L112.921 13.9816C112.921 13.9176 112.857 13.9176 112.798 13.9176H112.675C112.611 13.9176 112.611 13.9816 112.611 14.0406V20.0616C112.611 20.2486 112.547 20.3126 112.36 20.3126H111.163C110.976 20.3126 110.912 20.2486 110.912 20.0616V13.4745C110.912 13.0363 110.976 12.7213 111.099 12.5342C111.223 12.3471 111.538 12.2831 111.917 12.2831H113.172H113.108Z" fill="white"/>
</g>
</g>
<defs>
<clipPath id="clip0_3438_20950">
<rect width="123.077" height="32" fill="white"/>
</clipPath>
</defs>
</svg>
