<svg width="188" height="80" viewBox="0 0 188 80" fill="none" xmlns="http://www.w3.org/2000/svg">
<path d="M24.64 72.7159H0.11499C0.33499 70.4309 42.165 10.9959 44.84 7.84094C45.56 8.71594 46.345 9.49094 46.92 10.3909C52.3 18.8459 52.135 27.6509 48.49 36.6509C46.84 40.7159 44.36 44.2959 41.87 47.8709C36.15 56.0909 30.455 64.3309 24.645 72.7109L24.64 72.7159Z" fill="white"/>
<path d="M1.385 44.396C1.675 41.716 1.94 39.071 2.26 36.431C3.01 30.211 3.85 24.001 4.505 17.771C4.63 16.566 4.295 15.1859 3.78 14.0759C2.65 11.6409 1.26 9.32095 0 6.99595C1.38 5.47095 3.72 4.29595 7.785 3.07595C8.49 4.58595 9.205 6.13095 9.925 7.67095C10.025 7.65095 10.125 7.62595 10.225 7.60595C10.08 5.77595 9.93 3.95095 9.77 1.91095C20.17 -0.64905 30.16 -1.32405 40.16 4.27595C35.665 11.306 30.98 17.826 26.035 24.986C25.575 22.706 25.24 21.066 24.91 19.431C24.795 19.431 24.68 19.4259 24.565 19.4209C24.5 20.0009 24.405 20.581 24.37 21.161C24.08 25.986 22.4 30.2959 19.59 34.2059C17.965 36.4659 16.38 38.7609 14.85 41.0859C13.38 43.3209 11.325 44.376 8.7 44.396C6.37 44.416 4.045 44.396 1.38 44.396H1.385Z" fill="white"/>
<path d="M63.8149 62.5509C62.2449 64.8459 60.9499 66.9209 59.4699 68.8459C57.5249 71.3809 55.0049 72.9009 51.6499 72.8659C45.8099 72.8059 39.9649 72.8559 34.1199 72.8409C33.4549 72.8409 32.7899 72.7259 31.5349 72.6059C39.3799 61.2859 46.9799 50.3309 54.6399 39.2809C55.3999 43.6209 55.9399 47.7659 56.8949 51.8109C57.9049 56.0809 61.0449 59.1659 63.8099 62.5459L63.8149 62.5509Z" fill="white"/>
<path d="M94.52 57.286H90.885C90.7 56.801 90.475 56.346 90.345 55.866C89.645 53.286 88.265 52.116 85.785 52.041C83.21 51.961 80.84 53.371 80.545 55.816C80.185 58.806 80.185 61.896 80.51 64.896C80.78 67.401 82.965 68.726 85.675 68.706C88.38 68.686 89.68 67.596 90.36 64.786C90.46 64.376 90.585 63.971 90.74 63.401H94.54C95.42 67.391 93.55 70.846 89.805 72.141C87.18 73.046 84.495 73.136 81.84 72.256C78.165 71.031 76.005 68.451 75.73 64.601C75.525 61.746 75.515 58.846 75.755 55.996C76.105 51.831 78.65 49.211 82.72 48.246C85.36 47.616 87.92 47.846 90.395 48.876C93.7 50.251 95.365 53.631 94.51 57.291L94.52 57.286Z" fill="white"/>
<path d="M80.17 26.491C79.665 28.066 79.215 29.456 78.72 30.991H74.095C76.17 23.526 78.18 16.311 80.215 8.99097H88.085C90.085 16.116 92.11 23.351 94.235 30.931H89.61C89.155 29.551 88.675 28.091 88.15 26.491H80.165H80.17ZM87.125 22.281C86.205 18.521 85.615 15.211 84.29 12.126C84.11 12.146 83.925 12.166 83.745 12.181C82.945 15.406 82.14 18.631 81.3 22.016C82.27 22.136 82.855 22.251 83.445 22.266C84.55 22.301 85.66 22.276 87.125 22.276V22.281Z" fill="white"/>
<path d="M122.56 70.191V78.966C121.075 79.036 119.835 79.096 118.38 79.161V55.446H122.135C122.34 55.971 122.565 56.566 122.805 57.191C127.06 54.071 130.815 54.096 133.605 57.166C136.93 60.826 136.965 66.671 133.685 70.291C130.755 73.526 127.24 73.611 122.56 70.191ZM131.715 63.841C131.745 60.856 129.96 58.866 127.225 58.846C124.385 58.826 122.625 60.656 122.575 63.681C122.525 66.836 124.32 68.836 127.19 68.826C129.86 68.821 131.68 66.816 131.71 63.836L131.715 63.841Z" fill="white"/>
<path d="M174.31 61.621C173.395 57.771 170.315 57.731 166 61.331C165.06 60.711 164.07 60.056 163.095 59.411C165.33 54.796 171.53 53.856 175.13 55.581C177.11 56.531 178.695 58.066 178.81 60.311C179.005 64.191 178.865 68.086 178.865 72.141H174.955C174.79 71.601 174.605 70.996 174.395 70.296C174.125 70.466 173.885 70.556 173.72 70.726C171.425 73.101 168.705 73.306 165.795 72.206C163.6 71.376 162.395 69.526 162.465 67.401C162.54 65.191 163.74 63.606 166.195 62.981C168.12 62.491 170.135 62.336 172.105 62.021C172.775 61.916 173.445 61.771 174.305 61.611L174.31 61.621ZM167.455 68.316C169.215 69.646 171.045 69.406 172.77 68.346C173.89 67.656 174.57 66.576 174.11 64.921C172.245 65.161 170.53 65.306 168.845 65.631C167.42 65.906 166.725 66.751 167.455 68.311V68.316Z" fill="white"/>
<path d="M113.885 72.196H110.02C109.755 71.716 109.47 71.206 109.155 70.636C108.95 70.731 108.685 70.776 108.53 70.931C106.26 73.236 103.575 73.246 100.79 72.211C98.6 71.396 97.535 69.611 97.61 67.326C97.685 65.196 98.805 63.686 101.135 63.036C102.715 62.596 104.385 62.471 106.01 62.211C107.035 62.051 108.06 61.901 109.07 61.751C109.645 60.381 109.015 59.501 108.02 59.101C105.305 58.016 103.125 59.061 101.27 61.436C100.13 60.676 99.085 59.981 98.04 59.281C100.785 55.326 105.41 53.796 109.615 55.336C112.03 56.221 113.695 57.906 113.83 60.476C114.025 64.276 113.88 68.091 113.88 72.191L113.885 72.196ZM109.355 65.281C105.32 64.866 103.595 65.301 102.255 67.026C102.935 68.801 103.71 69.331 105.435 69.186C107.75 68.991 108.805 67.991 109.355 65.281Z" fill="white"/>
<path d="M142.495 21.581C143.015 19.971 142.585 19.111 141.325 18.591C139.535 17.851 138.145 18.326 136.215 20.521C135.2 20.216 134.075 19.881 132.89 19.526C132.97 17.896 133.795 16.841 134.915 16.216C138.095 14.441 141.41 14.311 144.625 16.126C146.35 17.096 147.11 18.756 147.13 20.721C147.15 22.886 147.13 25.056 147.13 27.221C147.935 27.616 148.535 27.911 149.19 28.231V30.836C146.86 31.456 144.82 31.496 143.255 29.196C141.36 31.571 138.9 32.016 136.175 31.426C133.56 30.856 131.91 28.891 131.94 26.511C131.97 24.146 133.395 22.451 136.085 21.861C137.26 21.601 138.505 21.646 139.72 21.601C140.655 21.561 141.59 21.591 142.485 21.591L142.495 21.581ZM136.565 25.461C136.68 27.661 137.205 28.236 138.905 28.301C141.07 28.386 142.345 27.231 142.55 24.866C140.535 24.506 138.545 24.181 136.565 25.461Z" fill="white"/>
<path d="M107.235 25.9959C106.11 25.6009 105.175 25.2509 104.22 24.9459C102.565 24.4209 100.795 24.1409 99.27 23.3759C96.73 22.0959 96.38 18.3809 98.495 16.4959C101.545 13.7709 109.59 14.4909 110.67 19.1659C109.585 19.5309 108.465 19.9059 107.42 20.2609C104.51 17.6809 103.38 17.5559 101.455 19.5209C101.63 21.0459 102.94 20.9759 103.98 21.2809C105.73 21.7909 107.56 22.1209 109.215 22.8509C111.45 23.8359 112.215 26.5259 110.925 28.5959C109.025 31.6559 105.95 31.8309 102.815 31.5359C99.475 31.2259 97.565 29.6559 96.675 26.4759C97.775 26.1359 98.885 25.7959 99.91 25.4809C103.105 29.0959 105.785 29.4209 107.235 26.0009V25.9959Z" fill="white"/>
<path d="M155.43 59.336V68.3359C156.64 68.5309 157.65 68.691 158.835 68.881V72.226C157.125 72.226 155.405 72.366 153.725 72.186C151.96 71.996 150.875 70.646 150.805 68.736C150.72 66.481 150.78 64.216 150.775 61.956C150.775 61.111 150.775 60.261 150.775 59.331C149.3 59.161 148.12 59.026 146.745 58.866V55.461C148.08 55.341 149.26 55.236 150.615 55.116C150.725 53.441 150.83 51.841 150.945 50.131H154.965C155.105 51.731 155.25 53.321 155.405 55.086C156.835 55.201 158.185 55.311 159.71 55.436V58.881C158.22 59.041 156.87 59.181 155.43 59.336Z" fill="white"/>
<path d="M118.13 30.966C116.38 25.906 114.655 20.921 112.815 15.601H117.48C118.715 19.566 119.99 23.656 121.265 27.746C121.475 27.756 121.69 27.761 121.9 27.771C123.11 23.761 124.315 19.756 125.57 15.586H130.175C128.435 20.871 126.79 25.851 125.1 30.971H118.12L118.13 30.966Z" fill="white"/>
<path d="M187.145 72.106H183.23V48.641H186.975C187.57 50.401 187.74 68.721 187.145 72.106Z" fill="white"/>
<path d="M143.685 72.171H139.765V55.4409H143.685V72.171Z" fill="white"/>
<path d="M141.67 47.551C143.365 47.531 144.71 48.776 144.74 50.396C144.77 51.996 143.425 53.431 141.845 53.481C140.1 53.541 138.64 52.151 138.65 50.436C138.66 48.771 139.915 47.571 141.67 47.546V47.551Z" fill="white"/>
</svg>
