<svg width="68" height="40" viewBox="0 0 68 40" fill="none" xmlns="http://www.w3.org/2000/svg">
<g clip-path="url(#clip0_3438_21004)">
<path d="M19.8539 14.5933C19.8539 15.4065 19.9418 16.0659 20.0956 16.5494C20.2714 17.0329 20.4912 17.5604 20.7989 18.1318C20.9088 18.3076 20.9528 18.4835 20.9528 18.6373C20.9528 18.8571 20.8209 19.0769 20.5352 19.2966L19.1506 20.2197C18.9528 20.3516 18.755 20.4175 18.5791 20.4175C18.3593 20.4175 18.1396 20.3076 17.9198 20.1098C17.6121 19.7802 17.3484 19.4285 17.1286 19.0769C16.9088 18.7032 16.689 18.2857 16.4473 17.7802C14.733 19.8021 12.5791 20.8131 9.98572 20.8131C8.13957 20.8131 6.66704 20.2857 5.59012 19.2307C4.5132 18.1758 3.96375 16.7692 3.96375 15.0109C3.96375 13.1428 4.62309 11.6263 5.96375 10.4835C7.3044 9.3406 9.08462 8.76917 11.3484 8.76917C12.0956 8.76917 12.8648 8.83511 13.678 8.945C14.4912 9.05489 15.3264 9.23071 16.2055 9.42851V7.82412C16.2055 6.15379 15.8539 4.98895 15.1725 4.30763C14.4692 3.62631 13.2824 3.29664 11.5901 3.29664C10.8209 3.29664 10.0297 3.38456 9.21649 3.58236C8.40331 3.78016 7.6121 4.02192 6.84287 4.32961C6.49122 4.48346 6.22748 4.57137 6.07364 4.61533C5.91979 4.65928 5.8099 4.68126 5.72199 4.68126C5.41429 4.68126 5.26045 4.46148 5.26045 3.99994V2.92302C5.26045 2.57137 5.3044 2.30763 5.41429 2.15379C5.52418 1.99994 5.72199 1.84609 6.02968 1.69225C6.79891 1.29664 7.72199 0.966974 8.79891 0.703238C9.87583 0.417523 11.0187 0.285655 12.2275 0.285655C14.8429 0.285655 16.755 0.879062 17.9857 2.06588C19.1945 3.25269 19.8099 5.05489 19.8099 7.47247V14.5933H19.8539ZM10.9308 17.934C11.6561 17.934 12.4033 17.8021 13.1945 17.5384C13.9857 17.2747 14.689 16.7912 15.2824 16.1318C15.6341 15.7142 15.8978 15.2527 16.0297 14.7252C16.1615 14.1977 16.2495 13.5604 16.2495 12.8131V11.8901C15.6121 11.7362 14.9308 11.6043 14.2275 11.5164C13.5242 11.4285 12.8429 11.3846 12.1615 11.3846C10.689 11.3846 9.6121 11.6703 8.88682 12.2637C8.16155 12.8571 7.8099 13.6923 7.8099 14.7912C7.8099 15.8241 8.07364 16.5933 8.62309 17.1208C9.15056 17.6703 9.91979 17.934 10.9308 17.934ZM28.5791 20.3076C28.1835 20.3076 27.9198 20.2417 27.744 20.0879C27.5681 19.956 27.4143 19.6483 27.2824 19.2307L22.1176 2.2417C21.9857 1.80214 21.9198 1.51642 21.9198 1.36258C21.9198 1.01093 22.0956 0.813128 22.4473 0.813128H24.6011C25.0187 0.813128 25.3044 0.879062 25.4583 1.03291C25.6341 1.16478 25.7659 1.47247 25.8978 1.89005L29.5901 16.4395L33.0187 1.89005C33.1286 1.45049 33.2604 1.16478 33.4363 1.03291C33.6121 0.90104 33.9198 0.813128 34.3154 0.813128H36.0736C36.4912 0.813128 36.7769 0.879062 36.9528 1.03291C37.1286 1.16478 37.2824 1.47247 37.3703 1.89005L40.8429 16.6153L44.6451 1.89005C44.7769 1.45049 44.9308 1.16478 45.0846 1.03291C45.2604 0.90104 45.5462 0.813128 45.9418 0.813128H47.9857C48.3374 0.813128 48.5352 0.988952 48.5352 1.36258C48.5352 1.47247 48.5132 1.58236 48.4912 1.71423C48.4692 1.84609 48.4253 2.02192 48.3374 2.26368L43.0407 19.2527C42.9088 19.6922 42.755 19.978 42.5791 20.1098C42.4033 20.2417 42.1176 20.3296 41.744 20.3296H39.8539C39.4363 20.3296 39.1506 20.2637 38.9747 20.1098C38.7989 19.956 38.6451 19.6703 38.5572 19.2307L35.1506 5.05489L31.7659 19.2087C31.6561 19.6483 31.5242 19.934 31.3484 20.0879C31.1725 20.2417 30.8648 20.3076 30.4692 20.3076H28.5791ZM56.8209 20.901C55.678 20.901 54.5352 20.7692 53.4363 20.5054C52.3374 20.2417 51.4802 19.956 50.9088 19.6263C50.5572 19.4285 50.3154 19.2087 50.2275 19.0109C50.1396 18.8131 50.0956 18.5933 50.0956 18.3955V17.2747C50.0956 16.8131 50.2714 16.5933 50.6011 16.5933C50.733 16.5933 50.8648 16.6153 50.9967 16.6593C51.1286 16.7032 51.3264 16.7912 51.5462 16.8791C52.2934 17.2087 53.1066 17.4725 53.9637 17.6483C54.8429 17.8241 55.7 17.912 56.5791 17.912C57.9637 17.912 59.0407 17.6703 59.7879 17.1868C60.5352 16.7032 60.9308 15.9999 60.9308 15.0988C60.9308 14.4835 60.733 13.978 60.3374 13.5604C59.9418 13.1428 59.1945 12.7692 58.1176 12.4175L54.9308 11.4285C53.3264 10.923 52.1396 10.1758 51.4143 9.18676C50.689 8.21972 50.3154 7.1428 50.3154 5.99994C50.3154 5.07686 50.5132 4.26368 50.9088 3.56038C51.3044 2.85708 51.8319 2.2417 52.4912 1.75818C53.1506 1.25269 53.8978 0.879062 54.7769 0.615326C55.6561 0.351589 56.5791 0.241699 57.5462 0.241699C58.0297 0.241699 58.5352 0.263677 59.0187 0.329611C59.5242 0.395545 59.9857 0.483457 60.4473 0.57137C60.8868 0.68126 61.3044 0.79115 61.7 0.923018C62.0956 1.05489 62.4033 1.18675 62.6231 1.31862C62.9308 1.49445 63.1506 1.67027 63.2824 1.86807C63.4143 2.0439 63.4802 2.28566 63.4802 2.59335V3.62631C63.4802 4.08785 63.3044 4.32961 62.9747 4.32961C62.7989 4.32961 62.5132 4.2417 62.1396 4.06588C60.8868 3.49445 59.4802 3.20873 57.9198 3.20873C56.667 3.20873 55.678 3.40653 54.9967 3.82412C54.3154 4.2417 53.9637 4.87906 53.9637 5.78016C53.9637 6.39555 54.1835 6.92302 54.6231 7.3406C55.0626 7.75818 55.8758 8.17577 57.0407 8.54939L60.1615 9.5384C61.744 10.0439 62.8868 10.7472 63.5681 11.6483C64.2495 12.5494 64.5791 13.5824 64.5791 14.7252C64.5791 15.6703 64.3813 16.5274 64.0077 17.2747C63.6121 18.0219 63.0846 18.6813 62.4033 19.2087C61.722 19.7582 60.9088 20.1538 59.9637 20.4395C58.9747 20.7472 57.9418 20.901 56.8209 20.901Z" fill="white"/>
<path fill-rule="evenodd" clip-rule="evenodd" d="M60.9748 31.5823C53.744 36.923 43.2385 39.7582 34.2055 39.7582C21.5462 39.7582 10.1396 35.0768 1.5242 27.2966C0.842878 26.6812 1.45826 25.8461 2.27145 26.3296C11.5901 31.7362 23.0846 35.0109 34.9747 35.0109C42.9967 35.0109 51.8099 33.3406 59.9198 29.912C61.1286 29.3626 62.1616 30.7032 60.9748 31.5823Z" fill="white"/>
<path fill-rule="evenodd" clip-rule="evenodd" d="M63.9857 28.1537C63.0627 26.9669 57.8758 27.5823 55.5242 27.868C54.8209 27.9559 54.711 27.3406 55.3484 26.879C59.4802 23.9779 66.2715 24.8131 67.0627 25.7801C67.8539 26.7691 66.8429 33.5603 62.9748 36.8131C62.3813 37.3186 61.8099 37.0548 62.0737 36.3955C62.9528 34.2197 64.9088 29.3186 63.9857 28.1537Z" fill="white"/>
</g>
<defs>
<clipPath id="clip0_3438_21004">
<rect width="66.8132" height="40" fill="white" transform="translate(0.865234)"/>
</clipPath>
</defs>
</svg>
