<svg width="101" height="32" viewBox="0 0 101 32" fill="none" xmlns="http://www.w3.org/2000/svg">
<g clip-path="url(#clip0_3438_21010)">
<mask id="mask0_3438_21010" style="mask-type:luminance" maskUnits="userSpaceOnUse" x="0" y="0" width="101" height="32">
<path d="M100.234 0.592651H0.678711V31.1683H100.234V0.592651Z" fill="white"/>
</mask>
<g mask="url(#mask0_3438_21010)">
<path d="M34.8562 15.6891C34.8274 14.9778 34.9397 14.2679 35.1865 13.6003C35.4335 12.9327 35.8102 12.3205 36.2949 11.7993C36.7795 11.278 37.3628 10.8578 38.0106 10.563C38.6585 10.2683 39.3584 10.1047 40.0699 10.0818H40.2909C43.0406 10.0818 44.6635 11.6993 45.1434 13.5917L43.4342 14.1632C43.2806 13.4581 42.8787 12.8315 42.3017 12.398C41.7246 11.9645 41.011 11.7528 40.2909 11.8017C38.5117 11.8017 36.7272 13.1011 36.7272 15.7214C36.7272 18.3417 38.4686 19.5926 40.3125 19.5926C41.0361 19.6124 41.7456 19.3887 42.3272 18.9577C42.9087 18.5266 43.3289 17.9129 43.5205 17.2149L45.1973 17.754C44.9079 18.819 44.2641 19.7534 43.3721 20.4032C42.4802 21.0531 41.3934 21.3795 40.2909 21.3286C38.8747 21.3546 37.5062 20.8172 36.486 19.8345C35.4659 18.8517 34.8778 17.5042 34.8509 16.088C34.8454 15.9586 34.8509 15.8238 34.8562 15.6891Z" fill="white"/>
<path d="M48.5233 21.0807H46.7549V10.0496H48.5233V14.3629C48.78 14.0583 49.1029 13.8165 49.4673 13.6558C49.8317 13.4951 50.2281 13.4197 50.6259 13.4355C52.4537 13.4355 53.3218 14.7457 53.3218 16.3792V21.0807H51.6181V16.692C51.6691 16.3178 51.5711 15.9387 51.3452 15.6361C51.1193 15.3335 50.7836 15.1318 50.4104 15.0746C50.3045 15.0637 50.198 15.0637 50.0922 15.0746C49.6832 15.0746 49.2911 15.2369 49.0019 15.5261C48.7127 15.8153 48.5502 16.2075 48.5502 16.6165C48.5476 16.6614 48.5476 16.7064 48.5502 16.7512L48.5233 21.0807Z" fill="white"/>
<path d="M57.2901 16.8321L59.1879 16.5356C59.6193 16.4816 59.727 16.2606 59.727 15.9964C59.727 15.371 59.3065 14.8695 58.3253 14.8695C57.9547 14.8396 57.5872 14.9569 57.3026 15.1962C57.0179 15.4353 56.8391 15.7772 56.8048 16.1473V16.2282L55.1874 15.867C55.3222 14.5838 56.4867 13.4408 58.3091 13.4408C60.5952 13.4408 61.4632 14.7348 61.4632 16.2444V19.9268C61.4613 20.3259 61.492 20.7244 61.5548 21.1184H59.9374C59.8791 20.8057 59.8555 20.4874 59.8672 20.1694C59.6218 20.5473 59.2815 20.8541 58.8803 21.0595C58.4793 21.2648 58.0313 21.3613 57.5813 21.3395C56.9665 21.3902 56.3567 21.195 55.8857 20.7968C55.4147 20.3985 55.1209 19.8298 55.0688 19.2151C55.0688 19.1774 55.0688 19.1396 55.0688 19.1073C55.0418 17.7433 56.0176 17.01 57.2901 16.8321ZM59.7378 18.0237V17.684L57.8023 17.9751C57.5395 17.9834 57.2902 18.093 57.1062 18.2809C56.9224 18.4687 56.8182 18.7204 56.8156 18.9833C56.8178 19.1136 56.8457 19.2422 56.898 19.3615C56.9503 19.4807 57.0258 19.5885 57.1201 19.6783C57.2144 19.7681 57.3257 19.8383 57.4476 19.8846C57.5693 19.9311 57.6991 19.9527 57.8292 19.9484H57.9101C58.1308 19.9715 58.3539 19.9507 58.5665 19.8873C58.7791 19.8237 58.9771 19.7188 59.149 19.5785C59.3209 19.4382 59.4633 19.2653 59.5681 19.0696C59.6729 18.874 59.7378 18.6596 59.7594 18.4387C59.7671 18.2998 59.7581 18.1604 59.7325 18.0237H59.7378Z" fill="white"/>
<path d="M64.4716 9.8986C64.6236 9.89647 64.7744 9.92438 64.9156 9.98072C65.0568 10.0371 65.1855 10.1208 65.2941 10.227C65.4028 10.3332 65.4895 10.4598 65.5492 10.5996C65.6088 10.7394 65.6402 10.8896 65.6416 11.0416C65.6415 11.2691 65.5743 11.4916 65.4482 11.6809C65.3221 11.8703 65.1429 12.0182 64.933 12.1059C64.7231 12.1937 64.4919 12.2176 64.2686 12.1743C64.0452 12.1311 63.8396 12.0227 63.6777 11.8631C63.5157 11.7033 63.4045 11.4992 63.3582 11.2765C63.3118 11.0537 63.3324 10.8223 63.4173 10.6112C63.5022 10.4001 63.6475 10.2188 63.8351 10.0901C64.0227 9.96138 64.2442 9.89101 64.4716 9.88782V9.8986ZM63.6089 21.1131V13.662H65.3774V21.0807L63.6089 21.1131Z" fill="white"/>
<path d="M69.4057 21.0807H67.6426V13.6619H69.3625V14.6485C69.5868 14.2697 69.9088 13.9581 70.2949 13.7466C70.6809 13.535 71.1168 13.4313 71.5569 13.4462C73.3684 13.4462 74.2526 14.7563 74.2526 16.39V21.0807H72.4896V16.692C72.4896 15.7808 72.0745 15.0421 70.9638 15.0421C70.7584 15.0435 70.5554 15.0853 70.3663 15.1652C70.1771 15.2451 70.0055 15.3615 69.8614 15.5077C69.7171 15.6539 69.6031 15.827 69.5258 16.0173C69.4486 16.2075 69.4096 16.4111 69.411 16.6165C69.411 16.6757 69.411 16.7351 69.411 16.7944L69.4057 21.0807Z" fill="white"/>
<path d="M76.3877 21.0807V10.0496H78.1561V21.0807H76.3877Z" fill="white"/>
<path d="M81.3098 9.89857C81.5374 9.89751 81.7601 9.96409 81.9499 10.0899C82.1395 10.2156 82.2875 10.3949 82.3751 10.605C82.4627 10.8151 82.4859 11.0464 82.4418 11.2697C82.3976 11.493 82.2881 11.6981 82.1273 11.859C81.9663 12.0199 81.7612 12.1294 81.5379 12.1735C81.3146 12.2177 81.0833 12.1945 80.8732 12.1069C80.6631 12.0193 80.4839 11.8713 80.358 11.6816C80.2323 11.4919 80.1657 11.2692 80.1668 11.0416C80.1696 10.7393 80.291 10.4502 80.5047 10.2365C80.7185 10.0227 81.0075 9.90138 81.3098 9.89857ZM80.4417 21.113V13.6619H82.194V21.0807L80.4417 21.113Z" fill="white"/>
<path d="M86.2479 21.0807H84.4795V13.662H86.1994V14.6486C86.424 14.2701 86.7462 13.9588 87.1322 13.7474C87.5182 13.5359 87.9539 13.4319 88.3938 13.4463C90.2054 13.4463 91.0895 14.7565 91.0895 16.3901V21.0807H89.3211V16.692C89.3722 16.3178 89.2742 15.9387 89.0483 15.6361C88.8224 15.3335 88.4866 15.1318 88.1134 15.0746C88.0058 15.0637 87.8975 15.0637 87.79 15.0746C87.378 15.0788 86.9845 15.2454 86.6947 15.5382C86.4049 15.831 86.2425 16.2262 86.2425 16.6381C86.237 16.7009 86.237 16.7641 86.2425 16.8268L86.2479 21.0807Z" fill="white"/>
<path d="M97.1235 16.7944L100.235 21.1076H98.0778L95.9213 18.0507L95.0101 19.0103V21.0807H93.2578V10.0496H95.0101V16.6596L97.8568 13.6619H100.202L97.1235 16.7944Z" fill="white"/>
<path d="M13.9204 7.06255L21.5657 11.4513V20.2719L13.942 24.6876L6.30213 20.3096V11.4944L13.9204 7.06255ZM13.9204 0.592651L11.1168 2.21012L3.48234 6.642L0.678711 8.25948V23.5554L3.48234 25.1729L11.1276 29.5617L13.9312 31.1791L16.7349 29.5617L24.3531 25.1406L27.1568 23.523V8.20557L24.3531 6.58809L16.7133 2.21012L13.9096 0.592651H13.9204Z" fill="white"/>
</g>
</g>
<defs>
<clipPath id="clip0_3438_21010">
<rect width="99.5556" height="32" fill="white" transform="translate(0.678711)"/>
</clipPath>
</defs>
</svg>
