<svg width="160" height="71" viewBox="0 0 160 71" fill="none" xmlns="http://www.w3.org/2000/svg">
<path d="M135.918 44.37C135.654 44.7073 135.397 44.964 135.148 45.14C134.898 45.3013 134.598 45.382 134.246 45.382C133.908 45.382 133.571 45.272 133.234 45.052C132.896 44.832 132.515 44.59 132.09 44.326C131.679 44.062 131.202 43.82 130.66 43.6C130.117 43.38 129.479 43.27 128.746 43.27C128.071 43.27 127.477 43.3653 126.964 43.556C126.465 43.7467 126.047 44.0107 125.71 44.348C125.372 44.6853 125.116 45.0813 124.94 45.536C124.778 45.9907 124.698 46.4893 124.698 47.032C124.698 47.6187 124.859 48.11 125.182 48.506C125.519 48.902 125.959 49.254 126.502 49.562C127.059 49.8553 127.682 50.1267 128.372 50.376C129.061 50.6253 129.765 50.8967 130.484 51.19C131.217 51.4833 131.928 51.8207 132.618 52.202C133.322 52.5833 133.945 53.06 134.488 53.632C135.045 54.204 135.485 54.8933 135.808 55.7C136.145 56.5067 136.314 57.4747 136.314 58.604C136.314 60.2173 136.035 61.7353 135.478 63.158C134.92 64.5807 134.121 65.8273 133.08 66.898C132.038 67.954 130.77 68.7973 129.274 69.428C127.792 70.044 126.12 70.352 124.258 70.352C123.334 70.352 122.402 70.2493 121.464 70.044C120.54 69.8387 119.645 69.5527 118.78 69.186C117.929 68.8047 117.137 68.3573 116.404 67.844C115.67 67.3307 115.047 66.7587 114.534 66.128L117.086 62.784C117.291 62.5347 117.54 62.3293 117.834 62.168C118.142 62.0067 118.45 61.926 118.758 61.926C119.168 61.926 119.564 62.0727 119.946 62.366C120.342 62.6447 120.774 62.96 121.244 63.312C121.713 63.6493 122.256 63.9647 122.872 64.258C123.502 64.5367 124.272 64.676 125.182 64.676C126.516 64.676 127.543 64.3167 128.262 63.598C128.995 62.8647 129.362 61.7867 129.362 60.364C129.362 59.704 129.193 59.1613 128.856 58.736C128.533 58.3107 128.1 57.9513 127.558 57.658C127.03 57.3647 126.421 57.108 125.732 56.888C125.042 56.6533 124.338 56.404 123.62 56.14C122.901 55.876 122.197 55.568 121.508 55.216C120.818 54.8493 120.202 54.38 119.66 53.808C119.132 53.2213 118.699 52.51 118.362 51.674C118.039 50.8233 117.878 49.782 117.878 48.55C117.878 47.1273 118.142 45.7633 118.67 44.458C119.212 43.138 119.982 41.972 120.98 40.96C121.977 39.948 123.187 39.1413 124.61 38.54C126.032 37.9387 127.631 37.638 129.406 37.638C130.315 37.638 131.195 37.7333 132.046 37.924C132.911 38.1147 133.718 38.3787 134.466 38.716C135.214 39.0533 135.896 39.4567 136.512 39.926C137.128 40.3807 137.648 40.8793 138.074 41.422L135.918 44.37Z" fill="white"/>
<path d="M104.131 43.468L103.185 51.212H112.249L111.545 56.536H102.525L101.535 64.478H113.481L112.777 70H93.637L97.597 37.946H116.693L115.989 43.468H104.131Z" fill="white"/>
<path d="M93.7646 37.946L89.8046 70H83.5126L85.7566 51.344C85.8152 50.948 85.8886 50.5153 85.9766 50.046C86.0646 49.562 86.1672 49.0633 86.2846 48.55L76.6486 65.094C76.3406 65.578 75.9519 65.9447 75.4826 66.194C75.0279 66.4433 74.5219 66.568 73.9646 66.568H72.9966C72.4392 66.568 71.9552 66.4433 71.5446 66.194C71.1339 65.9447 70.8406 65.578 70.6646 65.094L65.0326 48.484C65.0179 48.9827 64.9959 49.4667 64.9666 49.936C64.9372 50.4053 64.9006 50.838 64.8566 51.234L62.6566 70H56.3206L60.2806 37.946H65.7366C66.0446 37.946 66.3012 37.9607 66.5066 37.99C66.7266 38.0193 66.9172 38.0706 67.0786 38.144C67.2399 38.2173 67.3866 38.3273 67.5186 38.474C67.6652 38.6206 67.8192 38.8113 67.9806 39.046L73.6126 55.92C73.7739 56.3746 73.9206 56.844 74.0526 57.328C74.1846 57.7973 74.3092 58.274 74.4266 58.758C74.6466 58.274 74.8812 57.7973 75.1306 57.328C75.3799 56.844 75.6512 56.3746 75.9446 55.92L85.7566 39.046C85.9766 38.8113 86.1746 38.6206 86.3506 38.474C86.5266 38.3273 86.7026 38.2173 86.8786 38.144C87.0546 38.0706 87.2526 38.0193 87.4726 37.99C87.6926 37.9607 87.9566 37.946 88.2646 37.946H93.7646Z" fill="white"/>
<path d="M50.4741 70H43.2581L47.1741 37.946H54.3901L50.4741 70Z" fill="white"/>
<path d="M42.8012 43.622H34.6612L31.4052 70H24.2772L27.4892 43.622H19.3052L20.0092 37.946H43.5492L42.8012 43.622Z" fill="white"/>
<path d="M159.231 14.124C159.231 15.884 159.033 17.5633 158.637 19.162C158.256 20.746 157.706 22.22 156.987 23.584C156.268 24.948 155.396 26.18 154.369 27.28C153.342 28.38 152.191 29.3187 150.915 30.096C149.654 30.8733 148.282 31.4747 146.801 31.9C145.32 32.3107 143.765 32.516 142.137 32.516C140.113 32.516 138.294 32.1567 136.681 31.438C135.068 30.7193 133.689 29.7293 132.545 28.468C131.416 27.2067 130.55 25.718 129.949 24.002C129.348 22.286 129.047 20.4233 129.047 18.414C129.047 16.654 129.238 14.982 129.619 13.398C130.015 11.7993 130.572 10.318 131.291 8.954C132.024 7.59 132.897 6.358 133.909 5.258C134.936 4.158 136.08 3.21933 137.341 2.442C138.617 1.65 139.996 1.04867 141.477 0.637999C142.958 0.212666 144.52 0 146.163 0C148.187 0 150.006 0.359333 151.619 1.078C153.232 1.79667 154.604 2.78666 155.733 4.048C156.862 5.30933 157.728 6.80533 158.329 8.536C158.93 10.252 159.231 12.1147 159.231 14.124ZM153.379 14.256C153.379 12.8187 153.196 11.5133 152.829 10.34C152.477 9.16667 151.956 8.162 151.267 7.326C150.592 6.49 149.764 5.84467 148.781 5.39C147.798 4.93533 146.691 4.708 145.459 4.708C143.875 4.708 142.43 5.03067 141.125 5.676C139.834 6.32133 138.727 7.238 137.803 8.426C136.879 9.614 136.16 11.044 135.647 12.716C135.148 14.388 134.899 16.2433 134.899 18.282C134.899 19.7193 135.075 21.0247 135.427 22.198C135.779 23.3713 136.292 24.376 136.967 25.212C137.642 26.0333 138.463 26.6713 139.431 27.126C140.414 27.566 141.528 27.786 142.775 27.786C144.374 27.786 145.826 27.4633 147.131 26.818C148.436 26.1727 149.551 25.2633 150.475 24.09C151.399 22.9167 152.11 21.5013 152.609 19.844C153.122 18.172 153.379 16.3093 153.379 14.256Z" fill="white"/>
<path d="M131.065 5.03799H122.375L119.031 32.164H113.355L116.655 5.03799H107.921L108.493 0.35199H131.659L131.065 5.03799Z" fill="white"/>
<path d="M92.3108 16.456C93.4401 16.456 94.4155 16.2873 95.2368 15.95C96.0581 15.6127 96.7328 15.1433 97.2608 14.542C97.8035 13.926 98.1995 13.2 98.4488 12.364C98.7128 11.528 98.8448 10.604 98.8448 9.59199C98.8448 8.87332 98.7421 8.21332 98.5368 7.61199C98.3315 7.01066 98.0161 6.50466 97.5908 6.09399C97.1655 5.66866 96.6301 5.33866 95.9848 5.10399C95.3541 4.86932 94.5988 4.75199 93.7188 4.75199H89.7588L88.3288 16.456H92.3108ZM94.2688 0.35199C96.0728 0.35199 97.6201 0.57199 98.9108 1.01199C100.216 1.43732 101.287 2.03866 102.123 2.81599C102.959 3.59332 103.575 4.51732 103.971 5.58799C104.381 6.64399 104.587 7.80999 104.587 9.08599C104.587 10.7873 104.315 12.364 103.773 13.816C103.245 15.2533 102.445 16.5 101.375 17.556C100.304 18.5973 98.9621 19.4187 97.3488 20.02C95.7501 20.6067 93.8801 20.9 91.7388 20.9H87.7788L86.3928 32.164H80.7168L84.5888 0.35199H94.2688Z" fill="white"/>
<path d="M68.3782 19.756L66.8382 32.164H61.1402L62.6802 19.8L54.3862 0.35199H59.4682C59.9669 0.35199 60.3556 0.469324 60.6342 0.703991C60.9129 0.938658 61.1182 1.25399 61.2502 1.64999L65.3422 12.65C65.5329 13.1927 65.6942 13.7207 65.8262 14.234C65.9582 14.7327 66.0756 15.2167 66.1782 15.686C66.4129 15.202 66.6622 14.718 66.9262 14.234C67.2049 13.7353 67.5056 13.2073 67.8282 12.65L74.6702 1.64999C74.8756 1.31266 75.1469 1.01199 75.4842 0.74799C75.8216 0.48399 76.2249 0.35199 76.6942 0.35199H81.4242L68.3782 19.756Z" fill="white"/>
<path d="M37.1973 15.554C38.3413 15.554 39.3239 15.3927 40.1453 15.07C40.9813 14.7327 41.6706 14.278 42.2133 13.706C42.7559 13.1193 43.1593 12.4373 43.4233 11.66C43.6873 10.8827 43.8193 10.0467 43.8193 9.15199C43.8193 7.77332 43.3866 6.69532 42.5213 5.91799C41.6706 5.14066 40.3579 4.75199 38.5833 4.75199H35.2393L33.9193 15.554H37.1973ZM39.1113 0.35199C40.9446 0.35199 42.5139 0.549991 43.8193 0.945992C45.1393 1.32733 46.2173 1.86999 47.0533 2.57399C47.8893 3.26332 48.5053 4.09199 48.9013 5.05999C49.2973 6.02799 49.4953 7.09133 49.4953 8.24999C49.4953 9.46733 49.3193 10.6187 48.9673 11.704C48.6299 12.7893 48.1386 13.772 47.4933 14.652C46.8479 15.532 46.0559 16.302 45.1173 16.962C44.1786 17.622 43.1153 18.1353 41.9273 18.502C42.2646 18.7073 42.5653 18.9567 42.8293 19.25C43.1079 19.5433 43.3499 19.8953 43.5553 20.306L49.2313 32.164H44.1053C43.1226 32.164 42.4699 31.7827 42.1473 31.02L37.4833 20.702C37.3073 20.3207 37.0873 20.0493 36.8233 19.888C36.5739 19.712 36.1779 19.624 35.6353 19.624H33.4133L31.8733 32.164H26.1973L30.0693 0.35199H39.1113Z" fill="white"/>
<path d="M13.288 27.676C14.1827 27.676 14.96 27.61 15.62 27.478C16.28 27.3313 16.8593 27.148 17.358 26.928C17.8567 26.708 18.2747 26.4807 18.612 26.246C18.964 25.9967 19.272 25.762 19.536 25.542C19.8 25.322 20.0347 25.146 20.24 25.014C20.4453 24.8673 20.6507 24.794 20.856 24.794C21.0467 24.794 21.2007 24.8307 21.318 24.904C21.4353 24.9773 21.5307 25.0507 21.604 25.124L23.606 27.61C22.2273 29.194 20.6067 30.4113 18.744 31.262C16.8813 32.098 14.74 32.516 12.32 32.516C10.3547 32.516 8.60933 32.1713 7.084 31.482C5.55867 30.778 4.268 29.81 3.212 28.578C2.17067 27.346 1.37133 25.8867 0.814 24.2C0.271333 22.5133 0 20.6727 0 18.678C0 16.8447 0.198 15.114 0.594 13.486C0.99 11.8433 1.55467 10.3327 2.288 8.954C3.02133 7.56067 3.894 6.314 4.906 5.214C5.93267 4.114 7.06933 3.17533 8.316 2.398C9.57733 1.62067 10.9267 1.02667 12.364 0.616C13.816 0.205334 15.3267 0 16.896 0C18.0547 0 19.1107 0.11 20.064 0.33C21.0173 0.535332 21.8753 0.828665 22.638 1.21C23.4153 1.59133 24.112 2.05333 24.728 2.596C25.3587 3.124 25.9233 3.718 26.422 4.378L24.442 6.754C24.2953 6.93 24.1193 7.084 23.914 7.216C23.7233 7.348 23.4813 7.414 23.188 7.414C22.8653 7.414 22.5573 7.282 22.264 7.018C21.9707 6.754 21.5967 6.468 21.142 6.16C20.702 5.83733 20.1227 5.544 19.404 5.28C18.7 5.016 17.7687 4.884 16.61 4.884C15.0847 4.884 13.662 5.19933 12.342 5.83C11.0367 6.446 9.9 7.33333 8.932 8.492C7.964 9.65067 7.20133 11.0513 6.644 12.694C6.10133 14.322 5.83 16.1553 5.83 18.194C5.83 19.6753 6.01333 21.0027 6.38 22.176C6.76133 23.3493 7.282 24.3467 7.942 25.168C8.61667 25.9747 9.40867 26.598 10.318 27.038C11.2273 27.4633 12.2173 27.676 13.288 27.676Z" fill="white"/>
</svg>
