<svg width="140" height="27" viewBox="0 0 140 27" fill="none" xmlns="http://www.w3.org/2000/svg">
<path d="M25.8371 17.5503C25.2119 19.4692 24.1339 21.2587 22.6031 22.7895C17.601 27.7915 9.58049 27.964 4.3844 23.2638L8.24374 19.4045C12.7715 23.2854 20.3176 22.4877 25.8371 17.5503Z" fill="white"/>
<path d="M9.12772 0.840839C4.19037 6.33879 3.39262 13.8634 7.23039 18.3696L3.34951 22.2289C-1.28602 17.0329 -1.11353 9.05542 3.88852 4.07499C5.4193 2.54419 7.20884 1.4661 9.12772 0.840839Z" fill="white"/>
<path d="M26.678 7.33061C26.6622 7.3544 26.6464 7.38103 26.6305 7.40837C26.6481 7.38377 26.6641 7.35825 26.678 7.33061Z" fill="white"/>
<path d="M26.6305 7.40837L26.6133 7.43834C26.5918 7.47611 26.5702 7.51388 26.5486 7.54618C26.5486 7.56775 26.5271 7.56775 26.5271 7.58932L26.484 12.9579C26.4983 13.1734 26.4935 13.389 26.4887 13.6046L26.4887 13.6079C26.4863 13.7147 26.484 13.8214 26.484 13.9281C26.484 14.2084 26.4624 14.4887 26.4193 14.7905C26.139 15.1139 25.8156 15.4589 25.4922 15.7823C20.4901 20.7843 13.4183 21.7546 9.32177 18.3264L13.677 13.9712C16.0918 15.5021 20.5764 14.0575 24.177 10.4784L24.5004 10.155C24.8453 9.78852 25.1903 9.4004 25.4922 9.01228L25.6431 8.81828L25.6646 8.77514L25.7293 8.68887C25.7293 8.67814 25.7347 8.67267 25.7401 8.6673C25.7455 8.66193 25.7509 8.65647 25.7509 8.64573C25.8299 8.54033 25.909 8.43299 25.9868 8.32485C26.1637 8.0789 26.3342 7.82889 26.484 7.58932C26.484 7.58932 26.484 7.56775 26.5055 7.56775C26.5256 7.54102 26.5457 7.51631 26.5651 7.49242C26.5882 7.46396 26.6103 7.43672 26.6305 7.40837Z" fill="white"/>
<path d="M19.3043 0C19.2605 0.0328073 19.2167 0.0601467 19.1729 0.0874861C19.215 0.0559952 19.2576 0.0280482 19.3043 0Z" fill="white"/>
<path d="M18.9673 0.237245C18.5909 0.469833 18.2146 0.742214 17.8382 1.03495L17.6441 1.18582C17.348 1.41618 17.0644 1.67165 16.7743 1.933C16.6842 2.01421 16.5934 2.09592 16.5014 2.17763L16.178 2.50105C12.599 6.08008 11.1544 10.5647 12.6636 12.9794L8.30842 17.3347C4.92342 13.2381 5.89364 6.20939 10.8741 1.20739C11.1975 0.883974 11.5425 0.582127 11.8659 0.301847C12.448 0.237144 13.0302 0.215576 13.6123 0.237144C13.7417 0.237144 13.871 0.237144 14.0004 0.258712L18.9673 0.237245Z" fill="white"/>
<path d="M18.9673 0.237245L18.9809 0.237144H19.0025C19.0636 0.176086 19.1178 0.128799 19.1729 0.0874861C19.1305 0.114015 19.088 0.140646 19.0456 0.172441L19.0025 0.215576L18.9673 0.237245Z" fill="white"/>
<path d="M26.5702 0.150873V1.09955L26.5486 3.90245V3.92402C26.5486 3.94558 26.5486 3.96715 26.5271 3.98872C26.3546 4.57085 26.1174 5.17454 25.8156 5.75667C25.5784 6.25252 25.2765 6.74848 24.9316 7.24434L24.4141 7.95587C24.1123 8.34389 23.7889 8.73201 23.4439 9.09856L23.1205 9.42197C21.3957 11.1468 19.4121 12.3542 17.6226 12.85C16.0487 13.2813 14.8413 13.1088 14.1944 12.462C13.5476 11.8152 13.3751 10.6078 13.8063 9.03385C14.3023 7.24434 15.5096 5.26081 17.2345 3.5359L17.5579 3.21248C17.9244 2.8675 18.3125 2.52262 18.7006 2.24234L19.4121 1.72481C19.908 1.37983 20.4039 1.07798 20.8998 0.840839C21.4388 0.582127 21.9562 0.344983 22.4737 0.194009L25.7293 0.172441L26.5702 0.150873Z" fill="white"/>
<path d="M43.7326 24.4066C45.4144 24.4066 46.902 24.1048 48.1741 23.4795C49.4462 22.8542 50.438 21.9703 51.1494 20.8276C51.8609 19.6849 52.2059 18.3697 52.2059 16.8604C52.2059 16.7741 52.1628 16.7095 52.0981 16.6448C52.0334 16.5801 51.9256 16.5586 51.8394 16.5586L47.3332 16.343C47.0745 16.343 46.9452 16.4507 46.9452 16.688C46.9452 17.6581 46.6433 18.4344 46.0611 19.0381C45.479 19.6202 44.6813 19.922 43.7111 19.922C42.7408 19.922 41.9646 19.6202 41.361 19.0381C40.7788 18.4559 40.477 17.6581 40.477 16.688V9.48667C40.477 8.51653 40.7788 7.74029 41.361 7.1366C41.9431 6.5329 42.7408 6.23106 43.7111 6.23106C44.6813 6.23106 45.4574 6.5329 46.0611 7.11503C46.6433 7.69716 46.9452 8.49496 46.9452 9.48667C46.9452 9.72392 47.0745 9.83166 47.3332 9.83166L51.8394 9.55138C51.9472 9.55138 52.0334 9.52981 52.0981 9.46511C52.1628 9.4005 52.2059 9.31423 52.2059 9.20639C52.2059 7.71873 51.8609 6.42517 51.1494 5.30395C50.438 4.18283 49.4462 3.29885 48.1741 2.67359C46.902 2.04833 45.4144 1.74648 43.7326 1.74648C42.0509 1.74648 40.5632 2.0699 39.2912 2.7383C38.0191 3.38513 37.0273 4.31213 36.3158 5.49806C35.6043 6.68388 35.2593 8.06371 35.2593 9.63765V16.4723C35.2593 18.0462 35.6043 19.4476 36.3158 20.655C37.0273 21.8624 38.0191 22.7895 39.2912 23.4364C40.5632 24.0832 42.0293 24.4066 43.7326 24.4066Z" fill="white"/>
<path d="M62.404 24.4066C64.0642 24.4066 65.5303 24.1479 66.8024 23.6089C68.0529 23.0698 69.0447 22.3152 69.7346 21.3234C70.4245 20.3316 70.7695 19.1458 70.7695 17.7875C70.7695 16.3861 70.403 15.2649 69.6699 14.4241C68.9369 13.5617 68.1607 12.958 67.3414 12.5698C66.5221 12.1817 65.3578 11.7506 63.8917 11.2332C62.5981 10.8019 61.6494 10.4785 61.0241 10.1982C60.3989 9.9395 59.9462 9.65922 59.6443 9.3358C59.3425 9.03395 59.1915 8.64583 59.1915 8.17155C59.1915 7.56785 59.4287 7.09346 59.8815 6.74848C60.3558 6.4036 60.9811 6.25262 61.8219 6.25262C62.9215 6.25262 63.8055 6.5329 64.4523 7.11503C65.0991 7.69716 65.4441 8.34399 65.4441 9.07709V9.29267C65.4441 9.4005 65.4872 9.48667 65.5519 9.55138C65.583 9.58256 65.6243 9.60869 65.6683 9.62752C65.7155 9.64767 65.7659 9.65922 65.8106 9.65922H70.209C70.2707 9.65922 70.3253 9.64504 70.3729 9.62084C70.4084 9.60271 70.44 9.57902 70.4677 9.55138C70.5324 9.48667 70.5755 9.37894 70.5755 9.29267V8.83994C70.5755 7.43845 70.209 6.20949 69.4759 5.13151C68.7428 4.05342 67.7079 3.21258 66.4143 2.63046C65.1207 2.04833 63.6545 1.74648 62.016 1.74648C60.4636 1.74648 59.0837 2.00519 57.8547 2.54419C56.6258 3.06171 55.6772 3.81628 54.9872 4.80809C54.2973 5.7999 53.9523 6.94259 53.9523 8.23625C53.9523 9.59451 54.3189 10.7156 55.0303 11.6427C55.7418 12.5698 56.6043 13.2814 57.6392 13.7988C58.6525 14.3162 59.8383 14.7906 61.2182 15.2433C61.326 15.2865 61.4338 15.3296 61.5632 15.3512C61.6922 15.3727 61.8213 15.4372 61.9503 15.5017L61.9513 15.5021L62.1743 15.5798C62.9898 15.864 63.6054 16.0786 64.0211 16.2567C64.4739 16.4292 64.8188 16.6664 65.0776 16.9251C65.3363 17.1838 65.4656 17.5288 65.4656 17.96C65.4656 18.4775 65.25 18.9518 64.7972 19.3615C64.3445 19.7711 63.6761 19.9652 62.7274 19.9652C61.5416 19.9652 60.6145 19.7064 59.903 19.1889C59.1915 18.6715 58.8681 18.0678 58.8681 17.3778V16.9898C58.8681 16.882 58.825 16.7957 58.7603 16.731C58.6956 16.6664 58.5878 16.6233 58.5016 16.6233H54.1032C53.9954 16.6233 53.9092 16.6664 53.8445 16.731C53.7798 16.7957 53.7367 16.9036 53.7367 16.9898V17.5935C53.7367 18.9733 54.0817 20.1807 54.7932 21.2157C55.5047 22.2505 56.4964 23.0698 57.8117 23.6305C59.1268 24.1263 60.6576 24.4066 62.404 24.4066Z" fill="white"/>
<path fill-rule="evenodd" clip-rule="evenodd" d="M77.6855 24.1391C77.7046 24.1348 77.7229 24.1292 77.7403 24.1222C77.7874 24.1032 77.8283 24.0748 77.8629 24.04C77.9276 23.9753 77.9707 23.8676 77.9707 23.7813V16.1489C77.9707 16.0742 77.9915 16.0304 78.0402 16.0108C78.0617 16.0021 78.0886 15.998 78.1217 15.998H81.981C83.4902 15.998 84.8054 15.7177 85.9482 15.1356C87.0909 14.575 87.9748 13.7557 88.6001 12.6993C89.2253 11.6427 89.5272 10.4354 89.5272 9.05552C89.5272 7.65402 89.2253 6.42507 88.6217 5.36865C88.018 4.31213 87.1556 3.47129 86.056 2.88917C84.9564 2.30704 83.6843 2.00519 82.2397 2.00519H73.0765C72.9687 2.00519 72.8825 2.04833 72.8178 2.11303C72.7531 2.17774 72.71 2.28547 72.71 2.37174V23.7813C72.71 23.8892 72.7531 23.9753 72.8178 24.04C72.8825 24.1048 72.9902 24.1479 73.0765 24.1479H77.6042C77.6328 24.1479 77.6599 24.1448 77.6855 24.1391ZM81.3989 11.8153H78.1432C78.0354 11.8153 77.9923 11.7721 77.9923 11.6643V6.66231C77.9923 6.55447 78.0354 6.51134 78.1432 6.51134H81.3989C82.2613 6.51134 82.9728 6.77005 83.5118 7.26601C84.0508 7.76186 84.3095 8.40869 84.3095 9.20639C84.3095 9.98263 84.0508 10.6295 83.5118 11.1037C82.9728 11.5566 82.2829 11.8153 81.3989 11.8153Z" fill="white"/>
<path fill-rule="evenodd" clip-rule="evenodd" d="M138.124 3.49296C136.874 2.30714 135.17 1.70345 133.036 1.70345C131.505 1.70345 130.104 2.0053 128.832 2.65213C127.56 3.27739 126.546 4.2045 125.749 5.36875C124.994 6.51144 124.498 7.8051 124.304 9.24963L124.282 9.42217L123.398 16.6449C123.355 16.9252 123.334 17.3132 123.334 17.8523C123.334 19.8574 123.959 21.4745 125.209 22.6603C126.46 23.8461 128.142 24.4498 130.255 24.4498C131.785 24.4498 133.187 24.1264 134.459 23.4796C135.731 22.8328 136.766 21.9272 137.564 20.7414C138.34 19.5987 138.836 18.2835 139.03 16.8174L139.051 16.6449L139.935 9.42217C139.978 9.16336 140 8.77534 140 8.25782C140 6.27429 139.375 4.67879 138.124 3.49296ZM129.435 6.10175C130.298 5.28248 131.376 4.8729 132.669 4.8729C133.834 4.8729 134.739 5.19621 135.386 5.88617C136.054 6.57614 136.399 7.48168 136.399 8.62437C136.399 8.6911 136.399 8.77038 136.396 8.86415C136.391 8.98262 136.38 9.12428 136.356 9.29277V9.37904L135.472 16.7742C135.321 18.1542 134.782 19.2322 133.898 20.0514C133.014 20.8708 131.936 21.2804 130.643 21.2804C129.5 21.2804 128.595 20.9354 127.926 20.2671C127.258 19.5987 126.913 18.6932 126.913 17.5505C126.913 17.3995 126.913 17.1839 126.956 16.8821V16.7958L127.883 9.40061C128.056 8.02067 128.573 6.92112 129.435 6.10175Z" fill="white"/>
<path fill-rule="evenodd" clip-rule="evenodd" d="M97.5042 1.94059H97.3533V1.96216H89.7856C89.6993 1.96216 89.5915 2.0053 89.5268 2.07C89.4621 2.11313 89.419 2.1993 89.3974 2.28557V2.32871L89.2681 3.38513C89.5268 3.70854 89.7424 4.03196 89.9365 4.37694C90.6911 5.69217 91.0576 7.22297 91.0576 8.94778C91.0576 10.651 90.6695 12.1387 89.8933 13.4539C89.3544 14.4026 88.6428 15.1787 87.7588 15.804L86.7887 23.7599C86.7671 23.8461 86.7887 23.9539 86.8533 24.0186C86.918 24.0833 86.9827 24.1264 87.0689 24.1264H94.6151C96.8143 24.1264 98.6469 23.5227 100.135 22.3585C101.579 21.2157 102.442 19.6634 102.722 17.7445L102.743 17.6151L103.843 8.43036C103.867 8.19949 103.885 7.99607 103.895 7.82383C103.904 7.69037 103.908 7.57575 103.908 7.48168C103.908 5.77844 103.326 4.42007 102.14 3.42826C100.997 2.45812 99.4447 1.96216 97.5042 1.94059ZM97.073 5.11004C98.0648 5.11004 98.841 5.36875 99.4231 5.95088C100.005 6.53301 100.286 7.33071 100.286 8.34409C100.286 8.62437 100.286 8.81838 100.264 8.96935V9.01249L99.2506 17.033C99.0997 18.2188 98.6469 19.1675 97.9139 19.879C97.1808 20.5905 96.2753 20.9354 95.1972 20.9354H90.8852C90.7773 20.9354 90.7342 20.8924 90.7558 20.8061V20.7845L92.6531 5.26091C92.6531 5.21778 92.6747 5.17474 92.6962 5.15317C92.7178 5.13161 92.7609 5.11004 92.7825 5.11004H97.073Z" fill="white"/>
<path fill-rule="evenodd" clip-rule="evenodd" d="M116.564 1.94059H116.521V1.91902H112.661C112.489 1.91902 112.359 2.02686 112.252 2.1993L112.23 2.24244L102.916 23.6736C102.851 23.803 102.851 23.9108 102.894 23.997C102.94 24.0578 102.986 24.0972 103.046 24.1152C103.072 24.1227 103.1 24.1264 103.131 24.1264H106.258C106.473 24.1264 106.624 24.0401 106.689 23.8461L106.711 23.803L108.134 20.418C108.198 20.3317 108.263 20.2887 108.306 20.2887H116.434C116.477 20.2887 116.499 20.3101 116.521 20.3317C116.521 20.3533 116.542 20.3748 116.542 20.3964V20.418L117.146 23.803C117.167 24.0186 117.275 24.1049 117.448 24.1264H120.574C120.811 24.1264 120.941 24.0401 120.962 23.8246V23.6952L116.866 2.26401C116.844 2.04843 116.736 1.96216 116.564 1.94059ZM113.933 6.61928C113.955 6.53301 113.976 6.48987 114.02 6.48987C114.041 6.48987 114.084 6.51144 114.127 6.59771V6.61928L115.96 17.2486C116.003 17.3779 115.96 17.4426 115.831 17.4426H109.578C109.47 17.4426 109.427 17.3779 109.47 17.2702L109.492 17.2486L113.933 6.61928Z" fill="white"/>
</svg>
