<svg width="68" height="53" viewBox="0 0 68 53" fill="none" xmlns="http://www.w3.org/2000/svg">
<path d="M29.4578 0C29.6405 0.279638 29.6219 0.662 30.0428 0.603504C30.097 0.59637 30.2169 0.75331 30.234 0.847474C30.2682 1.03723 30.3467 1.1214 30.5379 1.1799C30.6606 1.217 30.7447 1.37964 30.8446 1.48807C30.9316 1.58366 31.0044 1.7406 31.1071 1.76343C31.3211 1.81051 31.4338 1.89041 31.4852 2.11583C31.5095 2.22141 31.6464 2.35695 31.7506 2.37549C31.9874 2.4183 32.0545 2.54385 32.0901 2.75643C32.1044 2.84061 32.2271 2.95617 32.3141 2.96901C32.5353 3.00183 32.6437 3.086 32.6837 3.31856C32.7008 3.41558 32.8606 3.48691 32.9519 3.57394C33.0575 3.67524 33.1616 3.77796 33.2615 3.88354C33.3628 3.99197 33.4584 4.10754 33.5582 4.21739C33.6438 4.31156 33.7466 4.39288 33.8165 4.49703C33.8664 4.57122 33.8479 4.73102 33.9021 4.75527C34.4143 4.98212 34.5769 5.19898 33.9206 5.44723C33.9863 6.00936 33.1488 5.9209 33.1702 6.4816C33.173 6.55294 32.7193 6.63854 32.7207 6.71273C32.7336 7.27201 31.8861 7.16786 31.9589 7.73855C31.3882 7.66151 31.4795 8.52182 30.9202 8.48187C30.8846 8.47902 30.8432 8.68447 30.789 8.78434C30.6491 9.03972 30.3824 9.06112 30.2796 8.7929C30.1897 8.55606 30.0884 8.4462 29.8416 8.4191C29.7646 8.41054 29.6533 8.27357 29.6447 8.18654C29.6205 7.95256 29.512 7.86981 29.2881 7.82986C29.1868 7.81274 29.1083 7.65865 29.0198 7.56591C28.9185 7.46176 28.8329 7.29484 28.7131 7.2663C28.4962 7.21494 28.4178 7.10651 28.3307 6.91248C28.2137 6.64996 28.0325 6.65566 27.8999 6.93245C27.8071 7.12648 27.7244 7.24205 27.5018 7.2663C27.4133 7.27629 27.2749 7.38472 27.265 7.46176C27.2336 7.71429 27.1351 7.8427 26.8698 7.86838C26.7899 7.87694 26.6729 8.00677 26.66 8.0938C26.6272 8.3178 26.5302 8.41624 26.3048 8.46047C26.2021 8.48044 26.1236 8.63453 26.038 8.73155C25.9524 8.82856 25.8867 9.0012 25.7897 9.01832C25.5343 9.06397 25.4216 9.17526 25.396 9.4335C25.3888 9.51482 25.2576 9.63324 25.1691 9.64893C24.9522 9.68603 24.8381 9.76307 24.8039 9.99991C24.7896 10.0983 24.6412 10.2282 24.5342 10.2524C24.343 10.2938 24.266 10.3694 24.2103 10.5606C24.1761 10.6805 24.002 10.7589 23.8965 10.8602C23.8037 10.9487 23.7167 11.0428 23.6282 11.1341C23.5255 11.2412 23.4385 11.4109 23.3186 11.4409C23.0875 11.4965 23.0162 11.615 22.9805 11.8275C22.9648 11.9174 22.8535 12.0473 22.7694 12.0601C22.5154 12.0986 22.407 12.2128 22.3713 12.4696C22.3599 12.5537 22.1658 12.6094 22.0617 12.6864C21.9775 12.7492 21.8406 12.8191 21.832 12.8962C21.8063 13.1572 21.6893 13.2685 21.4325 13.2985C21.3526 13.307 21.2413 13.4412 21.2256 13.531C21.1885 13.7565 21.0858 13.8492 20.8604 13.8892C20.7562 13.9077 20.6692 14.0518 20.5865 14.1502C20.5037 14.2487 20.4538 14.4313 20.3596 14.4541C20.1171 14.5112 19.9872 14.6082 19.9644 14.8707C19.9573 14.9506 19.8232 15.0691 19.7333 15.0819C19.5121 15.1147 19.4137 15.1989 19.3709 15.4314C19.3509 15.5413 19.1526 15.6155 19.0428 15.7154C18.9643 15.7853 18.8316 15.8823 18.843 15.9465C18.863 16.0578 18.9686 16.1576 19.0499 16.2518C19.1455 16.3631 19.311 16.4473 19.3452 16.5714C19.3952 16.754 19.4479 16.8567 19.6491 16.8981C19.7604 16.9209 19.9216 17.0408 19.933 17.1335C19.9658 17.3946 20.0828 17.503 20.3354 17.5401C20.4138 17.5516 20.5208 17.6871 20.5337 17.7755C20.5651 18.0095 20.6863 18.0909 20.9061 18.1237C20.9959 18.1365 21.1258 18.2449 21.14 18.3263C21.1814 18.5731 21.277 18.7072 21.5467 18.7229C21.6265 18.7272 21.7492 18.8584 21.7621 18.9455C21.7935 19.1595 21.8491 19.2893 22.0959 19.3193C22.1944 19.3307 22.3356 19.4776 22.3528 19.5804C22.3898 19.8072 22.4869 19.9085 22.7094 19.9456C22.7993 19.9613 22.932 20.0697 22.942 20.1468C22.9719 20.4036 23.0832 20.522 23.3443 20.5477C23.4256 20.5562 23.5398 20.6804 23.5583 20.7688C23.6026 20.9785 23.6753 21.1027 23.9136 21.1383C24.0149 21.154 24.1476 21.2924 24.1747 21.398C24.2203 21.5778 24.256 21.7162 24.4729 21.7176C24.6683 21.719 24.7853 21.8089 24.7882 22.0172C24.7882 22.0415 24.7853 22.0771 24.7996 22.0857C24.9779 22.2098 25.2048 22.2954 25.3275 22.4595C25.453 22.6264 25.366 22.9374 25.7184 22.9603C25.8126 22.966 25.901 23.1229 25.9823 23.2185C26.0665 23.3169 26.1293 23.5038 26.2192 23.5167C26.4774 23.5509 26.5901 23.6594 26.6258 23.9147C26.6372 23.9946 26.7713 24.1059 26.8612 24.1159C27.0866 24.1444 27.1879 24.2343 27.2236 24.4669C27.2393 24.5653 27.382 24.7009 27.4847 24.7194C27.7201 24.7608 27.7829 24.8849 27.8242 25.0975C27.8428 25.1917 28.0097 25.3158 28.111 25.3186C28.2152 25.3215 28.3864 25.2102 28.4149 25.116C28.4762 24.912 28.5576 24.7993 28.7716 24.7323C28.8914 24.6952 28.9628 24.5111 29.0626 24.3998C29.1482 24.3057 29.2338 24.1616 29.3366 24.1444C29.5748 24.1059 29.6433 23.9818 29.6775 23.7678C29.6904 23.685 29.8174 23.568 29.903 23.5581C30.1312 23.5295 30.224 23.4282 30.2639 23.2028C30.2811 23.1044 30.4366 23.0273 30.535 22.9488C30.6192 22.8804 30.7861 22.8276 30.7904 22.7619C30.8075 22.4495 30.9288 22.284 31.2569 22.2583C31.3211 22.2526 31.3682 22.0814 31.4338 21.9944C31.5095 21.8916 31.5894 21.7233 31.6821 21.7147C31.9546 21.6876 32.0416 21.5592 32.0687 21.3067C32.0759 21.2311 32.2171 21.1198 32.3056 21.1112C32.541 21.0884 32.6394 20.9857 32.6537 20.7545C32.658 20.6789 32.7379 20.5462 32.7892 20.5434C33.1003 20.522 33.2757 20.3936 33.2601 20.0626C33.7994 20.0626 33.7252 19.305 34.2445 19.2608C34.3258 19.2536 34.4457 19.1238 34.4614 19.0368C34.4984 18.8128 34.594 18.7086 34.8266 18.6858C34.915 18.6772 35.0563 18.5617 35.0634 18.4846C35.0891 18.225 35.2018 18.1137 35.4601 18.0851C35.5385 18.0766 35.6455 17.941 35.6641 17.8483C35.6997 17.6643 35.7611 17.5644 35.9594 17.5088C36.0835 17.4745 36.1777 17.319 36.2761 17.2091C36.3632 17.1121 36.426 16.9338 36.523 16.9167C36.7755 16.871 36.8882 16.7654 36.9296 16.51C36.9453 16.413 37.1165 16.346 37.2064 16.2547C37.2934 16.1634 37.4332 16.0535 37.4261 15.9622C37.419 15.8709 37.2535 15.7967 37.1636 15.7082C37.0594 15.6055 36.9581 15.4971 36.864 15.3844C36.8368 15.3515 36.8426 15.256 36.8283 15.2545C36.202 15.1946 36.3104 14.4527 35.7882 14.1873C36.2961 14.0019 36.2876 13.347 36.8368 13.2443C36.9196 12.7292 37.5916 12.6807 37.6857 12.1757C38.2108 12.1357 38.0966 11.3453 38.6573 11.3467C38.5832 10.6947 39.549 10.9501 39.4506 10.2082C39.6432 10.3751 39.7588 10.4293 39.7916 10.515C39.8658 10.7047 39.9343 10.8674 40.1754 10.8616C40.3794 10.8574 40.4836 10.9615 40.4836 11.1641C40.4836 11.3767 40.6162 11.4252 40.7974 11.4723C40.903 11.4994 41.0385 11.6306 41.0557 11.7334C41.0942 11.9588 41.1926 12.053 41.4109 12.1043C41.5122 12.1286 41.5878 12.2755 41.6692 12.3725C41.7533 12.471 41.8218 12.6508 41.9146 12.6622C42.1728 12.6936 42.2898 12.7963 42.3212 13.0559C42.3312 13.1373 42.4624 13.2528 42.5509 13.2657C42.7749 13.2985 42.879 13.3855 42.9118 13.6195C42.9261 13.7179 43.0716 13.805 43.1701 13.8806C43.2229 13.9205 43.357 13.9163 43.3613 13.9448C43.4383 14.5497 44.2087 14.8023 44.1074 15.5242C44.0261 16.1034 44.0917 16.7027 44.0917 17.2748C43.7679 17.4388 43.4454 17.4916 43.4882 17.884C43.4954 17.9496 43.3498 18.088 43.2657 18.0966C43.0331 18.1222 42.9375 18.2178 42.9133 18.4504C42.9047 18.5388 42.7834 18.6801 42.7064 18.6858C42.4339 18.7043 42.3483 18.8456 42.3098 19.0896C42.2969 19.1709 42.16 19.2765 42.0672 19.2907C41.8461 19.325 41.7419 19.422 41.6934 19.646C41.6706 19.7544 41.5393 19.8942 41.4352 19.9171C41.2126 19.9656 41.1227 20.0654 41.0814 20.2866C41.0642 20.3822 40.8959 20.4507 40.7989 20.5334C40.7033 20.6147 40.5463 20.6903 40.5306 20.7859C40.4935 21.0156 40.3922 21.1012 40.1697 21.144C40.0727 21.1626 40.0056 21.3267 39.9186 21.4165C39.8173 21.5221 39.7103 21.622 39.6018 21.7219C39.5062 21.8089 39.3493 21.876 39.3222 21.9787C39.268 22.1898 39.1838 22.3011 38.9598 22.3511C38.8557 22.3739 38.7786 22.5251 38.6916 22.6207C38.5931 22.7291 38.5147 22.9003 38.3948 22.936C38.2079 22.9916 38.1209 23.0587 38.0795 23.2542C38.0567 23.3626 37.9297 23.5138 37.8341 23.5281C37.5987 23.5609 37.5131 23.6622 37.4817 23.8862C37.4689 23.9747 37.3519 24.1016 37.2677 24.1145C37.0509 24.1473 36.9324 24.2215 36.8854 24.454C36.864 24.561 36.7298 24.698 36.6243 24.7237C36.4103 24.7751 36.3004 24.8592 36.2562 25.0861C36.2362 25.1917 36.1007 25.3329 35.9979 25.3529C35.7668 25.3957 35.6841 25.5041 35.6541 25.7267C35.6427 25.8109 35.5157 25.9321 35.4287 25.9435C35.2032 25.9749 35.1005 26.0605 35.0763 26.2974C35.0649 26.4015 34.9279 26.5014 34.8352 26.587C34.7538 26.6612 34.614 26.6926 34.5655 26.7796C34.3087 27.239 33.7865 27.4773 33.5368 27.881C33.2929 28.2748 32.8106 28.3661 32.6351 28.8369C32.5453 29.0809 32.1472 29.1993 31.9632 29.5232C31.7791 29.8456 31.2355 29.9783 31.0886 30.3022C30.8945 30.733 30.3253 30.7487 30.2468 31.2338C30.2368 31.2995 30.1127 31.3965 30.0456 31.3936C29.6661 31.3736 29.7061 31.7146 29.5691 31.9529H26.7428C26.5259 31.7788 26.6158 31.3522 26.1892 31.3722C26.0965 31.3765 26.0023 30.9884 25.8882 30.9756C25.3788 30.9214 25.3617 30.3464 24.9323 30.1609C24.5913 30.0126 24.4001 29.5332 24.1205 29.2222C24.0049 29.0952 23.7552 29.0552 23.6953 28.9197C23.5598 28.6129 23.447 28.329 23.0561 28.3048C23.1189 27.7412 22.26 27.8397 22.3014 27.2675C22.3042 27.2219 21.8876 27.152 21.8905 27.102C21.9147 26.5356 21.1029 26.6269 21.1058 26.0862C21.1058 26.042 20.9089 26.0077 20.8147 25.9507C20.7234 25.8936 20.5836 25.8208 20.5736 25.7409C20.5437 25.4856 20.4324 25.37 20.177 25.3372C20.0971 25.3272 19.9815 25.1888 19.9715 25.1003C19.9473 24.8749 19.8588 24.7693 19.6306 24.7237C19.5278 24.7023 19.388 24.5653 19.3738 24.4655C19.3409 24.2272 19.2282 24.1487 19.0071 24.1188C18.9186 24.1073 18.7874 23.9932 18.7774 23.9133C18.7446 23.6536 18.6247 23.5466 18.3665 23.5224C18.2866 23.5153 18.171 23.3769 18.1568 23.2856C18.1225 23.0616 18.0284 22.9645 17.7986 22.9289C17.7002 22.9146 17.6203 22.7548 17.539 22.6549C17.4591 22.5551 17.4049 22.3782 17.3136 22.3582C17.0682 22.3068 16.9355 22.2155 16.9184 21.9473C16.9141 21.8688 16.7771 21.7475 16.6901 21.7376C16.4632 21.7119 16.3605 21.6277 16.332 21.3909C16.3206 21.2953 16.1693 21.1569 16.0666 21.1412C15.8312 21.1084 15.7513 20.99 15.7071 20.7774C15.6885 20.6889 15.5772 20.5605 15.4973 20.552C15.2405 20.5234 15.1207 20.4136 15.0922 20.1525C15.0836 20.074 14.9523 19.9627 14.8625 19.947C14.6385 19.9071 14.5457 19.8029 14.5072 19.5789C14.4901 19.4776 14.3474 19.3321 14.249 19.3207C14.005 19.2907 13.9408 19.1695 13.9108 18.9512C13.8994 18.8641 13.7767 18.7315 13.6982 18.7257C13.4314 18.7086 13.3644 18.5645 13.2802 18.3377C13.2231 18.1836 12.9877 18.0951 12.7637 17.9268C12.661 17.63 12.7438 17.1464 12.2729 16.9081C12.1859 16.8639 12.1488 16.6627 12.1431 16.5314C12.1274 16.1049 12.1374 15.6783 12.1374 15.2017C12.5526 15.0833 12.6838 14.7595 12.7395 14.3771C12.7723 14.1474 12.7794 13.9006 13.1161 13.8606C13.2075 13.8492 13.2759 13.6694 13.3601 13.5696C13.4414 13.4725 13.5156 13.317 13.6155 13.2971C13.8352 13.2528 13.9479 13.1701 13.9736 12.9361C13.9836 12.8491 14.0977 12.7121 14.1748 12.7064C14.4387 12.685 14.5429 12.5609 14.58 12.3083C14.5914 12.227 14.7255 12.1186 14.8168 12.1043C15.0479 12.0672 15.1221 11.946 15.1649 11.7305C15.1849 11.6278 15.3361 11.5465 15.436 11.4651C15.5373 11.3838 15.7185 11.3339 15.7413 11.2397C15.7984 11.0015 15.8797 10.8588 16.1508 10.8402C16.2307 10.8345 16.3534 10.7004 16.3648 10.612C16.3948 10.3865 16.4832 10.2867 16.7158 10.2524C16.8114 10.2382 16.9355 10.0827 16.9583 9.9728C16.9983 9.77448 17.0981 9.71741 17.2765 9.65892C17.3963 9.61897 17.4719 9.44776 17.5689 9.33791C17.6545 9.24232 17.7316 9.0868 17.8343 9.06683C18.0597 9.02403 18.1553 8.92273 18.201 8.70587C18.2195 8.61313 18.3322 8.48187 18.415 8.47188C18.6718 8.43907 18.7859 8.3235 18.8159 8.06527C18.8245 7.9868 18.9643 7.87694 19.0542 7.86553C19.2881 7.83699 19.3666 7.72143 19.4094 7.50171C19.428 7.40612 19.5906 7.33764 19.6862 7.25632C19.7846 7.17357 19.9473 7.10223 19.9658 7.00379C20.0072 6.77836 20.1057 6.67992 20.3254 6.63569C20.4167 6.61714 20.5437 6.50586 20.5579 6.42168C20.5965 6.17771 20.6806 6.03219 20.9517 6.00936C21.0387 6.00223 21.1714 5.88381 21.1843 5.80106C21.2228 5.54853 21.3312 5.42868 21.5937 5.40728C21.6708 5.40158 21.7806 5.26176 21.7978 5.16902C21.832 4.9864 21.8834 4.88225 22.0874 4.83089C22.2087 4.80092 22.2985 4.63828 22.3998 4.5327C22.4869 4.43996 22.5568 4.28302 22.6566 4.2602C22.8778 4.21169 22.9734 4.1161 23.0133 3.8921C23.0319 3.78795 23.1731 3.64813 23.2758 3.62958C23.5041 3.58964 23.5869 3.47978 23.6439 3.26862C23.671 3.16733 23.828 3.10027 23.9264 3.01752C24.0234 2.93477 24.1847 2.86201 24.2046 2.76356C24.2489 2.54385 24.3273 2.4397 24.5613 2.40546C24.6555 2.39119 24.7325 2.22712 24.8096 2.12582C24.8866 2.02452 24.9423 1.83905 25.0307 1.82478C25.2961 1.78198 25.3831 1.64787 25.4088 1.39962C25.4174 1.31829 25.5557 1.20273 25.6471 1.18989C25.8739 1.1585 25.9666 1.06006 26.0123 0.83606C26.0323 0.737616 26.1906 0.659146 26.2976 0.590663C26.4089 0.520754 26.6286 0.489366 26.6401 0.416603C26.7028 0.00998709 27.0153 0.0185474 27.2864 0.0114138C28.0183 -0.00713362 28.7516 0.00428017 29.4593 0.00428017L29.4578 0Z" fill="white"/>
<path d="M42.0502 6.69835C41.7434 6.95231 41.6307 7.35322 41.197 7.30471C41.2569 7.84258 40.4808 7.76126 40.4779 8.26917C40.4779 8.32624 40.2996 8.37618 40.2125 8.44181C40.1112 8.51742 39.9557 8.59447 39.9372 8.69291C39.8944 8.91833 39.7888 9.00679 39.5734 9.05958C39.4678 9.08526 39.3893 9.23364 39.3023 9.32923C39.201 9.43909 39.1197 9.62313 39.0027 9.65024C38.7673 9.70303 38.7031 9.82288 38.6688 10.0355C38.6546 10.1196 38.5319 10.2366 38.4463 10.2509C38.228 10.2837 38.1024 10.3536 38.081 10.5962C38.0725 10.6832 37.9555 10.8244 37.8784 10.8301C37.6159 10.853 37.5075 10.9685 37.4775 11.2253C37.469 11.3067 37.3363 11.4222 37.2478 11.4351C37.021 11.4693 36.9311 11.5749 36.884 11.796C36.8612 11.903 36.7242 12.04 36.6172 12.0643C36.3975 12.1113 36.299 12.2041 36.2534 12.4266C36.2334 12.5265 36.0836 12.6478 35.9752 12.6692C35.7783 12.7091 35.7141 12.799 35.6599 12.9845C35.6256 13.1029 35.4516 13.1785 35.3474 13.2798C35.2561 13.3669 35.1234 13.4539 35.1006 13.5595C35.0592 13.7521 34.9793 13.8277 34.7896 13.8819C34.6683 13.9161 34.5855 14.0816 34.4857 14.1872C34.3972 14.2814 34.323 14.4326 34.2175 14.4583C34.0049 14.5097 33.9036 14.601 33.8422 14.8178C33.8094 14.9348 33.6268 15.009 33.5141 15.1046C33.4328 15.1745 33.2958 15.2416 33.2858 15.3229C33.2544 15.574 33.146 15.6667 32.8963 15.7338C32.6181 15.808 32.6038 16.129 32.8749 16.2217C33.1146 16.3031 33.1731 16.4258 33.2658 16.6383C33.35 16.8295 33.6996 16.9023 33.788 17.0935C33.8893 17.3132 33.9007 17.5457 34.2018 17.5871C34.256 17.5942 34.3002 17.6713 34.383 17.7455C34.3116 17.8425 34.2674 17.9723 34.1846 18.0051C33.9977 18.0779 33.8479 18.1378 33.8151 18.3761C33.8009 18.4817 33.6767 18.6343 33.5797 18.6543C33.3586 18.6999 33.2501 18.7856 33.223 19.0167C33.213 19.1037 33.0989 19.2392 33.0204 19.2478C32.7608 19.2749 32.6495 19.3948 32.6181 19.6501C32.6081 19.7329 32.4797 19.8485 32.3898 19.8656C32.1673 19.9084 32.0816 20.0125 32.0403 20.2365C32.0189 20.3507 31.8377 20.4348 31.7278 20.5304C31.6479 20.6018 31.5081 20.6617 31.4953 20.7416C31.4567 20.9913 31.3455 21.0854 31.0944 21.1496C30.946 21.1867 30.849 21.4278 30.6606 21.6633C30.5108 21.7046 30.2711 21.7688 30.2084 21.3608C30.1941 21.268 30.0186 21.2024 29.9202 21.1211C29.8231 21.0398 29.6662 20.9642 29.6519 20.8671C29.6163 20.6389 29.525 20.539 29.2938 20.5133C29.2025 20.5033 29.0684 20.3992 29.0499 20.3179C28.9985 20.0853 28.9272 19.9255 28.649 19.9084C28.5648 19.9027 28.4307 19.7728 28.4207 19.6887C28.3907 19.4376 28.3008 19.3035 28.0312 19.2778C27.9527 19.2706 27.8357 19.1351 27.8229 19.0466C27.7915 18.8226 27.7045 18.7185 27.4705 18.6843C27.3735 18.67 27.2936 18.513 27.218 18.4132C27.1923 18.3804 27.2151 18.299 27.188 18.2791C27.0111 18.1521 26.7671 18.0722 26.663 17.9038C26.5617 17.7383 26.6116 17.4915 26.3491 17.4016C26.2563 17.3702 26.1465 17.259 26.1265 17.1662C25.9696 16.44 25.8511 15.6625 26.1607 14.9976C26.3534 14.5824 26.4989 14.0003 27.0838 13.8277C27.1595 13.8049 27.1851 13.6408 27.2508 13.5538C27.3264 13.4539 27.4077 13.3141 27.5119 13.2884C27.6916 13.2442 27.8314 13.2028 27.8371 12.9902C27.8429 12.7905 27.9399 12.7091 28.1382 12.6678C28.2466 12.6449 28.3936 12.5208 28.4121 12.4209C28.4563 12.1955 28.5634 12.1113 28.7788 12.0614C28.8858 12.0372 28.9657 11.8888 29.0527 11.7918C29.1512 11.6819 29.2282 11.4978 29.3452 11.4693C29.5735 11.4137 29.6519 11.3052 29.6819 11.087C29.6933 11.0028 29.8174 10.8844 29.903 10.8701C30.1228 10.8358 30.2326 10.7531 30.2697 10.5191C30.2854 10.4235 30.4366 10.2994 30.5436 10.278C30.7405 10.2381 30.8033 10.1439 30.8604 9.96127C30.8975 9.84142 31.0615 9.75725 31.1728 9.66451C31.2584 9.5946 31.4125 9.54752 31.4296 9.46762C31.4853 9.20938 31.5951 9.08383 31.8676 8.99538C32.0303 8.94259 32.0759 8.55737 32.2443 8.48603C32.474 8.38759 32.6809 8.36476 32.6966 8.05231C32.7008 7.98098 32.8549 7.91963 32.9363 7.84972C33.0461 7.75555 33.156 7.65996 33.2615 7.56009C33.3671 7.46022 33.4656 7.35179 33.5697 7.25192C33.6625 7.16204 33.8194 7.09213 33.8437 6.98798C33.895 6.76826 33.9992 6.67695 34.2146 6.62701C34.3202 6.60276 34.4543 6.46009 34.4743 6.35308C34.5156 6.12338 34.6212 6.04206 34.8409 6.00068C34.938 5.98214 35.0079 5.82092 35.0892 5.7239C35.1705 5.62688 35.2404 5.45995 35.3346 5.44426C35.57 5.40574 35.6428 5.29445 35.677 5.07331C35.6927 4.97344 35.8453 4.8964 35.9352 4.80794C36.038 4.70522 36.1393 4.60107 36.242 4.49977C36.3476 4.39562 36.456 4.29432 36.5601 4.18732C36.6643 4.08031 36.7599 3.96618 36.8655 3.86202C36.971 3.75787 37.0895 3.66656 37.1979 3.56527C37.2906 3.47966 37.4404 3.39834 37.4561 3.29704C37.4946 3.05735 37.6159 2.9903 37.8328 2.96034C37.917 2.94892 38.0368 2.82337 38.0482 2.73777C38.0782 2.5152 38.1595 2.40677 38.3949 2.36967C38.4933 2.35398 38.5704 2.19989 38.656 2.10715C38.7559 1.99872 38.8543 1.88887 38.9542 1.78186C39.0555 1.67343 39.1596 1.56785 39.2609 1.46085C39.3508 1.36526 39.4236 1.21117 39.5306 1.18549C39.7389 1.13413 39.8701 1.0685 39.9015 0.831664C39.9129 0.74178 40.0399 0.587694 40.0984 0.594828C40.5079 0.643336 40.5136 0.289509 40.6491 0.0098711C41.4139 0.0098711 42.1714 0.00131076 42.9276 0.015578C43.1545 0.0198582 43.4127 0.0198582 43.4726 0.352285C43.4883 0.436461 43.6167 0.554879 43.7037 0.562013C43.9477 0.584841 44.1018 0.651897 44.1346 0.927254C44.146 1.01571 44.263 1.13841 44.3515 1.15981C44.5669 1.21117 44.6639 1.31675 44.7124 1.53504C44.7353 1.64204 44.8751 1.77901 44.9807 1.79898C45.2047 1.84178 45.2988 1.93595 45.3388 2.16137C45.3559 2.25839 45.5057 2.38251 45.6127 2.40391C45.8096 2.44386 45.8838 2.52946 45.9266 2.72207C45.9494 2.82908 46.0821 2.91611 46.1734 3.00314C46.2775 3.10301 46.3945 3.19146 46.5001 3.29133C46.6071 3.39121 46.7084 3.49678 46.8083 3.60236C46.9096 3.70936 47.0095 3.8178 47.1093 3.92623C47.1978 4.02324 47.272 4.1916 47.3718 4.20729C47.6344 4.25009 47.7271 4.3785 47.7613 4.62675C47.7728 4.70522 47.9154 4.81365 48.0053 4.82221C48.2493 4.84646 48.3121 4.97772 48.3463 5.19316C48.3591 5.27733 48.4861 5.39575 48.5731 5.40717C48.7971 5.4357 48.9027 5.51988 48.9384 5.75529C48.9527 5.85373 49.111 5.92935 49.2038 6.01495C49.3093 6.11482 49.4206 6.21041 49.5191 6.31884C49.6075 6.41586 49.6674 6.59991 49.7616 6.61417C50.0241 6.65698 50.114 6.79394 50.1639 7.03078C50.1811 7.11495 50.3152 7.22053 50.4065 7.23195C50.6348 7.26048 50.7289 7.35892 50.766 7.5872C50.7817 7.68422 50.9315 7.80977 51.0385 7.83117C51.234 7.87254 51.3025 7.95815 51.3567 8.14505C51.3909 8.26347 51.5636 8.33908 51.6677 8.44038C51.759 8.52741 51.8403 8.62443 51.9274 8.71574C52.0287 8.82274 52.1271 8.9326 52.2327 9.0339C52.3269 9.12235 52.4952 9.18798 52.5166 9.28643C52.5694 9.5361 52.6821 9.6531 52.9361 9.68448C53.0188 9.69447 53.1344 9.82288 53.1486 9.91133C53.1829 10.1282 53.2571 10.2452 53.4968 10.2794C53.5938 10.2937 53.6665 10.4563 53.755 10.5462C53.8563 10.6504 53.9619 10.7502 54.0675 10.8501C54.1588 10.9371 54.3171 11.0128 54.3314 11.1098C54.3656 11.3438 54.4798 11.418 54.6952 11.4679C54.7965 11.4907 54.8707 11.6448 54.9506 11.7447C55.0334 11.8474 55.0947 12.0314 55.1903 12.0486C55.4442 12.0928 55.557 12.2055 55.5969 12.4566C55.6097 12.5379 55.7453 12.6478 55.8352 12.6606C56.062 12.6906 56.1605 12.7833 56.1933 13.0159C56.2075 13.1143 56.3631 13.1928 56.4586 13.277C56.5528 13.3611 56.7426 13.4539 56.7326 13.5195C56.6684 13.9761 57.2262 13.842 57.3033 14.1558C57.3703 14.4298 57.3803 14.8221 57.5629 14.9477C58.2734 15.4342 57.8939 16.0976 57.9353 16.6911C57.9396 16.7525 57.8982 16.8466 57.8483 16.878C57.4331 17.1391 57.4046 17.5771 57.3247 18.0009C57.152 18.1492 56.7711 18.0422 56.7825 18.4446C56.7854 18.5259 56.6184 18.6629 56.5114 18.6857C56.3188 18.7271 56.2461 18.8112 56.1933 18.9996C56.159 19.1194 55.9893 19.1979 55.8837 19.2992C55.7909 19.3862 55.6468 19.4661 55.624 19.5702C55.5769 19.79 55.4813 19.897 55.2602 19.9383C55.1675 19.9555 55.0362 20.0596 55.0219 20.1424C54.9777 20.3878 54.885 20.5247 54.6153 20.5404C54.5354 20.5447 54.4142 20.6731 54.3999 20.7587C54.3642 20.9713 54.3057 21.1011 54.0603 21.1311C53.9619 21.1439 53.8278 21.2852 53.8035 21.3893C53.7607 21.5734 53.6994 21.6675 53.5025 21.7203C53.3826 21.7531 53.297 21.9144 53.1986 22.0214C53.1116 22.1155 53.0431 22.271 52.9418 22.2967C52.732 22.3495 52.6151 22.4251 52.5708 22.6548C52.5509 22.7604 52.411 22.9002 52.3069 22.9202C52.0857 22.9616 51.9816 23.0429 51.9445 23.2754C51.9288 23.3739 51.7833 23.5009 51.6777 23.5237C51.4822 23.5651 51.4066 23.6507 51.3624 23.8419C51.3381 23.9474 51.204 24.0316 51.1113 24.1186C51.0057 24.2185 50.8887 24.3055 50.7831 24.4054C50.6776 24.5067 50.5834 24.6194 50.4821 24.7264C50.3808 24.8334 50.2781 24.9404 50.1739 25.0446C50.0684 25.1502 49.9571 25.25 49.8529 25.357C49.7502 25.4626 49.656 25.5768 49.5533 25.6823C49.4649 25.7736 49.3778 25.9206 49.2751 25.9349C49.0326 25.9691 48.9698 26.0947 48.9384 26.3101C48.9255 26.3957 48.8028 26.5155 48.7172 26.527C48.4975 26.5569 48.382 26.6311 48.3477 26.8694C48.3335 26.9692 48.1794 27.0491 48.0881 27.1376C47.9839 27.2389 47.8726 27.3359 47.7742 27.4415C47.6857 27.5356 47.6215 27.7154 47.5259 27.7297C47.2634 27.7696 47.1693 27.9023 47.125 28.1434C47.1093 28.2276 46.9809 28.3389 46.891 28.3517C46.6728 28.3817 46.5529 28.4516 46.5201 28.6927C46.5073 28.7912 46.366 28.9253 46.2619 28.9495C46.0735 28.9938 45.9622 29.0551 45.9437 29.2606C45.9351 29.3476 45.8852 29.4988 45.841 29.5031C45.5071 29.5388 45.4572 29.7842 45.2974 30.0181C45.1119 30.2892 44.8608 30.6587 44.5726 30.77C44.1689 30.9255 44.1503 31.539 43.6139 31.4791C43.5725 31.4748 43.4983 31.7559 43.4241 31.9414H40.5607C40.4451 31.676 40.3196 31.4934 40.0285 31.3507C39.6832 31.1809 39.4778 30.7415 39.1882 30.4405C38.9 30.1423 38.5847 29.8712 38.2779 29.5916C38.228 29.5459 38.1124 29.5316 38.1039 29.4874C38.0439 29.175 37.8841 28.9781 37.5531 28.9481C37.4989 28.4545 36.8341 28.4559 36.7642 27.9751C36.2434 27.9066 36.2705 27.3145 35.9053 27.0819C35.6599 26.925 35.6798 26.7067 35.9495 26.6183C36.1835 26.5412 36.2548 26.3886 36.3889 26.2245C36.6186 25.942 36.8968 25.6481 37.1793 25.4598C37.429 25.2943 37.4761 25.0731 37.6359 24.9005C37.7943 24.7293 38.0482 24.7207 38.1852 24.424C38.3407 24.0887 38.7202 23.8547 39.0155 23.5893C39.1967 23.4281 39.4007 23.2926 39.5719 23.1613C39.8074 23.3111 40.067 23.4752 40.3267 23.6407C40.5136 23.8148 40.4779 24.2028 40.8974 24.2157C40.9544 24.6793 41.4738 24.745 41.6621 25.1173C41.8319 25.4526 42.1871 25.4113 42.327 25.056C42.3926 24.8905 42.4254 24.7735 42.6237 24.715C42.7464 24.6793 42.8363 24.521 42.9362 24.414C43.0218 24.3212 43.0902 24.1586 43.1873 24.14C43.4098 24.0987 43.5111 24.0159 43.5482 23.7848C43.5639 23.6892 43.7223 23.6093 43.8264 23.538C43.8807 23.5009 44.0148 23.5023 44.0176 23.4752C44.0647 23.0657 44.3914 22.9544 44.6853 22.7832C44.7766 22.729 44.7938 22.4151 44.8294 22.418C45.4015 22.4608 45.2831 21.5891 45.8538 21.6561C45.7939 21.1197 46.57 21.1996 46.57 20.6902C46.57 20.6332 46.7469 20.5818 46.8354 20.5176C46.9395 20.4434 47.1108 20.3721 47.125 20.2793C47.1678 20.014 47.3105 19.9326 47.5488 19.8898C47.6329 19.8741 47.7414 19.7415 47.7556 19.6487C47.7885 19.4319 47.8598 19.3049 48.0995 19.2763C48.1894 19.2649 48.3263 19.1565 48.3392 19.078C48.3748 18.8341 48.4547 18.6885 48.7301 18.6728C48.8086 18.6686 48.9313 18.533 48.9412 18.4474C48.9669 18.2206 49.0568 18.1207 49.2879 18.0822C49.3892 18.0651 49.4734 17.9153 49.5562 17.8197C49.6403 17.7226 49.7031 17.5472 49.7973 17.53C50.0541 17.4844 50.1069 17.3274 50.2096 17.122C50.3052 16.9308 50.6433 16.8638 50.7432 16.6726C50.8459 16.4743 50.7988 16.206 51.1184 16.1618C51.1655 16.1547 51.2012 16.0591 51.2939 15.9378C50.7732 15.8522 50.7917 15.2202 50.3038 15.0889C50.2267 15.0689 50.1953 14.8977 50.1326 14.8021C50.0626 14.6937 49.9984 14.5211 49.9014 14.4982C49.6589 14.4412 49.5291 14.3413 49.4991 14.0816C49.4891 14.0017 49.3564 13.8876 49.268 13.8748C49.0454 13.842 48.9384 13.7578 48.9056 13.5224C48.8913 13.4254 48.7386 13.3412 48.6359 13.2684C48.5831 13.2299 48.4462 13.237 48.4433 13.2113C48.3905 12.8133 48.0866 12.682 47.7856 12.5194C47.6957 12.4709 47.6757 12.1541 47.6401 12.1584C47.0551 12.2084 47.1707 11.3352 46.6043 11.3851C46.6528 10.8515 45.8923 10.9257 45.8781 10.4235C45.8766 10.365 45.6969 10.3194 45.6098 10.2552C45.5085 10.1796 45.3559 10.0982 45.3388 10.0012C45.3002 9.77294 45.2018 9.68306 44.9792 9.64025C44.8737 9.62028 44.7881 9.4719 44.701 9.37631C44.6011 9.26645 44.527 9.08241 44.4085 9.04959C44.1845 8.98681 44.1046 8.87553 44.069 8.66152C44.0547 8.57735 43.9292 8.46321 43.8421 8.44894C43.6238 8.4147 43.5083 8.33908 43.4769 8.09939C43.4641 8.00238 43.3114 7.91677 43.2101 7.84401C43.1573 7.80549 43.0189 7.80834 43.0175 7.78837C42.9875 7.17345 42.1557 7.28901 42.0544 6.68979L42.0502 6.69835Z" fill="white"/>
<path d="M58.8966 34.9665C59.0317 34.9549 59.1511 34.936 59.2704 34.936C61.1907 34.9393 63.1101 34.9442 65.0303 34.9533C65.2551 34.9541 65.4783 34.936 65.6504 35.169C65.7311 35.2777 65.9411 35.2909 66.1774 35.3798C66.2153 35.4144 66.1675 35.6046 66.4013 35.6557C66.5899 35.696 66.7982 35.9299 66.874 36.1258C66.9432 36.3062 67.0411 36.3457 67.1902 36.3844C67.2124 36.5219 67.2322 36.657 67.2569 36.7904C67.2692 36.8562 67.2783 36.9666 67.3129 36.9764C67.6365 37.0703 67.5566 37.342 67.5616 37.5553C67.5747 38.1029 67.5648 38.6513 67.5599 39.1997C67.5591 39.3315 67.5747 39.4599 67.401 39.5373C67.3203 39.5735 67.2618 39.7308 67.2503 39.8395C67.2215 40.1047 67.1317 40.3047 66.9415 40.5164C66.7735 40.7033 66.6385 40.8713 66.3865 40.9314C66.3231 40.9462 66.2787 41.0384 66.2227 41.0919C66.1765 41.1364 66.1255 41.2097 66.0761 41.2105C65.9081 41.2122 65.8208 41.3085 65.7023 41.4106C65.5705 41.5242 65.3613 41.5481 65.1522 41.6231C65.1489 41.6725 65.1333 41.8149 65.1382 41.8157C65.4379 41.8586 65.4898 42.1698 65.6693 42.3353C65.9065 42.5544 66.2564 42.7561 66.2136 43.1629C66.5076 43.3621 66.7604 43.5713 66.9069 43.8858C66.93 43.9361 67.0025 43.9641 67.0527 44.0011C67.1111 44.0456 67.2141 44.0826 67.2215 44.1337C67.2421 44.2786 67.2964 44.3544 67.4471 44.37C67.485 44.3741 67.55 44.4425 67.5467 44.4754C67.5196 44.7307 67.7518 44.6837 67.8893 44.7653C67.9033 44.9275 67.9206 45.0897 67.9288 45.2527C67.9305 45.289 67.9016 45.3268 67.8802 45.3812H65.8859C65.778 45.3186 65.8291 45.051 65.5878 45.0741C65.5532 45.0773 65.5112 44.9514 65.4651 44.8904C65.4198 44.8303 65.3745 44.743 65.3144 44.7282C65.1893 44.6977 65.1316 44.6426 65.1044 44.5158C65.0913 44.4557 65.0065 44.4104 64.9529 44.361C64.8994 44.3107 64.7998 44.2663 64.7965 44.2136C64.785 44.0563 64.7133 43.9954 64.5659 43.9929C64.5412 43.9929 64.4951 43.9698 64.4968 43.9608C64.5264 43.6668 64.1484 43.6553 64.1106 43.4033C64.1032 43.3514 64.029 43.279 63.9763 43.2699C63.8108 43.2427 63.8232 43.1036 63.7664 43.0015C63.6881 42.8598 63.7063 42.6293 63.4568 42.6276C63.3958 42.3345 62.9825 42.2983 62.9989 41.9277H60.97C60.9601 42.0694 60.9412 42.2135 60.9404 42.3576C60.9371 43.153 60.942 43.9484 60.9371 44.7439C60.9362 44.9324 60.9099 45.1202 60.8934 45.331C60.2273 45.4594 59.5875 45.382 58.9007 45.3911C58.8867 45.2289 58.8637 45.0848 58.8637 44.9398C58.8612 41.7169 58.8612 38.494 58.8637 35.2711C58.8637 35.1781 58.8818 35.0859 58.8941 34.9689L58.8966 34.9665ZM60.9716 36.6957C60.9601 36.8299 60.9445 36.9237 60.9445 37.0184C60.9428 37.8402 60.9412 38.6628 60.9445 39.4846C60.9461 39.8832 60.9807 39.9202 61.3998 39.9243C62.0709 39.9309 62.7428 39.9416 63.4139 39.9219C63.9582 39.9062 64.5017 39.8477 64.9908 39.8123C65.0979 39.6617 65.153 39.4986 65.2345 39.4846C65.4717 39.4443 65.4766 39.2672 65.4832 39.1165C65.503 38.6398 65.498 38.1622 65.5005 37.6846C65.5022 37.3486 65.2263 37.1461 65.0106 37.044C64.8286 36.9583 64.8294 36.7961 64.7026 36.6957H60.9733H60.9716Z" fill="white"/>
<path d="M44.5748 45.3795H42.8859C42.783 44.9291 42.8464 44.4787 42.8365 44.0332C42.8258 43.5672 42.834 43.1003 42.834 42.6342V41.2295C41.0826 41.1726 39.3773 41.2155 37.625 41.1998V45.3713H35.8736C35.8588 45.2379 35.8308 45.1078 35.8308 44.9769C35.8283 41.74 35.8283 38.5031 35.8291 35.2662C35.8291 35.1847 35.8431 35.1031 35.8563 34.9615C36.4203 34.9146 36.9868 34.9417 37.6077 34.9467V39.1561C39.3666 39.161 41.0702 39.161 42.8283 39.1561V34.9632H44.5756V45.3787L44.5748 45.3795Z" fill="white"/>
<path d="M32.3829 40.1285C32.1688 40.1903 32.0675 40.35 32.0461 40.5691C32.0305 40.7255 32 40.8663 31.7942 40.8811C31.7587 40.8836 31.734 40.989 31.6978 41.0417C31.6566 41.1018 31.613 41.199 31.5611 41.2056C31.4137 41.2245 31.333 41.278 31.3314 41.4328C31.3314 41.4575 31.3133 41.502 31.3017 41.5028C30.9386 41.5226 30.7855 41.9812 30.3721 41.9277C30.2049 41.9063 30.0114 41.931 29.883 42.1435C29.8262 42.2373 29.5841 42.2406 29.4243 42.2456C28.8487 42.2629 28.2723 42.2653 27.6968 42.2694C27.2719 42.2727 26.8462 42.2662 26.4213 42.2719C26.2327 42.2744 26.0442 42.295 25.8301 42.309C25.7576 43.3424 25.8655 44.3535 25.7625 45.3754H24.0547C24.0407 45.2074 24.0169 45.0485 24.0169 44.8896C24.0144 41.6939 24.0144 38.499 24.0169 35.3032C24.0169 35.197 24.0366 35.0908 24.0523 34.9294C26.2311 34.9475 28.3909 34.8932 30.5434 34.9706C30.6043 35.09 30.6471 35.1731 30.6652 35.2077C30.8991 35.3074 31.1988 35.3419 31.2639 35.4836C31.3635 35.7018 31.6212 35.6738 31.7102 35.9241C31.7892 36.1473 32.0675 36.3021 32.1062 36.5985C32.1145 36.6644 32.2701 36.7105 32.3771 36.778C32.392 37.0538 32.4051 37.3404 32.4233 37.6261C32.4356 37.8229 32.3887 38.0271 32.6316 38.1581C32.7576 38.2256 32.7477 38.6126 32.6159 38.7238C32.4397 38.8728 32.4455 39.054 32.434 39.2433C32.4167 39.5307 32.401 39.8181 32.3829 40.1269V40.1285ZM30.6603 37.7908C30.2939 37.7027 30.3424 37.3462 30.2074 37.128C29.9727 36.9946 29.6236 37.081 29.566 36.6957C28.3168 36.6998 27.0866 36.6644 25.849 36.7162C25.8309 36.8233 25.8111 36.8883 25.8111 36.9542C25.8086 37.9695 25.8062 38.9848 25.8111 40.0001C25.8111 40.145 25.8539 40.2891 25.8753 40.425C26.0112 40.4538 26.1051 40.49 26.1981 40.49C27.0899 40.4933 27.9809 40.4925 28.8726 40.4859C28.9789 40.4859 29.132 40.4785 29.1822 40.4126C29.3774 40.1582 29.6697 40.2092 29.9266 40.1384C29.9801 40.0042 29.9686 39.8263 30.1868 39.8239C30.2329 39.8239 30.2799 39.7143 30.3219 39.6526C30.3573 39.5999 30.3795 39.5003 30.4199 39.4937C30.6768 39.45 30.6512 39.2458 30.6562 39.0787C30.6685 38.6678 30.6603 38.2561 30.6603 37.7908Z" fill="white"/>
<path d="M1.10498 36.4058C1.22026 36.3465 1.40965 36.3737 1.41706 36.1547C1.4187 36.1044 1.51752 36.0534 1.57845 36.0114C1.60974 35.9891 1.68796 35.9916 1.68961 35.976C1.72584 35.6672 2.05851 35.6762 2.2092 35.4885C2.27342 35.4086 2.38129 35.3386 2.48093 35.3181C2.65632 35.2818 2.81606 35.2777 2.89594 35.0611C2.92064 34.9936 3.11003 34.9722 3.22778 34.9574C3.46822 34.9277 3.72513 34.9615 3.86182 34.6791C3.88323 34.6346 4.01004 34.6256 4.08826 34.6247C4.96521 34.6214 5.84299 34.6239 6.71994 34.6247C6.84593 34.6247 6.92498 34.6881 7.02791 34.7672C7.17448 34.88 7.39433 34.9055 7.58701 34.95C7.78134 34.9944 8.02261 34.9525 8.03167 35.2579C8.17906 35.281 8.31328 35.3032 8.4475 35.323C8.56031 35.3403 8.65418 35.3633 8.68382 35.505C8.69617 35.5634 8.78346 35.6112 8.84357 35.654C8.89627 35.6911 9.00743 35.7133 9.00825 35.7446C9.01484 35.9719 9.21411 36.0344 9.36809 36.1522C9.24211 36.3276 8.99013 36.3844 9.01072 36.6306C8.69288 36.5878 8.75134 37.0357 8.4582 37.0547C8.3948 37.0588 8.34374 37.2424 8.27211 37.3692C8.12307 37.361 7.96085 37.3519 7.76488 37.3412C7.80934 36.9419 7.23623 37.1205 7.25846 36.7319C7.06825 36.7146 6.90604 36.6998 6.743 36.6858C6.53055 36.6668 6.30411 36.6998 6.16742 36.4618C6.13778 36.4107 6.02085 36.3943 5.94263 36.3918C5.65525 36.3827 5.36705 36.3844 5.07967 36.3852C5.02615 36.3852 4.95204 36.3819 4.9224 36.4124C4.63502 36.7129 4.24883 36.6734 3.87829 36.7146C3.83794 36.8035 3.80006 36.8875 3.76054 36.9756C3.58185 37.0069 3.40811 37.0374 3.22284 37.0695C3.1232 37.1683 3.17837 37.4112 2.93546 37.4022C2.891 37.4005 2.80371 37.482 2.80371 37.5257C2.80371 37.7348 2.64644 37.7554 2.49328 37.7958C2.46117 37.9851 2.42905 38.1729 2.392 38.387C2.14579 38.3952 2.12603 38.569 2.10215 38.7765C1.9984 39.6789 2.01322 40.5806 2.10709 41.4814C2.12438 41.6478 2.09474 41.8495 2.34094 41.9055C2.38129 41.9145 2.42246 42.0117 2.42576 42.071C2.43317 42.2102 2.51798 42.2637 2.61185 42.3518C2.75101 42.4835 2.82183 42.6877 2.93958 42.8911C3.12073 42.9702 3.40482 42.9628 3.49622 43.2518C3.86676 43.3531 4.11131 43.7244 4.56914 43.6717C5.04261 43.6174 5.52762 43.6759 6.00685 43.6627C6.26376 43.6553 6.56349 43.7269 6.715 43.3992C6.73312 43.3597 6.84181 43.3663 6.90439 43.3407C7.09049 43.2666 7.36304 43.3481 7.42892 43.0418C7.43715 43.0015 7.57302 42.9867 7.65124 42.9636C7.81016 42.9167 8.00532 42.957 8.05637 42.7026C8.07942 42.5889 8.30669 42.6062 8.33551 42.733C8.37174 42.8944 8.43844 42.9677 8.59901 42.9817C8.63359 42.985 8.68794 43.0558 8.68876 43.0962C8.69205 43.2534 8.77687 43.3086 8.91768 43.3308C8.9605 43.3374 9.02884 43.3959 9.02801 43.4288C9.01978 43.6816 9.25199 43.6619 9.41173 43.7459C9.39115 43.9303 9.37138 44.1016 9.35245 44.2671C9.09965 44.3593 8.8271 44.3651 8.72334 44.6409C8.37833 44.6804 8.24905 45.1506 7.84557 45.0806C7.79946 45.0724 7.71629 45.0979 7.69982 45.1309C7.55407 45.4306 7.2774 45.3927 7.02543 45.3944C5.9698 45.4001 4.91416 45.4018 3.85853 45.3952C3.60326 45.3935 3.34059 45.4001 3.1619 45.1407C3.11662 45.0749 2.95769 45.0946 2.86053 45.0535C2.71231 44.9909 2.47763 45.0551 2.45211 44.7933C2.44964 44.771 2.41835 44.7331 2.40188 44.7348C2.06921 44.7554 1.98605 44.3758 1.70526 44.3025C1.6155 44.2786 1.51587 44.1749 1.47881 44.0843C1.36765 43.8126 1.01193 43.7154 0.992169 43.3761C0.989699 43.3333 0.832421 43.2996 0.746784 43.2617C0.686399 42.9098 0.567549 42.6823 0.390238 42.5791C0.377886 42.4144 0.372949 42.2357 0.347423 42.0611C0.330131 41.9409 0.319424 41.7787 0.242021 41.7169C0.0106376 41.5325 0.0254624 41.2879 0.0238155 41.0475C0.0180515 40.3896 0.0172287 39.7316 0.0295801 39.0737C0.0336973 38.8234 0.00405178 38.555 0.284841 38.3862C0.348245 38.3483 0.343305 38.1869 0.357303 38.0807C0.391887 37.8303 0.336716 37.5479 0.643855 37.4071C0.684203 37.3882 0.687498 37.2869 0.706437 37.2226C0.725376 37.1584 0.722905 37.0769 0.762429 37.0316C1.03663 36.7138 1.0391 36.7162 1.10909 36.4017L1.10498 36.4058Z" fill="white"/>
<path d="M14.5178 39.8329C14.4643 39.8082 14.2757 39.828 14.2914 39.6015C14.2955 39.5398 14.2115 39.4723 14.167 39.4072C14.0929 39.2977 13.9883 39.1981 13.9521 39.077C13.9085 38.9304 13.9159 38.7765 13.7092 38.7551C13.6746 38.7518 13.6441 38.6818 13.617 38.639C13.5478 38.5294 13.4762 38.4199 13.4152 38.3055C13.3279 38.1416 13.2497 37.9736 13.141 37.7513C13.1213 37.7439 13.034 37.7134 12.945 37.6821C12.8825 37.4442 12.8858 37.1815 12.6198 37.0506C12.577 37.03 12.5696 36.9336 12.549 36.871C12.5366 36.8323 12.5383 36.7607 12.521 36.7574C12.2015 36.6858 12.2435 36.3745 12.1117 36.1794C11.9989 36.0122 11.8186 35.8969 11.775 35.673C11.7667 35.631 11.6333 35.6128 11.5304 35.5733C11.5164 35.3881 11.5016 35.1904 11.4818 34.936C11.756 34.936 11.9849 34.936 12.2138 34.936C12.5292 34.936 12.8446 34.936 13.16 34.936C13.7331 34.9376 13.8665 35.0455 13.9924 35.6104C14.0789 35.6458 14.1645 35.6804 14.2469 35.7141C14.2765 35.9043 14.3045 36.0797 14.3342 36.2741C14.4132 36.3062 14.4989 36.3416 14.5021 36.3424C14.638 36.5425 14.7352 36.6767 14.8241 36.8167C14.8818 36.9081 14.955 37.002 14.9707 37.1033C14.997 37.2638 15.025 37.3915 15.2144 37.4318C15.2556 37.4409 15.2894 37.5347 15.3075 37.5948C15.3462 37.7258 15.3733 37.86 15.4087 38.0082C15.5405 38.0683 15.734 38.0881 15.6937 38.3236C15.6871 38.3639 15.7299 38.4413 15.7669 38.4553C15.9884 38.5352 15.9934 38.7419 16.0634 38.9156C16.0905 38.984 16.1663 39.0325 16.2009 39.0688C16.3755 38.8399 16.522 38.6538 16.6604 38.4619C16.6982 38.4092 16.7015 38.3326 16.7386 38.2791C16.8045 38.1819 16.8835 38.093 17.0218 38.0395C17.0498 37.9069 17.0663 37.7711 17.1108 37.6442C17.138 37.5668 17.2063 37.5026 17.2606 37.4376C17.3092 37.3799 17.4121 37.3256 17.4097 37.2745C17.3949 37.0489 17.5472 37.0053 17.7119 36.9872C17.7456 36.7871 17.7753 36.6133 17.8082 36.4149C17.9186 36.3449 18.1401 36.3688 18.1195 36.1275C18.1145 36.0707 18.2068 36.0056 18.2529 35.943C18.3146 35.8599 18.3838 35.7808 18.4332 35.6911C18.5213 35.5305 18.4439 35.2538 18.7601 35.2472C18.7897 35.2472 18.8161 35.0793 18.8499 34.9689H21.1884C21.1933 35.0653 21.2164 35.1797 21.1975 35.188C20.9669 35.2794 20.9488 35.5527 20.7964 35.6721C20.5791 35.8434 20.5626 36.0567 20.5082 36.2946C20.4284 36.3218 20.3411 36.3523 20.2357 36.3885C20.1986 36.5269 20.239 36.7187 20.0216 36.778C19.9689 36.792 19.9434 36.9073 19.9047 36.9764C19.8174 37.1304 19.852 37.3733 19.5868 37.4013C19.5564 37.4046 19.5094 37.4886 19.5127 37.5323C19.5259 37.7439 19.3719 37.7702 19.2146 37.8056C19.1768 37.9942 19.1397 38.1803 19.1018 38.3722C18.9668 38.4224 18.784 38.4232 18.8136 38.6422C18.8169 38.6678 18.8087 38.7147 18.7963 38.7188C18.4777 38.8168 18.5485 39.2104 18.3797 39.3323C18.1639 39.4879 18.1779 39.8436 17.8593 39.8675C17.8486 39.8675 17.8313 39.8832 17.8305 39.893C17.8066 40.2125 17.5571 40.4167 17.4402 40.6794C17.3636 40.8507 17.2615 40.8861 17.0976 40.9561C17.0976 41.6865 17.0976 42.4251 17.0976 43.1637C17.0976 43.9023 17.0976 44.6129 17.0976 45.3688H15.3486C15.3363 45.1523 15.3149 44.9365 15.3141 44.7216C15.3108 43.652 15.3182 42.5824 15.3075 41.5127C15.305 41.2649 15.3569 41.0318 15.0613 40.812C14.806 40.6218 14.7146 40.2101 14.5194 39.8362L14.5178 39.8329Z" fill="white"/>
<path d="M55.7107 39.1643V40.882H50.2143C50.1155 41.6955 50.1739 42.4811 50.1707 43.3086C50.36 43.3168 50.5198 43.3292 50.6795 43.33C52.2152 43.3317 53.7509 43.33 55.2866 43.3317C55.8416 43.3317 56.0343 43.5309 56.0359 44.0983C56.0368 44.4804 56.0359 44.8624 56.0359 45.2881C55.8342 45.3293 55.667 45.3935 55.4991 45.3935C53.1959 45.3993 50.892 45.3968 48.5888 45.3952C48.5485 45.3952 48.5081 45.3828 48.4176 45.368C48.3978 45.2379 48.3575 45.0955 48.3566 44.953C48.3525 43.1159 48.3542 41.278 48.3566 39.441C48.3566 39.3611 48.3772 39.282 48.3871 39.2112C48.7099 39.119 54.781 39.0811 55.7115 39.1643H55.7107Z" fill="white"/>
<path d="M54.3759 50.2518C54.2976 49.7652 54.3034 49.7059 54.473 49.3288H67.8109C67.9929 49.6219 68.0678 49.9101 67.9254 50.2518H54.375H54.3759Z" fill="white"/>
<path d="M0 50.2328C0.0197623 49.9463 0.0403488 49.6548 0.0625814 49.3295C0.298082 49.318 0.485004 49.3016 0.672745 49.3016C4.7586 49.2999 8.84528 49.3007 12.9311 49.3007C13.6039 49.3007 13.7677 49.5214 13.6105 50.2139C13.3214 50.2913 0.601103 50.3177 0 50.2328Z" fill="white"/>
<path d="M56.0056 36.6636H48.4028V34.9772C48.5156 34.9632 48.6317 34.9376 48.747 34.9368C50.995 34.9343 53.2421 34.9343 55.4901 34.9368C55.6523 34.9368 55.8153 34.9615 55.9693 34.9739C56.0681 35.2785 56.0879 36.1176 56.0047 36.6627L56.0056 36.6636Z" fill="white"/>
<path d="M43.5075 48.8734C43.5289 48.6971 43.5421 48.5753 43.5586 48.4534C43.566 48.3999 43.5643 48.3093 43.5923 48.2986C43.9497 48.1553 43.8501 47.8045 43.9423 47.5377C44.3672 47.3689 44.7929 47.3829 45.2433 47.5122C45.3116 47.7774 45.2458 48.1273 45.6114 48.2303C45.6353 48.4295 45.6558 48.6057 45.6805 48.8124C46.0857 48.8948 45.9539 49.2505 46.0124 49.5477C46.2306 49.5971 46.3203 49.7569 46.3286 49.9817C46.3327 50.0871 46.3319 50.2452 46.3945 50.2855C46.6407 50.4453 46.6555 50.6808 46.6802 50.9295C46.6909 51.034 46.7181 51.1872 46.7889 51.2275C47.1108 51.4095 47.0005 51.687 46.998 51.9769H46.3763C46.2965 51.8953 46.2051 51.8031 46.1161 51.7092C46.0733 51.664 46.0148 51.622 45.9967 51.5676C45.8535 51.1485 45.6674 51.0011 45.2507 50.9986C44.8398 50.9962 44.4289 50.9962 44.018 50.9986C43.7924 51.0003 43.5495 50.95 43.4194 51.2284C43.3922 51.2868 43.2844 51.3082 43.2226 51.342C43.1353 52.0221 43.0135 52.0938 42.1703 51.9612C42.162 51.7051 42.0715 51.4424 42.4099 51.2761C42.4873 51.2382 42.4881 51.0291 42.5112 50.8965C42.5342 50.7656 42.5326 50.6577 42.6866 50.5647C42.792 50.5021 42.8241 50.2872 42.8521 50.134C42.8883 49.9331 42.8792 49.7388 43.0999 49.6087C43.1798 49.5609 43.1888 49.3682 43.202 49.239C43.2218 49.0446 43.2778 48.8931 43.505 48.8734H43.5075ZM44.8785 48.5975C44.531 48.5983 44.3087 48.7836 44.2519 49.0644C44.2198 49.22 44.2041 49.4325 44.1004 49.5099C43.8229 49.7157 43.8904 49.9693 43.8912 50.2452H45.3116C45.2762 49.9413 45.3528 49.6581 45.086 49.4366C44.9963 49.3616 44.9691 49.197 44.9395 49.0669C44.9057 48.9228 44.8999 48.7712 44.8793 48.5967L44.8785 48.5975Z" fill="white"/>
<path d="M22.599 49.519C22.622 49.3321 22.6327 49.1946 22.6575 49.0604C22.669 48.997 22.697 48.894 22.7349 48.8858C22.9975 48.8273 22.9695 48.6025 22.9967 48.428C23.0313 48.2089 23.0412 48.0072 23.2618 47.8623C23.3491 47.8055 23.3541 47.6243 23.3994 47.4917C23.8177 47.4012 24.2343 47.3575 24.6938 47.5683C24.716 47.7305 24.7424 47.9306 24.7737 48.1612C24.9878 48.2032 25.0775 48.3605 25.0824 48.5877C25.0849 48.6923 25.0874 48.8512 25.15 48.8916C25.397 49.0513 25.4036 49.2885 25.4382 49.5355C25.4596 49.6854 25.4571 49.8723 25.6671 49.9357C25.7099 49.9489 25.7437 50.0394 25.756 50.0995C25.7873 50.2461 25.8038 50.3968 25.8301 50.573C26.0862 50.5969 26.12 50.7937 26.1373 51.0086C26.1496 51.1634 26.1348 51.3042 26.3225 51.4228C26.4411 51.4977 26.4452 51.753 26.516 51.9753H25.5057C25.4637 51.762 25.4266 51.5759 25.3954 51.4137C25.2587 51.296 25.1343 51.1889 25.01 51.0819C24.2771 50.9987 23.5146 50.9666 22.7357 51.0374C22.6846 51.2449 22.6385 51.4286 22.5866 51.6385C22.4615 51.7093 22.221 51.7093 22.3141 51.9893H21.6298C21.6273 51.6179 21.4915 51.2499 21.8892 50.9823C21.9592 50.9345 21.9493 50.755 21.9592 50.6339C21.9756 50.4404 22.0358 50.2881 22.2424 50.2708C22.3577 49.9991 22.1543 49.6088 22.6006 49.5198L22.599 49.519ZM24.7901 50.2758C24.7267 50.0221 24.7383 49.7545 24.6246 49.6812C24.3858 49.5281 24.4163 49.3165 24.3858 49.1147C24.3414 48.8175 24.054 48.7434 23.8967 48.5507C23.8802 48.5301 23.7963 48.563 23.7271 48.5745C23.7032 48.7837 23.681 48.9854 23.6563 49.2086C23.4027 49.2456 23.3673 49.4441 23.3483 49.6574C23.3384 49.7652 23.3162 49.8715 23.2989 49.9777C23.2635 50.1975 23.3014 50.2667 23.5097 50.2725C23.9033 50.284 24.2977 50.2758 24.7901 50.2758Z" fill="white"/>
<path d="M31.6056 50.2362C31.4961 50.2576 31.3759 50.2807 31.2557 50.3054C31.2021 50.3161 31.1165 50.3128 31.1017 50.3432C30.9065 50.7385 30.5393 50.5845 30.2387 50.61C29.9258 50.6364 29.6096 50.6158 29.272 50.6158C29.0645 51.0539 29.3173 51.6088 28.8282 51.9819H28.2411V47.4571C28.3844 47.4357 28.5178 47.3962 28.6495 47.3995C29.4853 47.4209 30.3211 47.4489 31.1569 47.481C31.4533 47.4925 31.5439 47.7774 31.7234 47.9421C31.7678 47.9825 31.7637 48.1101 31.8016 48.1191C32.1071 48.1966 32.0445 48.4403 32.0527 48.6486C32.0602 48.8545 32.0527 49.0603 32.0527 49.2662C32.0527 49.5066 32.0149 49.7199 31.7975 49.8813C31.711 49.9447 31.683 50.0871 31.6073 50.2362H31.6056ZM30.9247 48.2789C30.9238 48.2427 30.923 48.2056 30.9214 48.1694C30.4438 48.1694 29.967 48.1718 29.4894 48.1686C29.2893 48.1669 29.1757 48.2509 29.1749 48.4559C29.1732 48.7565 29.1691 49.0579 29.1823 49.3576C29.1905 49.547 29.3 49.6573 29.5009 49.6548C29.9909 49.6474 30.4849 49.7092 30.8925 49.5873C31.044 49.3856 31.1569 49.2357 31.2985 49.048V48.745C31.1429 48.5514 31.0342 48.4156 30.9247 48.2797V48.2789Z" fill="white"/>
<path d="M17.1709 47.4934C17.3834 47.4407 17.6913 47.5559 17.8074 47.2192C18.2414 47.2159 18.6745 47.2117 19.1084 47.2085C19.2287 47.5658 19.5646 47.425 19.7894 47.5049C19.9063 47.6852 20.0175 47.8565 20.1278 48.0261C19.9821 48.1562 19.838 48.2855 19.6914 48.4156C19.0022 47.9792 18.2554 48.1109 17.4813 48.2443C17.4468 48.423 17.3891 48.6091 17.1429 48.5712C16.9774 49.253 16.9321 49.9134 17.124 50.5993C17.2154 50.6586 17.4163 50.6413 17.4048 50.8546C17.4039 50.8777 17.427 50.9238 17.4385 50.9238C17.7251 50.9164 17.8264 51.2597 18.089 51.2737C18.3599 51.2877 18.6325 51.2729 18.9042 51.2597C18.966 51.2564 19.0648 51.2251 19.0813 51.1815C19.199 50.8752 19.4757 50.9995 19.684 50.9551C19.7417 50.9427 19.8676 51.0102 19.8783 51.0596C19.9105 51.2062 19.978 51.2869 20.1097 51.3627C20.2357 51.4351 20.1921 51.585 20.048 51.6369C19.9969 51.655 19.9409 51.6616 19.8866 51.6657C19.6774 51.6805 19.5226 51.7678 19.4757 51.9975H17.4657C17.3949 51.6179 17.0729 51.6978 16.7962 51.6344C16.7279 51.5068 16.737 51.305 16.5064 51.2564C16.4356 51.2416 16.3952 51.03 16.3623 50.9024C16.3302 50.7747 16.3672 50.6232 16.1655 50.5919C16.1186 50.5845 16.0576 50.4709 16.056 50.405C16.0445 49.9258 16.0379 49.4457 16.0519 48.9665C16.0552 48.8545 16.1202 48.7161 16.2026 48.6404C16.3005 48.5506 16.3606 48.4724 16.3755 48.3382C16.3829 48.2731 16.4553 48.2106 16.508 48.1562C16.7139 47.9462 16.9239 47.7412 17.1717 47.4942L17.1709 47.4934Z" fill="white"/>
<path d="M48.8623 47.5518C49.1603 47.4524 49.4675 47.4492 49.7837 47.5419C49.7837 47.6778 49.7837 47.826 49.7837 47.9742C49.7837 48.8512 49.782 49.7281 49.7845 50.6059C49.7862 51.0308 49.8059 51.0497 50.225 51.0547C50.6088 51.0596 50.9925 51.0547 51.3762 51.0563C51.8299 51.0596 51.9526 51.1905 51.937 51.6541C51.9337 51.7496 51.9188 51.8443 51.9065 51.9703C51.8003 51.9827 51.6965 52.0057 51.5919 52.0057C50.8517 52.009 50.1114 52.0082 49.372 52.0066C49.2904 52.0066 49.2081 51.9991 49.1266 51.9917C48.9141 51.972 48.817 51.8625 48.8186 51.641C48.8269 50.2979 48.8285 48.9558 48.8326 47.6127C48.8326 47.6012 48.8442 47.5889 48.8631 47.5518H48.8623Z" fill="white"/>
<path d="M40.6707 47.6581C40.548 47.8269 40.4393 47.9759 40.3142 48.1488C40.0169 48.162 39.6917 48.176 39.3228 48.1925C39.3096 48.3613 39.2882 48.5054 39.2882 48.6495C39.2849 49.3897 39.2791 50.1292 39.2898 50.8694C39.2956 51.2696 39.3129 51.6649 38.9456 51.9901H38.3462V48.1982C37.8678 48.1785 37.4289 48.1595 36.9628 48.1398C36.9505 47.9043 36.9406 47.705 36.9282 47.467C37.1143 47.444 37.2716 47.4094 37.4297 47.4086C38.2655 47.4028 39.1013 47.4069 39.937 47.4053C40.203 47.4053 40.455 47.439 40.6715 47.6581H40.6707Z" fill="white"/>
<path d="M34.7899 51.9908H34.1435C34.1254 50.4799 34.1385 48.9845 34.1352 47.4505H34.766C34.864 47.7642 34.8846 51.3963 34.7907 51.9908H34.7899Z" fill="white"/>
</svg>
