<svg width="240" height="115" viewBox="0 0 240 115" fill="none" xmlns="http://www.w3.org/2000/svg">
<path d="M239.494 29.4692C237.249 41.7042 235.004 53.9342 232.749 66.2042H181.669C179.429 53.9742 177.189 41.7442 174.879 29.1292C182.014 35.1592 188.859 40.9492 195.819 46.8342C199.594 43.2242 203.334 39.6442 207.179 35.9642C210.124 38.7792 213.029 41.5592 216.014 44.4142C214.754 45.5242 213.599 46.5892 212.369 47.5592C212.174 47.7142 211.519 47.5342 211.254 47.3042C209.904 46.1342 208.614 44.8992 207.189 43.5842C204.789 45.7992 202.424 47.9842 199.924 50.2842C202.394 52.3842 204.754 54.3942 207.184 56.4592C217.909 47.3742 228.569 38.3492 239.229 29.3242C239.319 29.3742 239.404 29.4192 239.494 29.4692ZM206.674 62.2142C206.729 62.1342 206.784 62.0542 206.834 61.9742C199.019 55.6342 191.199 49.2942 183.384 42.9542C183.289 43.0142 183.199 43.0792 183.104 43.1392C183.799 47.6942 184.494 52.2492 185.229 57.0742C186.984 55.3942 188.504 53.9442 190.064 52.4492C191.424 53.5342 192.699 54.5542 194.019 55.6092C191.594 57.8342 189.314 59.9242 186.824 62.2142H206.669H206.674ZM207.419 62.0542H227.484C224.979 59.7592 222.699 57.6692 220.329 55.4992C221.724 54.3942 222.984 53.3992 224.304 52.3542C225.939 53.9142 227.489 55.3992 229.239 57.0642C229.964 52.2292 230.649 47.6392 231.334 43.0442C231.234 42.9942 231.134 42.9442 231.029 42.8892C223.244 49.2042 215.454 55.5242 207.419 62.0442V62.0542Z" fill="white"/>
<path d="M39.4489 113.789C37.5389 113.789 35.6689 113.829 33.8089 113.754C33.4589 113.739 33.0539 113.304 32.8089 112.969C28.5389 107.179 24.2889 101.369 20.0339 95.5642C19.8489 95.3142 19.6439 95.0742 19.2389 94.5792V113.719H12.9189V83.9342C14.9389 83.9342 16.9689 83.8892 18.9939 83.9742C19.3689 83.9892 19.7939 84.4942 20.0739 84.8642C24.2139 90.4442 28.3339 96.0342 32.4589 101.624C32.5789 101.789 32.7139 101.939 33.0839 102.399V83.9842H39.4539V113.784L39.4489 113.789Z" fill="white"/>
<path d="M199.784 102.739C201.889 106.294 204.044 109.929 206.334 113.789C203.854 113.789 201.624 113.829 199.399 113.744C199.049 113.729 198.614 113.199 198.394 112.809C196.859 110.094 195.329 107.374 193.889 104.604C193.349 103.564 192.744 103.004 191.504 103.154C190.564 103.269 189.594 103.179 188.529 103.179V113.679H182.174V84.1142C182.209 84.0842 182.274 83.9892 182.339 83.9892C187.584 84.0142 192.839 83.8342 198.064 84.1542C201.759 84.3792 204.414 86.5792 205.579 90.1892C206.759 93.8442 206.349 97.3242 203.559 100.159C202.544 101.189 201.139 101.834 199.784 102.739ZM188.569 89.5842V97.5442C190.984 97.5442 193.314 97.6342 195.634 97.5192C198.099 97.3942 199.584 95.7192 199.529 93.3892C199.484 91.2592 197.889 89.6792 195.534 89.5992C193.254 89.5192 190.964 89.5842 188.569 89.5842Z" fill="white"/>
<path d="M31.354 72.0542V42.4442C31.439 42.3892 31.509 42.3042 31.574 42.3042C36.529 42.2992 41.494 42.1792 46.444 42.3342C50.569 42.4642 53.844 45.1192 54.909 48.7892C56.139 53.0092 54.909 57.1242 51.679 59.4242C50.879 59.9942 49.944 60.3742 48.919 60.9292C51.074 64.5742 53.239 68.2392 55.529 72.1192C53.029 72.1192 50.759 72.1542 48.494 72.0792C48.184 72.0692 47.809 71.5342 47.604 71.1642C45.994 68.2992 44.394 65.4242 42.849 62.5242C42.464 61.8042 42.019 61.4842 41.189 61.5342C40.079 61.5992 38.964 61.5492 37.724 61.5492V72.0592H31.354V72.0542ZM37.774 55.7992C40.364 55.7992 42.894 55.9392 45.399 55.7542C47.369 55.6092 48.619 54.0442 48.729 52.1492C48.844 50.1692 47.894 48.4842 45.894 48.1892C43.224 47.7992 40.489 47.8792 37.774 47.7542V55.7992Z" fill="white"/>
<path d="M147.344 98.7842C147.414 89.7792 153.949 83.3892 163.044 83.4292C172.089 83.4692 178.604 89.9992 178.554 98.9842C178.504 108.009 171.874 114.434 162.724 114.339C153.729 114.244 147.279 107.719 147.349 98.7842H147.344ZM153.849 98.8242C153.989 99.8092 154.044 100.814 154.279 101.779C155.824 108.094 163.089 110.754 168.309 106.944C171.904 104.319 173.074 98.2342 170.829 93.8892C169.879 92.0492 168.529 90.6442 166.594 89.8592C160.119 87.2342 153.979 91.5792 153.849 98.8292V98.8242Z" fill="white"/>
<path d="M151.614 41.7842C160.614 41.7892 167.154 48.2542 167.179 57.1642C167.204 66.0992 160.579 72.7042 151.599 72.6842C142.434 72.6642 135.929 66.2042 135.954 57.1442C135.974 48.1442 142.469 41.7742 151.614 41.7842ZM160.569 57.0042C160.554 56.7592 160.544 56.3042 160.499 55.8492C159.984 50.2892 155.524 46.7842 149.999 47.5892C145.409 48.2592 142.259 52.4442 142.519 57.5792C142.694 61.0492 143.884 64.0342 147.064 65.8192C153.459 69.4042 160.614 64.8292 160.569 57.0092V57.0042Z" fill="white"/>
<path d="M1.57899 0.434208C2.90399 0.434208 4.14399 0.404208 5.38399 0.439208C9.28899 0.559208 13.244 0.364208 17.089 0.914208C23.489 1.82921 27.984 6.59921 28.929 12.7742C29.969 19.5942 27.134 25.5992 21.429 28.5642C19.294 29.6742 16.989 30.2692 14.589 30.3142C10.549 30.3842 6.51399 30.3392 2.47399 30.3792C1.71399 30.3842 1.46399 30.1342 1.46399 29.3742C1.48399 19.9642 1.47899 10.5542 1.48399 1.14421C1.48399 0.979208 1.52899 0.819208 1.57899 0.434208ZM7.81399 15.3392C7.81399 18.1292 7.83399 20.9192 7.79899 23.7042C7.78899 24.4992 8.02899 24.8292 8.86899 24.8042C10.364 24.7542 11.869 24.8492 13.364 24.7742C17.414 24.5742 20.499 22.8592 21.949 18.8992C23.654 14.2542 22.144 6.99421 14.559 6.21421C12.704 6.02421 10.814 6.17421 8.94399 6.09921C8.08399 6.06421 7.77899 6.32921 7.79399 7.21921C7.84399 9.92421 7.81399 12.6292 7.81399 15.3342V15.3392Z" fill="white"/>
<path d="M118.584 0.439199C120.484 0.439199 122.309 0.454199 124.139 0.434199C124.999 0.424199 124.899 1.0142 124.899 1.5492C124.899 4.6742 124.934 7.7992 124.884 10.9242C124.869 11.8792 125.104 12.2292 126.129 12.2192C130.289 12.1642 134.444 12.1942 138.749 12.1942C138.774 11.6692 138.814 11.2292 138.814 10.7892C138.819 7.7892 138.869 4.7892 138.789 1.7892C138.759 0.639199 139.154 0.344199 140.219 0.419199C141.419 0.504199 142.639 0.509199 143.839 0.419199C145.029 0.329199 145.419 0.714199 145.409 1.9442C145.354 8.8992 145.384 15.8592 145.384 22.8142C145.384 24.9392 145.349 27.0642 145.399 29.1892C145.424 30.1242 145.109 30.4392 144.174 30.3892C142.804 30.3192 141.424 30.3142 140.054 30.3892C139.024 30.4492 138.784 30.0342 138.799 29.0792C138.849 25.8292 138.819 22.5792 138.819 19.3292V17.9042H124.979C124.954 18.3492 124.904 18.7892 124.904 19.2242C124.899 22.5142 124.874 25.8092 124.919 29.0992C124.934 30.0592 124.679 30.4492 123.659 30.3892C122.249 30.3042 120.829 30.3442 119.409 30.3792C118.734 30.3942 118.434 30.1892 118.439 29.4642C118.459 19.9642 118.454 10.4692 118.464 0.969199C118.464 0.849199 118.519 0.729199 118.589 0.439199H118.584Z" fill="white"/>
<path d="M74.239 113.799V84.0042H95.304V89.5242H80.759V95.7192H94.964V101.414H80.719V108.119H95.374C95.374 109.904 95.414 111.559 95.324 113.204C95.314 113.419 94.614 113.764 94.229 113.769C90.649 113.814 87.064 113.794 83.484 113.794C80.449 113.794 77.414 113.794 74.239 113.794V113.799Z" fill="white"/>
<path d="M211.364 104.564C214.379 107.459 217.769 108.914 221.789 108.579C222.679 108.504 223.589 108.209 224.399 107.829C225.389 107.364 225.994 106.519 225.989 105.344C225.984 104.199 225.234 103.559 224.314 103.239C222.509 102.619 220.649 102.164 218.819 101.604C217.114 101.079 215.374 100.609 213.734 99.9292C210.749 98.6892 209.004 96.4042 208.839 93.1342C208.664 89.7692 210.149 87.1742 212.959 85.3642C218.049 82.0792 227.484 83.2192 231.799 87.7242C230.669 89.2492 229.519 90.7942 228.309 92.4292C226.029 90.4842 223.464 89.3542 220.554 89.2592C219.379 89.2192 218.154 89.4292 217.019 89.7542C215.974 90.0542 215.459 90.9542 215.464 92.0742C215.464 93.1192 216.164 93.6992 217.009 93.9792C218.779 94.5742 220.599 95.0242 222.384 95.5792C224.209 96.1492 226.079 96.6242 227.814 97.3992C234.589 100.424 233.449 109.244 228.979 111.984C227.354 112.979 225.444 113.769 223.574 114.059C218.189 114.894 213.119 113.984 208.764 110.414C208.479 110.179 208.219 109.914 207.854 109.574C209.019 107.909 210.149 106.289 211.364 104.559V104.564Z" fill="white"/>
<path d="M100.804 104.574C103.704 107.349 107.009 108.899 110.924 108.569C112.174 108.464 113.529 107.949 114.554 107.219C115.964 106.219 115.749 104.369 114.234 103.504C113.274 102.959 112.174 102.629 111.104 102.319C108.909 101.679 106.659 101.209 104.489 100.499C100.559 99.2142 98.449 96.6142 98.274 93.0792C98.094 89.4992 100.104 86.3492 103.644 84.6692C108.594 82.3192 116.744 83.5342 120.824 87.2292C120.944 87.3392 121.044 87.4742 121.254 87.7092C120.104 89.2542 118.954 90.7992 117.749 92.4142C115.129 90.2142 112.189 89.1042 108.859 89.2192C108.009 89.2492 107.134 89.4892 106.344 89.7992C105.374 90.1842 104.704 91.0692 104.949 92.0542C105.129 92.7842 105.799 93.6742 106.469 93.9492C108.194 94.6492 110.029 95.0842 111.839 95.5542C114.339 96.2092 116.869 96.8092 118.969 98.4042C123.604 101.924 122.869 109.619 117.649 112.569C112.044 115.734 102.529 114.559 97.884 110.079C97.669 109.874 97.579 109.234 97.734 108.994C98.679 107.534 99.714 106.129 100.814 104.564L100.804 104.574Z" fill="white"/>
<path d="M32.784 0.434198C34.739 0.434198 36.604 0.434198 38.474 0.434198C39.354 0.434198 39.164 1.1042 39.164 1.6042C39.174 6.9792 39.159 12.3492 39.184 17.7242C39.184 18.6342 39.259 19.5642 39.464 20.4442C40.064 23.0192 42.099 24.7792 44.719 25.0992C48.449 25.5542 51.269 24.3492 52.384 21.5842C52.854 20.4242 53.034 19.0792 53.049 17.8142C53.119 12.4392 53.099 7.0692 53.059 1.6942C53.054 0.729198 53.294 0.349198 54.309 0.409198C55.764 0.489198 57.224 0.449198 58.679 0.424198C59.324 0.414198 59.694 0.559198 59.689 1.3142C59.644 7.4342 59.869 13.5742 59.529 19.6742C59.169 26.0992 55.644 29.6792 49.294 30.6742C46.529 31.1092 43.724 31.0642 40.999 30.2592C36.169 28.8292 33.139 25.5792 32.874 20.6142C32.519 13.9742 32.789 7.3042 32.789 0.439198L32.784 0.434198Z" fill="white"/>
<path d="M86.349 42.3342C86.659 42.3092 86.904 42.2692 87.149 42.2692C91.729 42.2692 96.314 42.2242 100.894 42.2792C105.394 42.3292 109.009 45.1542 109.979 49.2592C111.079 53.9192 109.374 58.3342 105.449 60.2442C103.929 60.9842 102.124 61.2892 100.419 61.4442C98.229 61.6442 96.009 61.5392 93.804 61.4742C92.849 61.4442 92.599 61.7742 92.619 62.6892C92.674 65.3942 92.639 68.1042 92.639 70.8092V72.0792H86.354V42.3392L86.349 42.3342ZM96.644 55.8342C97.644 55.8342 98.644 55.8592 99.644 55.8292C100.949 55.7892 102.099 55.3292 102.929 54.2892C104.879 51.8492 103.364 48.3192 100.104 47.9792C97.879 47.7492 95.614 47.8642 93.364 47.9042C93.109 47.9042 92.664 48.4442 92.654 48.7442C92.589 50.7842 92.644 52.8242 92.609 54.8642C92.594 55.6442 92.904 55.8842 93.644 55.8492C94.639 55.8042 95.644 55.8392 96.644 55.8342Z" fill="white"/>
<path d="M41.3689 83.9392C43.7589 83.9392 45.9539 83.8742 48.1389 84.0042C48.5089 84.0242 48.9589 84.8292 49.1489 85.3492C50.8139 89.8742 52.4289 94.4192 54.0639 98.9592C54.9539 101.419 55.8539 103.874 56.8839 106.699C57.6589 104.554 58.3139 102.749 58.9689 100.939C60.9139 95.5392 62.8539 90.1392 64.8239 84.7492C64.9439 84.4292 65.3239 83.9792 65.5939 83.9742C67.7839 83.9092 69.9789 83.9392 72.3639 83.9392C71.3339 86.6592 70.3789 89.2142 69.4039 91.7542C66.7439 98.6642 64.0539 105.559 61.4389 112.479C61.0489 113.509 60.5539 113.879 59.4589 113.824C57.5489 113.729 55.6289 113.834 53.7139 113.764C53.3289 113.749 52.7489 113.404 52.6189 113.069C48.8789 103.464 45.1789 93.8392 41.3689 83.9392Z" fill="white"/>
<path d="M28.334 49.1442C26.549 50.0292 24.839 50.8742 23.089 51.7392C22.964 51.6392 22.799 51.5642 22.719 51.4392C20.979 48.7392 18.559 47.2642 15.299 47.4942C11.719 47.7442 9.09399 49.5242 7.55899 52.7742C4.54899 59.1642 8.45899 66.3742 15.244 66.9342C18.234 67.1792 20.559 65.8992 22.354 63.5592C22.529 63.3292 22.684 63.0842 22.854 62.8492C22.874 62.8192 22.924 62.8092 23.089 62.7192C24.759 63.5192 26.509 64.3542 28.254 65.1892C27.079 69.7342 20.509 73.1642 14.164 72.5842C6.25899 71.8592 0.468989 66.0042 0.0289888 58.3042C-0.416011 50.4542 4.29899 43.9342 11.644 42.2692C18.859 40.6342 25.279 42.9992 28.334 49.1492V49.1442Z" fill="white"/>
<path d="M110.189 20.8792C111.969 21.7492 113.714 22.6042 115.444 23.4542C114.029 28.2042 107.404 31.5042 100.879 30.7942C93.4939 29.9892 87.7889 24.2392 87.2739 17.0792C86.6939 9.02921 91.0289 2.55921 98.2989 0.62421C105.629 -1.32579 112.744 1.39421 115.554 7.36921C113.894 8.17921 112.239 9.01921 110.549 9.77421C110.359 9.85921 109.869 9.57421 109.679 9.33421C107.144 6.10921 104.239 5.06921 100.479 6.07921C97.0539 6.99921 94.4139 10.0442 93.9489 13.6742C93.4389 17.6242 94.3989 21.0592 97.7189 23.5142C101.679 26.4492 106.864 25.5642 109.699 21.5442C109.839 21.3442 109.989 21.1492 110.184 20.8842L110.189 20.8792Z" fill="white"/>
<path d="M73.029 72.0692H66.649C66.649 71.1892 66.649 70.3342 66.649 69.4792C66.649 66.6492 66.684 63.8192 66.619 60.9892C66.604 60.3292 66.379 59.5892 66.024 59.0342C62.684 53.8142 59.294 48.6292 55.919 43.4342C55.719 43.1242 55.549 42.7992 55.259 42.2942C57.679 42.2942 59.949 42.2642 62.219 42.3342C62.504 42.3442 62.839 42.8342 63.049 43.1642C65.054 46.3742 67.039 49.5992 69.029 52.8142C69.264 53.1942 69.524 53.5592 69.874 54.0892C71.474 51.5042 72.984 49.0742 74.489 46.6442C75.254 45.4042 75.999 44.1542 76.799 42.9342C76.979 42.6542 77.329 42.3042 77.604 42.2992C79.794 42.2492 81.989 42.2692 84.454 42.2692C83.504 43.7542 82.694 45.0342 81.869 46.3092C79.134 50.5342 76.379 54.7492 73.684 58.9992C73.309 59.5892 73.074 60.3692 73.064 61.0642C73.004 64.6842 73.034 68.3042 73.034 72.0742L73.029 72.0692Z" fill="white"/>
<path d="M120.179 47.8992H111.609V42.3292H135.274V47.8292H126.684V72.0592H120.184V47.8992H120.179Z" fill="white"/>
<path d="M146.679 83.9942V89.5892H138.029V113.794C136.029 113.794 134.164 113.784 132.299 113.799C131.549 113.804 131.549 113.339 131.554 112.799C131.564 110.009 131.554 107.214 131.554 104.424C131.554 99.5542 131.554 94.6792 131.554 89.6492H122.999V83.9892H146.679V83.9942Z" fill="white"/>
<path d="M77.954 30.3092H71.534V6.11421C70.599 6.11421 69.789 6.11421 68.974 6.11421C67.224 6.11421 65.474 6.08421 63.729 6.12921C62.969 6.14921 62.689 5.89421 62.719 5.12921C62.769 3.92421 62.769 2.71421 62.719 1.50921C62.684 0.694215 62.974 0.404215 63.789 0.424215C65.789 0.469215 67.784 0.439215 69.784 0.439215C74.949 0.439215 80.114 0.469215 85.274 0.414215C86.384 0.404215 86.774 0.744215 86.669 1.83921C86.584 2.70421 86.654 3.58421 86.654 4.45921C86.654 5.56255 86.1206 6.11421 85.054 6.11421C83.139 6.11421 81.224 6.11421 79.309 6.11421C78.904 6.11421 78.499 6.14921 77.959 6.17421V30.3042L77.954 30.3092Z" fill="white"/>
<path d="M1.54395 83.9942H7.78395V113.699H1.54395V83.9942Z" fill="white"/>
<path d="M182.189 69.1342H232.099C231.909 70.2092 231.779 71.1842 231.539 72.1342C231.484 72.3542 231.089 72.5542 230.814 72.6292C230.504 72.7142 230.154 72.6542 229.819 72.6542C214.704 72.6542 199.589 72.6342 184.474 72.6892C183.094 72.6942 182.494 72.3292 182.469 70.9642C182.459 70.3942 182.299 69.8242 182.184 69.1292L182.189 69.1342Z" fill="white"/>
</svg>
