<svg width="140" height="26" viewBox="0 0 140 26" fill="none" xmlns="http://www.w3.org/2000/svg">
<path d="M20.097 8.36497C20.1586 8.37617 23.6435 6.42644 23.9908 6.07907L23.3801 5.12662C22.8815 4.39827 22.8423 3.91644 23.7779 4.86329C24.384 5.03374 24.6379 5.14418 24.9793 5.29265C25.0419 5.31987 25.1074 5.34836 25.1786 5.37874C25.31 5.32695 25.5151 5.19871 25.6911 5.08863C25.7627 5.04388 25.8295 5.00213 25.8845 4.96974C26.0291 4.88864 26.1759 4.80309 26.3207 4.71869C26.406 4.669 26.4906 4.61971 26.5737 4.57195C26.7519 4.46978 26.9263 4.36493 27.0992 4.26095C27.8935 3.78329 28.6573 3.32393 29.6327 3.22731C29.8439 3.20738 30.3272 3.25831 30.7177 3.29947C30.8763 3.31617 31.0195 3.33127 31.123 3.33936C31.1549 3.34249 31.1858 3.34533 31.2157 3.3481C31.4539 3.37009 31.6342 3.38673 31.8234 3.49623C31.9858 3.59148 31.9971 3.73155 31.9466 3.86601C31.9186 3.95565 31.857 4.0453 31.7898 4.11813C31.1473 4.86586 27.3277 7.21705 25.9356 8.07395C25.8465 8.12879 25.7674 8.17751 25.6996 8.2193C25.3099 8.65717 24.841 9.22122 24.3391 9.82513C23.1455 11.2612 21.7646 12.9226 20.8141 13.6483C19.9737 14.287 19.8785 14.1357 19.4414 13.1833C19.0044 12.3093 19.6487 12.9143 20.2314 13.5979C20.4668 13.29 20.6927 12.9885 20.9258 12.6776C21.6469 11.7154 22.4356 10.6632 23.7779 9.0541C22.3811 9.63087 21.3751 9.91939 20.4534 10.1837C19.1456 10.5588 18.0075 10.8852 16.1639 11.9171C15.9342 12.6286 14.9537 12.6958 14.6175 12.0347L11.0878 10.6565C10.8917 10.8582 10.606 10.9478 10.3259 10.8974L7.59177 15.3739C7.64779 15.8782 7.2388 16.332 6.72335 16.3096C6.39279 16.2984 6.10145 16.0967 5.97819 15.7885L3.72031 14.7352C3.38415 15.105 2.80707 15.105 2.47091 14.7352L1.38959 15.5756C2.07312 18.1641 3.61386 20.3491 5.64763 21.873C8.01757 23.6491 11.0766 24.5175 14.2422 24.0637C17.4133 23.6099 20.097 21.9123 21.873 19.5367C23.6154 17.206 24.4895 14.2254 24.0917 11.1215L24.9433 10.1634C25.6268 13.6651 24.8088 17.2732 22.6686 20.1306C20.7357 22.7078 17.8223 24.5511 14.3822 25.0498C10.9478 25.5428 7.63098 24.5959 5.04815 22.6686C2.47091 20.7357 0.62763 17.8223 0.128991 14.3822C-0.364045 10.9422 0.582808 7.62541 2.51573 5.04818C4.44306 2.47094 7.35645 0.627661 10.7965 0.129022C14.2365 -0.364014 17.5533 0.582839 20.1306 2.51016C21.2847 3.37858 22.2932 4.43749 23.1 5.65327L22.2484 6.17432C21.5088 5.06499 20.59 4.09572 19.5367 3.30574C17.1611 1.52969 14.1077 0.661277 10.9366 1.11509C7.77105 1.56891 5.08737 3.26652 3.30571 5.64206C1.36718 8.23611 0.599617 11.5193 1.1935 14.7016L2.32524 13.8388C2.61658 13.1665 3.56904 13.1665 3.86598 13.8332L6.14067 14.8977C6.36478 14.6624 6.70654 14.5727 7.01469 14.6736L9.68157 10.2979C9.52469 9.75443 9.94489 9.21097 10.5164 9.23338C10.8581 9.24459 11.1607 9.46309 11.2783 9.77684L14.724 11.1159C15.0265 10.7573 15.5644 10.7125 15.9174 11.0206L18.1864 9.74323C18.0556 9.63238 17.616 9.29345 17.1287 8.9177C16.3844 8.34385 15.5288 7.68414 15.4915 7.61981C15.5888 7.5899 15.686 7.55001 15.7846 7.50952C15.9078 7.45898 16.0332 7.40751 16.1639 7.37329C16.4107 7.31046 16.7511 7.40583 17.0495 7.48946C17.1236 7.51022 17.1951 7.53026 17.262 7.54698C17.8249 7.69432 18.4159 7.8697 18.9971 8.04217C19.2778 8.12546 19.5562 8.20807 19.828 8.28653C19.8961 8.30597 19.9472 8.32225 19.987 8.33491C20.039 8.35143 20.0716 8.36179 20.097 8.36497Z" fill="white"/>
<path d="M78.7571 5.83815C75.5635 5.83815 73.1544 8.07922 73.1544 11.0374C73.1544 14.1469 75.5243 16.3264 78.9083 16.3264C79.9 16.3264 80.7908 16.1359 81.9338 15.6709L81.4688 14.4831C80.6228 14.9089 80.1745 15.0153 79.2221 15.0153C77.743 15.0153 76.8129 14.696 76.051 13.9564C75.289 13.1945 74.8464 12.1356 74.8464 10.9534C74.8464 8.73474 76.432 7.1884 78.7178 7.1884C79.3117 7.1884 79.9224 7.29485 80.365 7.44052C80.7236 7.56938 80.9141 7.69824 81.3791 8.0344L82.1411 6.80741C81.043 6.12949 80.0513 5.83815 78.7571 5.83815Z" fill="white"/>
<path d="M65.7869 10.5724C63.8203 9.61996 63.4841 9.42947 63.1872 8.98686C63.1032 8.858 63.0583 8.6675 63.0583 8.4602C63.0583 7.67583 63.8427 7.21081 65.1313 7.21081C65.5796 7.21081 66.0222 7.25002 66.5488 7.42371C67.0587 7.56938 67.2884 7.67583 67.8206 8.0344L68.3865 6.70096C67.7534 6.3648 67.5013 6.23594 67.0363 6.11268C66.4648 5.939 65.8093 5.85496 65.1537 5.85496C62.9127 5.85496 61.4728 6.93628 61.4728 8.60588C61.4728 9.68159 62.1731 10.5276 63.7139 11.2728L65.5571 12.158C66.3583 12.539 66.7001 12.9816 66.7001 13.6595C66.7001 14.5055 65.9998 15.0153 64.8176 15.0153C64.2461 15.0153 63.6522 14.8865 63.1424 14.6736C62.7446 14.5055 62.4701 14.3374 61.8314 13.8724L61.1142 15.2451C61.8314 15.6877 62.1283 15.8389 62.5541 16.007C63.1424 16.2199 63.8651 16.3264 64.6271 16.3264C66.9074 16.3264 68.3025 15.2451 68.3025 13.4466C68.3025 12.2028 67.6918 11.5025 65.7869 10.5724Z" fill="white"/>
<path d="M133.613 6.02864V16.1359H140V14.8024H135.221V6.02864H133.613Z" fill="white"/>
<path fill-rule="evenodd" clip-rule="evenodd" d="M124.778 6.02864L120.755 16.1359H122.363L123.506 13.3233H127.837L129.002 16.1359H130.587L126.57 6.02864H124.778ZM125.685 7.48534L127.394 12.0123H123.948L125.685 7.48534Z" fill="white"/>
<path d="M111.113 7.35648H114.709V16.1359H116.295V7.35648H119.886V6.02864H111.113V7.35648Z" fill="white"/>
<path d="M106.67 6.02864V16.1359H108.278V6.02864H106.67Z" fill="white"/>
<path fill-rule="evenodd" clip-rule="evenodd" d="M96.2038 6.02864V16.1359H97.8118V12.1132C98.1704 12.2196 99.1228 12.3261 99.924 12.3261C101.98 12.3261 103.414 11.015 103.414 9.13253C103.414 7.18279 102.221 6.10708 99.9856 6.02864H96.2038ZM97.8118 10.7853V7.35648H99.5486C101.151 7.35648 101.807 7.86632 101.807 9.0709C101.807 10.2363 100.983 10.9926 99.7559 10.9926C98.8259 10.9926 98.0639 10.8469 97.8118 10.7853Z" fill="white"/>
<path fill-rule="evenodd" clip-rule="evenodd" d="M87.3684 6.02864L83.3457 16.1359H84.9536L86.0966 13.3233H90.4331L91.5928 16.1359H93.1784L89.1613 6.02864H87.3684ZM86.5392 12.0123L88.276 7.48534L89.9904 12.0123H86.5392Z" fill="white"/>
<path d="M54.3686 7.35648V16.1359H55.9541V7.35648H59.5511V6.02864H50.7773V7.35648H54.3686Z" fill="white"/>
<path d="M42.7822 6.02864V16.1359H49.1693V14.8024H44.3902V11.6089H48.2393V10.2755H44.3902V7.35648H49.0404V6.02864H42.7822Z" fill="white"/>
<path d="M37.8351 16.4104V6.02864H36.2271V14.8024C36.2271 16.0911 36.059 16.8754 35.6332 17.5478C35.3587 17.9736 35.1458 18.2257 34.451 19.0101L35.5716 19.8561C36.2663 19.1557 36.524 18.842 36.8602 18.3545C37.2132 17.8335 37.4037 17.4749 37.7006 16.741C37.7209 16.6927 37.7401 16.6445 37.7597 16.5952C37.7833 16.5357 37.8075 16.4747 37.8351 16.4104Z" fill="white"/>
<path d="M61.2375 24.5231V21.1447H60.6996V24.5231H61.2375Z" fill="white"/>
<path d="M65.9605 24.5679V21.1447H65.4731V23.862C65.4563 23.7555 65.3947 23.6267 65.3386 23.5482L63.4281 21.1447H62.8903V24.5231H63.3889V21.817C63.4057 21.9122 63.4505 21.9795 63.5626 22.1308L65.4731 24.5679H65.9605Z" fill="white"/>
<path d="M70.1626 21.1447H69.5855L68.6386 23.5875C68.6114 23.6419 68.6053 23.6752 68.5947 23.7337L68.5938 23.7387C68.5938 23.6771 68.5826 23.6267 68.5602 23.5875L67.5405 21.1447H66.9634L68.4313 24.6071H68.7171L70.1626 21.1447Z" fill="white"/>
<path d="M73.3001 24.5231V24.0805H71.7033V23.0104H72.9919V22.5678H71.7033V21.5929H73.2608V21.1447H71.1654V24.5231H73.3001Z" fill="white"/>
<path d="M76.5608 21.3744L76.5512 21.3693C76.3453 21.261 76.2615 21.2168 76.107 21.1727C75.9165 21.1167 75.698 21.0887 75.4795 21.0887C74.7287 21.0887 74.2469 21.4528 74.2469 22.0075C74.2469 22.3717 74.4822 22.6518 74.9977 22.8983L75.614 23.1953C75.8829 23.3241 75.9949 23.4698 75.9949 23.6995C75.9949 23.9796 75.7596 24.1477 75.3674 24.1477C75.177 24.1477 74.9753 24.1085 74.8072 24.0357C74.6727 23.9796 74.5831 23.9236 74.3702 23.7667L74.1293 24.2262C74.3702 24.3774 74.471 24.4279 74.6111 24.4839C74.8072 24.5511 75.0481 24.5903 75.3002 24.5903C76.0678 24.5903 76.5328 24.2262 76.5328 23.6267C76.5328 23.2121 76.3255 22.9768 75.6924 22.6686C75.0313 22.3493 74.9192 22.282 74.824 22.1364C74.796 22.0915 74.7792 22.0299 74.7792 21.9571C74.7792 21.6993 75.0425 21.5425 75.4739 21.5425C75.6196 21.5425 75.7708 21.5593 75.9445 21.6153C76.1126 21.6601 76.191 21.6993 76.3703 21.817L76.5608 21.3744Z" fill="white"/>
<path d="M80.0513 21.5929V21.1447H77.1211V21.5929H78.3201V24.5231H78.8523V21.5929H80.0513Z" fill="white"/>
<path d="M84.7239 24.5231V21.1447H84.046L82.9087 23.6435C82.8646 23.7756 82.8584 23.8049 82.837 23.9069L82.8358 23.9124L82.8297 23.8725C82.813 23.7626 82.8095 23.7393 82.7742 23.6435L81.6761 21.1447H80.9925V24.5231H81.5304V21.9235C81.5584 22.1139 81.5808 22.1812 81.6649 22.3717L82.5949 24.5231H83.0207L84.0572 22.226C84.1357 22.0579 84.1525 22.0075 84.1917 21.8338V24.5231H84.7239Z" fill="white"/>
<path d="M88.5169 24.5231V24.0805H86.9202V23.0104H88.2088V22.5678H86.9202V21.5929H88.4777V21.1447H86.3823V24.5231H88.5169Z" fill="white"/>
<path d="M92.831 24.5679V21.1447H92.3436V23.862C92.3268 23.7555 92.2651 23.6267 92.2091 23.5482L90.2986 21.1447H89.7607V24.5231H90.2594V21.817C90.2762 21.9122 90.321 21.9795 90.4331 22.1308L92.3436 24.5679H92.831Z" fill="white"/>
<path d="M96.7081 21.5929V21.1447H93.7779V21.5929H94.9768V24.5231H95.5091V21.5929H96.7081Z" fill="white"/>
<path d="M101.51 21.5929V21.1447H99.4142V24.5231H99.952V23.0608H101.241V22.6182H99.952V21.5929H101.51Z" fill="white"/>
<path d="M105.487 23.1448V21.1447H104.955V23.2401C104.955 23.8564 104.641 24.1701 104.031 24.1701C103.426 24.1701 103.106 23.8564 103.106 23.2401V21.1447H102.574V23.1448C102.574 23.8172 102.709 24.1645 103.062 24.3718C103.325 24.5231 103.706 24.6239 104.031 24.6239C104.356 24.6239 104.737 24.5175 104.994 24.3718C105.353 24.1589 105.487 23.8172 105.487 23.1448Z" fill="white"/>
<path d="M110.098 24.5679V21.1447H109.605V23.862C109.594 23.7555 109.533 23.6267 109.477 23.5482L107.566 21.1447H107.028V24.5231H107.521V21.817C107.544 21.9122 107.588 21.9795 107.701 22.1308L109.605 24.5679H110.098Z" fill="white"/>
<path fill-rule="evenodd" clip-rule="evenodd" d="M114.872 22.8367C114.872 22.4109 114.67 21.8954 114.396 21.6153C114.082 21.296 113.645 21.1447 112.995 21.1447H111.751V24.5231H112.995C113.651 24.5231 114.082 24.3774 114.385 24.0581C114.681 23.7387 114.872 23.2681 114.872 22.8367ZM114.306 22.8311C114.306 23.2121 114.132 23.6155 113.863 23.834C113.628 24.0189 113.398 24.0805 112.911 24.0805H112.289V21.5929H112.95C113.426 21.5929 113.645 21.6489 113.858 21.8226C114.138 22.0579 114.306 22.4389 114.306 22.8311Z" fill="white"/>
</svg>
