<svg width="229" height="73" viewBox="0 0 229 73" fill="none" xmlns="http://www.w3.org/2000/svg">
<path fill-rule="evenodd" clip-rule="evenodd" d="M36.0346 72.0692C55.936 72.0692 72.0692 55.936 72.0692 36.0346C72.0692 16.1333 55.936 0 36.0346 0C16.1333 0 0 16.1333 0 36.0346C0 55.936 16.1333 72.0692 36.0346 72.0692ZM36.0346 55.6899C46.8899 55.6899 55.6899 46.8899 55.6899 36.0346C55.6899 25.1794 46.8899 16.3793 36.0346 16.3793C25.1794 16.3793 16.3794 25.1794 16.3794 36.0346C16.3794 46.8899 25.1794 55.6899 36.0346 55.6899Z" fill="white"/>
<path d="M72.0365 34.576L55.6862 36.2693C55.6186 37.5845 55.5301 38.921 55.2392 40.223C55.0156 41.2528 54.7114 42.2528 54.3332 43.2156C53.5237 47.1313 55.6867 51.1516 59.5556 52.5596C63.8057 54.1067 68.5053 51.9151 70.0523 47.6648C70.0607 47.6416 70.0708 47.6149 70.0789 47.5915C70.5193 46.3822 70.8904 45.1648 71.1951 43.9432C71.7648 41.3984 72.0655 38.7519 72.0655 36.0352C72.0655 35.5466 72.0558 35.0601 72.0365 34.576Z" fill="url(#paint0_linear_3515_3389)" fill-opacity="0.6"/>
<path d="M36.0346 0C55.936 0 72.0692 16.1333 72.0692 36.0346C72.0694 36.0595 72.0692 36.0878 72.0692 36.1126C72.0692 40.6357 68.4027 44.3024 63.8796 44.3024C59.3566 44.3024 55.6899 40.6357 55.6899 36.1126C55.6899 36.0879 55.6897 36.0591 55.6899 36.0346C55.6899 25.1794 46.8899 16.3793 36.0346 16.3793C25.1794 16.3793 16.3794 25.1794 16.3794 36.0346H0C0 16.1333 16.1333 0 36.0346 0Z" fill="white"/>
<path d="M81.2629 42.0324C80.8894 42.0324 80.5837 41.9135 80.3458 41.6758C80.1082 41.438 79.9893 41.1323 79.9893 40.7588V7.64225C79.9893 7.26862 80.1082 6.96292 80.3458 6.72517C80.5837 6.48741 80.8894 6.36853 81.2629 6.36853H86.6634C87.2409 6.36853 87.6484 6.50438 87.8862 6.77612C88.1579 7.01388 88.3279 7.20068 88.3958 7.33655L100.827 26.9517V7.64225C100.827 7.26862 100.946 6.96292 101.184 6.72517C101.422 6.48741 101.727 6.36853 102.101 6.36853H108.215C108.588 6.36853 108.894 6.48741 109.132 6.72517C109.37 6.96292 109.488 7.26862 109.488 7.64225V40.7588C109.488 41.0984 109.37 41.4041 109.132 41.6758C108.894 41.9135 108.588 42.0324 108.215 42.0324H102.763C102.22 42.0324 101.812 41.8965 101.54 41.6248C101.303 41.3531 101.15 41.1663 101.082 41.0643L88.6505 22.2135V40.7588C88.6505 41.1323 88.5316 41.438 88.2938 41.6758C88.0562 41.9135 87.7504 42.0324 87.3767 42.0324H81.2629Z" fill="white"/>
<path d="M117.882 42.0324C117.508 42.0324 117.203 41.9135 116.965 41.6758C116.727 41.438 116.608 41.1323 116.608 40.7588V7.64225C116.608 7.26862 116.727 6.96292 116.965 6.72517C117.203 6.48741 117.508 6.36853 117.882 6.36853H141.675C142.048 6.36853 142.354 6.48741 142.592 6.72517C142.83 6.96292 142.949 7.26862 142.949 7.64225V12.4314C142.949 12.805 142.83 13.1107 142.592 13.3485C142.354 13.5862 142.048 13.7051 141.675 13.7051H125.422V20.5832H140.554C140.928 20.5832 141.233 20.719 141.471 20.9907C141.709 21.2285 141.828 21.5341 141.828 21.9078V26.3402C141.828 26.68 141.709 26.9856 141.471 27.2573C141.233 27.4951 140.928 27.6141 140.554 27.6141H125.422V34.6959H142.082C142.456 34.6959 142.762 34.8147 143 35.0525C143.237 35.2903 143.356 35.5959 143.356 35.9696V40.7588C143.356 41.1323 143.237 41.438 143 41.6758C142.762 41.9135 142.456 42.0324 142.082 42.0324H117.882Z" fill="white"/>
<path d="M150.421 42.0324C150.048 42.0324 149.742 41.9135 149.504 41.6758C149.267 41.438 149.148 41.1323 149.148 40.7588V7.64225C149.148 7.26862 149.267 6.96292 149.504 6.72517C149.742 6.48741 150.048 6.36853 150.421 6.36853H165.961C168.882 6.36853 171.276 6.77612 173.144 7.59129C175.012 8.40647 176.388 9.57828 177.271 11.1067C178.188 12.6012 178.647 14.3844 178.647 16.4563C178.647 17.6791 178.409 18.7659 177.933 19.7171C177.492 20.6341 176.931 21.3983 176.252 22.0098C175.607 22.6211 174.995 23.0627 174.418 23.3344C175.709 23.9457 176.846 24.9477 177.832 26.3402C178.851 27.733 179.36 29.3632 179.36 31.2314C179.36 33.4731 178.851 35.4091 177.832 37.0394C176.846 38.6358 175.386 39.8755 173.45 40.7588C171.548 41.6079 169.204 42.0324 166.419 42.0324H150.421ZM158.267 35.4091H165.4C166.861 35.4091 167.965 34.9846 168.712 34.1354C169.459 33.2863 169.833 32.3182 169.833 31.2314C169.833 30.0426 169.442 29.0407 168.661 28.2254C167.914 27.4103 166.827 27.0027 165.4 27.0027H158.267V35.4091ZM158.267 20.5322H164.942C166.334 20.5322 167.37 20.1756 168.049 19.4623C168.763 18.749 169.119 17.8319 169.119 16.7111C169.119 15.6242 168.763 14.741 168.049 14.0617C167.37 13.3485 166.334 12.9918 164.942 12.9918H158.267V20.5322Z" fill="white"/>
<path d="M186.293 42.0324C185.92 42.0324 185.614 41.9135 185.376 41.6758C185.138 41.438 185.02 41.1323 185.02 40.7588V7.64225C185.02 7.26862 185.138 6.96292 185.376 6.72517C185.614 6.48741 185.92 6.36853 186.293 6.36853H193.122C193.495 6.36853 193.801 6.48741 194.039 6.72517C194.275 6.96292 194.394 7.26862 194.394 7.64225V40.7588C194.394 41.1323 194.275 41.438 194.039 41.6758C193.801 41.9135 193.495 42.0324 193.122 42.0324H186.293Z" fill="white"/>
<path d="M210.658 42.0324C210.285 42.0324 209.979 41.9135 209.741 41.6758C209.503 41.438 209.385 41.1323 209.385 40.7588V14.3674H200.316C199.942 14.3674 199.637 14.2485 199.399 14.0108C199.162 13.7391 199.043 13.4334 199.043 13.0937V7.64225C199.043 7.26862 199.162 6.96292 199.399 6.72517C199.637 6.48741 199.942 6.36853 200.316 6.36853H227.726C228.101 6.36853 228.405 6.48741 228.643 6.72517C228.881 6.96292 229 7.26862 229 7.64225V13.0937C229 13.4334 228.881 13.7391 228.643 14.0108C228.405 14.2485 228.101 14.3674 227.726 14.3674H218.658V40.7588C218.658 41.1323 218.539 41.438 218.301 41.6758C218.063 41.9135 217.757 42.0324 217.384 42.0324H210.658Z" fill="white"/>
<path d="M228.205 60.3983L226.641 60.8399C226.488 60.3983 226.27 59.9985 225.989 59.6401C225.706 59.282 225.339 58.9971 224.885 58.7861C224.438 58.575 223.881 58.4694 223.215 58.4694C222.216 58.4694 221.398 58.7061 220.759 59.1794C220.119 59.6529 219.798 60.2641 219.798 61.0125C219.798 61.646 220.016 62.1611 220.451 62.5577C220.892 62.9481 221.571 63.2584 222.485 63.4886L224.712 64.0358C225.948 64.3365 226.872 64.8131 227.486 65.4657C228.106 66.1184 228.416 66.9373 228.416 67.9227C228.416 68.7544 228.187 69.4934 227.726 70.1395C227.265 70.7858 226.622 71.2945 225.796 71.6656C224.978 72.0303 224.027 72.2126 222.946 72.2126C221.506 72.2126 220.319 71.8896 219.386 71.2433C218.451 70.5907 217.853 69.6502 217.591 68.4218L219.233 68.0185C219.443 68.8951 219.856 69.5574 220.47 70.0053C221.09 70.453 221.906 70.677 222.917 70.677C224.051 70.677 224.955 70.4244 225.634 69.9188C226.312 69.407 226.65 68.7672 226.65 67.9994C226.65 67.4043 226.452 66.9053 226.056 66.5022C225.659 66.0927 225.058 65.792 224.252 65.6001L221.843 65.0243C220.562 64.7172 219.616 64.231 219.002 63.5656C218.388 62.9 218.081 62.0746 218.081 61.0895C218.081 60.2769 218.301 59.5634 218.743 58.9492C219.184 58.3285 219.791 57.8424 220.566 57.4903C221.341 57.1384 222.224 56.9626 223.215 56.9626C224.566 56.9626 225.643 57.2696 226.449 57.8838C227.261 58.4917 227.847 59.3299 228.205 60.3983Z" fill="white"/>
<path d="M208.558 72.2126C207.183 72.2126 205.992 71.8928 204.988 71.2528C203.983 70.6067 203.206 69.7142 202.655 68.5753C202.111 67.4299 201.839 66.112 201.839 64.6212C201.839 63.1368 202.111 61.8188 202.655 60.6671C203.206 59.509 203.963 58.6036 204.931 57.951C205.902 57.2921 207.026 56.9626 208.298 56.9626C209.098 56.9626 209.869 57.1098 210.611 57.404C211.354 57.6919 212.019 58.1366 212.608 58.738C213.202 59.3331 213.673 60.0848 214.019 60.9934C214.365 61.8955 214.537 62.964 214.537 64.1989V65.0435H203.021V63.5367H212.79C212.79 62.5898 212.599 61.7388 212.215 60.9839C211.837 60.2225 211.309 59.621 210.631 59.1794C209.959 58.738 209.181 58.5173 208.298 58.5173C207.365 58.5173 206.541 58.7668 205.831 59.2659C205.122 59.765 204.565 60.4239 204.161 61.243C203.765 62.0618 203.563 62.9577 203.558 63.9302V64.8324C203.558 66.0031 203.76 67.0269 204.161 67.9034C204.572 68.7737 205.15 69.4486 205.9 69.9286C206.648 70.4084 207.534 70.6484 208.558 70.6484C209.255 70.6484 209.866 70.5395 210.39 70.3221C210.921 70.1044 211.366 69.8133 211.725 69.4486C212.089 69.0776 212.365 68.6713 212.55 68.2297L214.172 68.7576C213.948 69.3783 213.581 69.9509 213.069 70.4756C212.563 71.0002 211.93 71.4224 211.168 71.7424C210.413 72.0559 209.543 72.2126 208.558 72.2126Z" fill="white"/>
<path d="M193.414 71.9055V57.1641H195.073V59.4291H195.198C195.493 58.6868 196.005 58.0886 196.735 57.6344C197.47 57.1737 198.302 56.9432 199.23 56.9432C199.37 56.9432 199.527 56.9465 199.7 56.9529C199.871 56.9593 200.015 56.9657 200.131 56.972V58.7093C200.055 58.6963 199.92 58.6772 199.729 58.6516C199.536 58.626 199.329 58.6132 199.104 58.6132C198.336 58.6132 197.652 58.7763 197.05 59.1026C196.455 59.4226 195.985 59.8672 195.639 60.4368C195.295 61.0061 195.122 61.6555 195.122 62.385V71.9055H193.414Z" fill="white"/>
<path d="M187.182 66.2718V57.164H188.89V71.9054H187.182V69.4582H187.048C186.702 70.2131 186.155 70.8433 185.407 71.3489C184.657 71.848 183.742 72.0973 182.661 72.0973C181.721 72.0973 180.886 71.8927 180.157 71.4831C179.427 71.0673 178.855 70.4596 178.439 69.6598C178.023 68.86 177.815 67.8779 177.815 66.7134V57.164H179.523V66.6078C179.523 67.7595 179.863 68.6872 180.541 69.3909C181.22 70.0884 182.088 70.437 183.151 70.437C183.816 70.437 184.456 70.277 185.07 69.9572C185.684 69.6372 186.191 69.1702 186.587 68.556C186.984 67.9353 187.182 67.1739 187.182 66.2718Z" fill="white"/>
<path d="M173.936 57.164V58.6517H166.901V57.164H173.936ZM169.099 53.6323H170.816V68.0569C170.816 68.6712 170.922 69.1542 171.133 69.5063C171.344 69.8516 171.619 70.0979 171.959 70.2451C172.298 70.3859 172.659 70.4563 173.043 70.4563C173.267 70.4563 173.459 70.4435 173.619 70.4179C173.779 70.3859 173.92 70.354 174.041 70.3219L174.406 71.8671C174.24 71.931 174.035 71.9887 173.792 72.0398C173.549 72.0975 173.248 72.1263 172.89 72.1263C172.263 72.1263 171.658 71.9887 171.076 71.7136C170.5 71.4384 170.026 71.0289 169.655 70.4851C169.284 69.9412 169.099 69.2663 169.099 68.46V53.6323Z" fill="white"/>
<path d="M154.186 62.6924V71.9057H152.478V57.1643H154.139V59.4772H154.292C154.638 58.7223 155.175 58.1176 155.904 57.6634C156.64 57.2027 157.549 56.9722 158.63 56.9722C159.622 56.9722 160.492 57.1803 161.241 57.5962C161.996 58.0057 162.581 58.6102 162.997 59.41C163.419 60.2098 163.63 61.1919 163.63 62.3564V71.9057H161.922V62.4619C161.922 61.2528 161.583 60.2963 160.905 59.5923C160.233 58.8886 159.331 58.5367 158.198 58.5367C157.424 58.5367 156.736 58.703 156.135 59.0358C155.533 59.3684 155.057 59.8483 154.705 60.4753C154.359 61.096 154.186 61.8349 154.186 62.6924Z" fill="white"/>
<path d="M142.735 72.2126C141.359 72.2126 140.169 71.8928 139.164 71.2528C138.16 70.6067 137.383 69.7142 136.832 68.5753C136.288 67.4299 136.017 66.112 136.017 64.6212C136.017 63.1368 136.288 61.8188 136.832 60.6671C137.383 59.509 138.141 58.6036 139.107 57.951C140.079 57.2921 141.202 56.9626 142.476 56.9626C143.275 56.9626 144.046 57.1098 144.789 57.404C145.531 57.6919 146.196 58.1366 146.785 58.738C147.38 59.3331 147.85 60.0848 148.196 60.9934C148.541 61.8955 148.714 62.964 148.714 64.1989V65.0435H137.197V63.5367H146.967C146.967 62.5898 146.775 61.7388 146.391 60.9839C146.014 60.2225 145.486 59.621 144.808 59.1794C144.136 58.738 143.358 58.5173 142.476 58.5173C141.541 58.5173 140.719 58.7668 140.009 59.2659C139.299 59.765 138.742 60.4239 138.339 61.243C137.942 62.0618 137.741 62.9577 137.735 63.9302V64.8324C137.735 66.0031 137.936 67.0269 138.339 67.9034C138.749 68.7737 139.328 69.4486 140.076 69.9286C140.825 70.4084 141.711 70.6484 142.735 70.6484C143.432 70.6484 144.043 70.5395 144.568 70.3221C145.099 70.1044 145.543 69.8133 145.902 69.4486C146.266 69.0776 146.542 68.6713 146.727 68.2297L148.349 68.7576C148.125 69.3783 147.757 69.9509 147.245 70.4756C146.74 71.0002 146.106 71.4224 145.345 71.7424C144.59 72.0559 143.72 72.2126 142.735 72.2126Z" fill="white"/>
<path d="M120.795 52.2502L126.937 69.5733H127.11L133.253 52.2502H135.134L127.984 71.9054H126.064L118.914 52.2502H120.795Z" fill="white"/>
<defs>
<linearGradient id="paint0_linear_3515_3389" x1="65.5" y1="35" x2="59" y2="53" gradientUnits="userSpaceOnUse">
<stop/>
<stop offset="1" stop-color="white" stop-opacity="0"/>
</linearGradient>
</defs>
</svg>
