<svg width="55" height="32" viewBox="0 0 55 32" fill="none" xmlns="http://www.w3.org/2000/svg">
<path d="M0.564453 26.2146V0L10.1579 5.39327V32L0.564453 26.2146ZM15.0609 26.2146V0L24.6544 5.39327V32L15.0609 26.2146ZM29.5574 26.2146V0L39.1509 5.39327V32L29.5574 26.2146ZM59.3838 3.05618H62.9466V19.2033H59.0896L55.298 13.0256C53.9905 10.9336 53.0426 9.31564 52.4542 8.15528C52.5523 10.0184 52.585 12.1103 52.585 14.3984V19.187H49.0222V3.03984H52.9772L57.0957 9.77326C58.2397 11.62 59.0242 12.9602 59.4819 13.7937C59.4165 12.5189 59.3838 10.6721 59.3838 8.22064V3.05618ZM72.7689 13.1073V10.0184H80.4503V19.2033H77.6556L77.5249 17.8141C76.5932 18.9909 75.1224 19.5792 73.0958 19.5792C70.6769 19.5792 68.7485 18.7947 67.3267 17.2095C65.9047 15.6242 65.1856 13.5976 65.1856 11.0971C65.1529 8.64558 65.9047 6.61901 67.4083 5.03371C68.9446 3.43207 70.9548 2.63126 73.4554 2.66395C74.8609 2.66395 76.1029 2.89276 77.1816 3.35037C78.2765 3.80798 79.3716 4.57612 80.4993 5.6711L78.1785 8.07356C77.2634 7.27274 76.4624 6.71707 75.7433 6.39021C75.0243 6.07969 74.2725 5.91626 73.4554 5.91626C72.0662 5.91626 70.9548 6.35752 70.1377 7.25639C69.3369 8.15528 68.9282 9.43005 68.9282 11.0807C68.9282 12.7804 69.3205 14.0879 70.105 15.0194C70.9057 15.9347 72.0008 16.3759 73.3736 16.3759C74.5503 16.3759 75.4656 16.0981 76.1193 15.5424C76.7893 14.9705 77.1162 14.186 77.1162 13.1727V13.1073H72.7689ZM90.5667 2.6476C91.8578 2.6476 92.9529 2.84373 93.8681 3.21962C94.7996 3.61185 95.7476 4.24924 96.7118 5.13177L94.5381 7.66499C93.7374 6.97857 93.0509 6.52096 92.4626 6.2758C91.9069 6.01432 91.2531 5.88357 90.534 5.88357C89.1775 5.88357 88.1153 6.35752 87.2981 7.28908C86.5136 8.22066 86.1213 9.47908 86.1213 11.0807C86.1213 12.6987 86.5136 13.9898 87.2981 14.9214C88.0989 15.853 89.1776 16.3269 90.5013 16.3269C91.2858 16.3269 91.9722 16.1797 92.5442 15.902C93.1326 15.6242 93.8844 15.1339 94.7996 14.3984L96.9079 16.8989C95.911 17.8305 94.8977 18.5005 93.8844 18.9418C92.8875 19.3667 91.7761 19.5792 90.5504 19.5792C88.0662 19.5792 86.0724 18.7783 84.6015 17.1931C83.1143 15.5915 82.3787 13.5322 82.3787 11.0317C82.3787 8.5802 83.1143 6.55365 84.585 4.98469C86.056 3.43209 88.0499 2.6476 90.5667 2.6476ZM51.7188 29.8591L53.9578 23.2401H53.3532L51.392 29.2871H51.3593L49.4144 23.2565H48.777L50.9997 29.8755H51.7188V29.8591ZM58.4032 29.9735C59.3184 29.9735 59.9884 29.4995 60.299 28.7968L59.8904 28.519C59.6289 29.1563 59.106 29.4995 58.4196 29.4995C57.4226 29.4995 56.8342 28.7968 56.8342 27.7835V27.5384H60.4298V27.2769C60.4298 25.8551 59.6289 24.8907 58.3869 24.8907C57.0957 24.8907 56.2786 25.8386 56.2786 27.4239C56.2786 29.0093 57.1121 29.9735 58.4032 29.9735ZM58.3869 25.3483C59.253 25.3483 59.8414 26.0185 59.8414 27.0481V27.1297H56.8342V27.0808C56.8506 26.0512 57.4552 25.3483 58.3869 25.3483ZM64.2378 29.8591V26.4434C64.2378 25.7243 64.8751 25.381 65.5616 25.381C66.3623 25.381 66.8037 25.8551 66.8037 26.8355V29.8591H67.343V26.7375C67.343 25.5609 66.7383 24.8907 65.7086 24.8907C64.9241 24.8907 64.4993 25.2667 64.2705 25.7733H64.2378V25.0052H63.6984V29.8591H64.2378ZM72.7362 29.8591V29.3852H71.7066V25.4791H72.8016V25.0052H71.7066V23.6487H71.2163V24.6292C71.2163 24.9071 71.1346 25.0052 70.8731 25.0052H70.3174V25.4791H71.1672V29.2544C71.1672 29.614 71.3798 29.8591 71.772 29.8591H72.7362ZM79.0283 29.8591H79.5677V25.0052H79.0283V28.4045C79.0283 29.1401 78.391 29.4832 77.721 29.4832C76.9201 29.4832 76.4789 29.0093 76.4789 28.0123V25.0052H75.9394V28.1268C75.9394 29.3035 76.5605 29.9735 77.5902 29.9735C78.4237 29.9735 78.8159 29.5486 78.9957 29.091H79.0283V29.8591ZM83.7679 29.8591V26.5415C83.7679 25.9204 84.34 25.5445 85.1571 25.5445H85.5821V25.0215H85.2552C84.4216 25.0215 83.9967 25.4301 83.8005 25.8878H83.7679V25.0215H83.2286V29.8755H83.7679V29.8591ZM90.2235 29.9735C91.1388 29.9735 91.8088 29.4995 92.1193 28.7968L91.727 28.5353C91.4655 29.1728 90.9427 29.5159 90.2562 29.5159C89.2592 29.5159 88.6708 28.8132 88.6708 27.7999V27.5384H92.2664V27.2769C92.2664 25.8551 91.4655 24.8907 90.2235 24.8907C88.9323 24.8907 88.1153 25.8386 88.1153 27.4239C88.1153 29.0093 88.916 29.9735 90.2235 29.9735ZM90.2071 25.3483C91.0734 25.3483 91.6616 26.0185 91.6616 27.0481V27.1297H88.6545V27.0808C88.671 26.0512 89.2756 25.3483 90.2071 25.3483ZM96.8916 29.9735C97.9539 29.9735 98.6076 29.4341 98.6076 28.5353C98.6076 27.7508 98.15 27.3258 97.153 27.1788L96.7607 27.1297C96.0744 27.0154 95.7149 26.8029 95.7149 26.2473C95.7149 25.6916 96.1234 25.381 96.8098 25.381C97.4799 25.381 97.8721 25.6916 98.1336 26.0021L98.4932 25.6752C98.1336 25.234 97.6433 24.9234 96.8425 24.9234C95.911 24.9234 95.1919 25.381 95.1919 26.28C95.1919 27.1461 95.7965 27.5057 96.6791 27.6365L97.0713 27.7018C97.774 27.7999 98.0682 28.0941 98.0682 28.6171C98.0682 29.2054 97.6433 29.5322 96.9079 29.5322C96.2706 29.5322 95.7965 29.2708 95.4043 28.7478L95.012 29.0583C95.4696 29.6467 96.058 29.9735 96.8916 29.9735Z" fill="white"/>
</svg>
