<svg width="231" height="52" viewBox="0 0 231 52" fill="none" xmlns="http://www.w3.org/2000/svg">
<path d="M230.98 37.3284H226.345V11.3084H230.98V37.3234V37.3284Z" fill="white"/>
<path d="M47.2801 37.3734C49.1201 34.2484 47.6651 31.5284 46.9751 28.7284C46.3951 26.3634 44.9851 24.5534 43.6451 22.6384C43.3051 22.1534 43.4901 21.1784 43.6701 20.4884C44.1001 18.8234 44.4851 17.1084 45.2301 15.5784C45.9751 14.0484 45.6651 12.7784 45.2751 11.2734C44.7351 9.20344 43.5051 8.08844 41.6801 7.17844C40.0251 6.35344 38.6251 6.52344 36.9651 7.06844C36.4401 7.24344 35.5001 6.07344 34.7201 5.56844C33.0001 4.46344 31.3051 3.30844 29.5101 2.33844C28.0551 1.54844 26.4651 0.998442 24.9201 0.333442C29.6951 -1.16656 40.0451 2.56344 45.1551 8.12844C55.4301 19.3134 52.9351 32.1284 48.1251 39.7034C45.2301 44.2634 41.0301 47.4784 36.0051 49.5234C35.6651 49.6634 35.1851 49.4484 34.9251 49.4184C37.2601 47.5584 39.5901 45.7534 41.8651 43.8734C43.9201 42.1734 44.2401 40.7684 43.3301 38.4034C38.9301 35.8334 34.4201 33.8734 29.5551 34.0434C27.8801 36.0184 26.8251 38.1434 24.1001 39.1384C24.4601 37.2534 24.7401 35.7734 25.0201 34.2934C24.8801 34.1534 24.7351 34.0184 24.5951 33.8784C23.4551 34.4884 22.2351 34.9884 21.2001 35.7384C19.4151 37.0384 17.5201 38.2984 16.0901 39.9434C14.2101 42.1034 15.1801 44.5184 17.1001 46.2234C18.8051 47.7384 21.1451 48.5734 23.2751 49.5584C24.4451 50.0984 25.7551 50.3284 27.0001 50.6984C24.5351 52.3034 14.7301 49.6384 11.0501 46.8234C3.62508 41.1484 -0.274919 33.6784 0.0150814 24.4684C0.200081 18.6484 2.25508 13.0984 6.58508 8.84344C8.66008 6.80344 11.0851 5.10844 13.3701 3.28844C13.5451 3.14844 13.9001 3.23844 14.3751 3.20344C13.6201 4.36844 13.0351 5.41844 12.3101 6.36344C10.4951 8.73344 10.5201 12.4734 12.8251 14.2634C14.4301 15.5084 16.5251 16.1184 18.3901 17.0434C18.9301 17.3134 19.4201 17.6884 19.8351 17.9534C18.3051 19.0784 16.7151 19.9334 15.5601 21.1834C14.4351 22.3984 13.7551 24.0234 12.6051 25.9184C15.1051 25.2084 17.0951 24.6434 19.0801 24.0784C19.2501 24.2384 19.4201 24.4034 19.5851 24.5634C15.5451 28.5984 13.2351 33.1784 14.5101 39.0184C15.7901 37.8234 16.9001 36.6434 18.1501 35.6384C21.0951 33.2784 24.4501 31.8734 28.2701 32.3584C30.8301 32.6834 33.4001 33.2234 35.8551 34.0034C38.5801 34.8684 41.1451 36.2234 43.8501 37.1534C44.9001 37.5184 46.1501 37.3084 47.2751 37.3584L47.2801 37.3734Z" fill="white"/>
<path d="M84.9551 24.2734C84.9551 25.6934 84.9901 27.0684 84.9501 28.4434C84.8451 31.6384 81.5601 35.3084 78.8701 36.6034C75.9501 38.0084 72.8501 37.7134 70.0001 37.1584C67.3301 36.6384 65.1401 34.8034 63.5951 32.1684C61.1501 27.9884 61.9951 23.5334 62.4001 19.2984C62.7051 16.1084 65.0101 13.3834 68.2701 12.0984C69.9651 11.4284 71.8151 10.6434 73.5601 10.7234C76.9851 10.8784 80.1351 11.9834 82.5601 14.7784C85.0151 17.6134 85.2551 20.8734 84.9651 24.2784L84.9551 24.2734ZM80.3551 24.4584C80.0501 21.5334 80.2751 18.6984 77.4901 16.6634C74.8301 14.7184 70.5851 15.0384 68.7151 17.6884C66.0551 21.4484 66.4251 25.6034 67.9401 29.5384C69.2251 32.8734 73.7601 34.4484 77.0851 31.9834C77.9001 31.3784 78.8401 30.6234 79.1651 29.7384C79.7751 28.0584 79.9801 26.2284 80.3551 24.4634V24.4584Z" fill="white"/>
<path d="M161.45 21.0584C164.685 17.4034 170.09 17.9784 173.15 20.5934C176.715 23.6434 177.845 30.3784 175.425 33.2184C171.48 37.8484 165.595 38.9684 161.3 35.7284V44.5184H156.275V42.9584C156.275 35.6234 156.27 28.2934 156.285 20.9584C156.285 20.0534 155.97 18.8184 157.46 18.8134C158.915 18.8134 160.785 18.1284 161.21 20.5084C161.24 20.6834 161.355 20.8434 161.45 21.0534V21.0584ZM171.74 28.3634C171.755 25.5234 169.315 22.8884 166.695 22.9234C164.2 22.9534 161.21 25.6534 161.325 27.9984C161.44 30.2634 163.56 33.2484 166.43 33.2534C169.57 33.2534 171.72 31.2834 171.735 28.3684L171.74 28.3634Z" fill="white"/>
<path d="M131.53 14.9434C130.325 16.0384 129.385 16.8884 128.275 17.8934C127.81 17.6434 127.205 17.3584 126.645 17.0034C123.88 15.2384 120.945 14.8234 118.01 16.3484C115.45 17.6784 113.335 19.5234 113.205 22.7634C113.095 25.4434 112.985 28.0834 114.945 30.3384C116.665 32.3184 121.355 34.1384 124.015 32.8134C125.34 32.1534 126.65 31.4534 128.02 30.9084C128.38 30.7684 129.065 31.0234 129.395 31.3284C130.2 32.0734 130.88 32.9484 131.695 33.8634C130.56 36.8584 122.12 38.5134 119.95 37.9284C116.66 37.0384 113.28 36.3934 110.995 33.5184C108.605 30.5184 107.53 26.9534 107.89 23.2634C108.165 20.4484 109.14 17.6584 111.115 15.3284C114.035 11.8784 118.08 10.9184 122.12 10.7984C124.56 10.7234 127.08 12.2034 129.5 13.1484C130.26 13.4434 130.81 14.2784 131.54 14.9434H131.53Z" fill="white"/>
<path d="M217.35 20.5334C218.135 19.9184 218.82 18.9284 219.595 18.8534C222.5 18.5684 222.775 18.9334 222.775 21.8834C222.775 26.2584 222.705 30.6384 222.81 35.0134C222.855 36.7884 222.36 37.6034 220.495 37.3334C219.77 37.2284 219.015 37.3184 218.21 37.3184C218.06 36.5134 217.94 35.8434 217.87 35.4884C216.095 36.3134 214.4 37.5434 212.56 37.8184C210.94 38.0634 209 37.5584 207.495 36.8084C206.045 36.0834 204.625 34.8184 203.805 33.4334C202.09 30.5384 201.83 27.3384 203.19 24.1434C205.36 19.0334 209.47 18.0634 214.14 18.7034C215.415 18.8784 216.55 20.0534 217.355 20.5384L217.35 20.5334ZM207.45 28.1434C207.47 31.3634 209.53 33.1634 212.82 33.3784C215.615 33.5584 218.12 30.7834 217.925 27.9984C217.75 25.5334 215.805 22.4984 212.59 22.6934C210.035 22.8484 207.075 24.8784 207.445 28.1434H207.45Z" fill="white"/>
<path d="M148.015 34.7034C146.34 37.2384 143.865 37.9834 141.665 37.8384C139.075 37.6634 136.265 37.0434 134.43 34.6084C131.525 30.7534 132.01 23.1784 135.51 20.5734C139.185 17.8384 144.875 17.5234 147.985 21.1584C148.13 20.3334 148.245 19.6534 148.395 18.8034C149.48 18.8034 150.515 18.7184 151.52 18.8534C151.855 18.8984 152.375 19.4984 152.375 19.8534C152.43 25.6284 152.415 31.3984 152.415 37.2434H148.3C148.215 36.5084 148.14 35.8334 148.01 34.7034H148.015ZM142.8 33.3234C145.655 33.3234 148.185 30.8884 148.065 27.9984C147.975 25.8384 145.855 22.5584 142.815 22.6734C140.08 22.7784 137.51 24.8634 137.49 28.0584C137.475 31.1984 140.035 33.6534 142.795 33.3234H142.8Z" fill="white"/>
<path d="M99.7901 27.9184C101.895 30.9584 103.955 33.9384 106.19 37.1634H100.55C99.3551 35.3684 98.0851 33.4584 96.6601 31.3234C95.4151 33.1234 94.3751 34.7634 93.1751 36.2784C92.7701 36.7884 91.9951 37.1934 91.3401 37.2734C90.0751 37.4284 88.7801 37.3184 86.9601 37.3184C87.8101 36.0134 88.4201 35.0034 89.1001 34.0534C90.3401 32.3234 91.6951 30.6784 92.8451 28.8934C93.1501 28.4234 93.1201 27.3984 92.8001 26.9234C91.3901 24.8184 89.7951 22.8334 88.3101 20.7784C87.6351 19.8384 88.1601 18.8234 89.3051 18.7884C93.7501 18.6684 92.7851 18.7134 94.8001 22.1784C95.2801 23.0084 95.9651 23.7184 96.7151 24.6934C97.7051 23.1034 98.6201 21.7634 99.4001 20.3534C100.115 19.0584 103.71 18.0284 104.86 18.9584C105.12 19.1684 105.235 19.9734 105.045 20.2584C103.335 22.8484 101.545 25.3884 99.7901 27.9234V27.9184Z" fill="white"/>
<path d="M200.905 36.1334C199.495 37.5284 195.195 37.5984 193.56 36.8234C190.765 35.4934 190.35 33.2184 190.375 30.5834C190.395 28.5834 190.39 26.5834 190.365 24.5834C190.36 24.0634 190.255 23.5384 190.185 22.9384C189.115 22.8734 188.18 22.8134 186.925 22.7384C187 21.5734 186.7 20.2234 187.24 19.4884C187.755 18.7834 189.145 18.7234 190.375 18.3034V14.5334C191.945 14.2234 193.43 13.9334 195.18 13.5884V18.6534C197.64 19.0234 201.545 17.6334 199.9 22.7484H195.17C195.17 24.5634 195.17 26.1634 195.17 27.7634C195.17 28.9284 195.155 30.0984 195.185 31.2634C195.22 32.6234 195.965 33.3434 197.31 33.2434C198.9 33.1234 200.405 32.9534 200.315 35.2884C200.305 35.5384 200.665 35.8084 200.905 36.1334Z" fill="white"/>
<path d="M179.955 18.6584C181.185 18.6584 182.27 18.4784 183.24 18.7284C183.81 18.8734 184.615 19.6984 184.625 20.2284C184.73 25.4784 184.72 30.7334 184.625 35.9834C184.615 36.4334 183.845 37.1534 183.335 37.2534C182.295 37.4534 181.185 37.3134 179.955 37.3134V18.6584Z" fill="white"/>
<path d="M22.9751 12.6984C21.3151 11.8434 19.7351 11.2684 18.5001 10.2684C18.0751 9.92343 18.2051 8.32343 18.6251 7.62343C20.0851 5.17843 22.3501 4.90843 24.5551 6.80843C26.0951 8.13343 27.4851 9.63343 29.0301 10.9584C29.7251 11.5534 30.6301 11.8984 31.4401 12.3534C31.4601 12.5734 31.4801 12.7934 31.5001 13.0134C29.8951 13.3784 28.2901 13.7484 26.6901 14.1134C26.0601 11.5268 24.9501 10.3901 23.3601 10.7034C23.2801 11.1084 23.1951 11.5484 22.9701 12.7084L22.9751 12.6984Z" fill="white"/>
<path d="M42.6501 18.4334V21.1684C38.3451 20.1834 34.1501 19.2234 29.7551 18.2134C29.6401 17.9234 29.3901 17.2834 29.1101 16.5784C30.3651 14.1434 31.5851 14.2084 33.0451 15.8934C34.6401 17.7384 36.8001 18.6984 39.0601 19.1934C40.0901 19.4184 41.3201 18.7434 42.6451 18.4284L42.6501 18.4334Z" fill="white"/>
<path d="M44.1351 18.0984C42.7451 17.2584 41.6201 16.5834 40.3501 15.8184C40.3101 15.5484 40.2451 15.1084 40.1101 14.1934C38.0301 16.8384 36.2301 16.0634 34.1951 13.9634C34.8701 13.8834 35.2451 13.7534 35.5901 13.8134C37.6601 14.1834 39.6001 13.9084 41.5701 13.1134C43.3801 12.3834 44.6701 13.5334 44.4851 15.4884C44.4201 16.1884 44.3001 16.8834 44.1301 18.0984H44.1351Z" fill="white"/>
<path d="M184.765 13.9084C184.77 15.3734 183.555 16.5884 182.02 16.6484C180.88 16.6934 179.215 15.0234 179.235 13.8534C179.255 12.6384 180.76 11.2784 182.09 11.2734C184.08 11.2734 184.755 11.9334 184.765 13.9084Z" fill="white"/>
</svg>
