<svg width="146" height="40" viewBox="0 0 146 40" fill="none" xmlns="http://www.w3.org/2000/svg">
<path d="M137.838 1.85519V7.49318H140.972C141.786 7.49318 142.329 7.37046 142.602 7.12503C142.967 6.80245 143.17 6.23445 143.213 5.42101H143.602V10.3858H143.213C143.114 9.69157 143.016 9.24628 142.918 9.04994C142.792 8.8045 142.585 8.61166 142.297 8.47141C142.01 8.33116 141.568 8.26104 140.972 8.26104H137.838V12.9629C137.838 13.594 137.866 13.9797 137.922 14.1199C137.978 14.2532 138.076 14.3618 138.216 14.446C138.356 14.5231 138.623 14.5617 139.016 14.5617H141.435C142.241 14.5617 142.827 14.5056 143.192 14.3934C143.556 14.2812 143.907 14.0603 144.243 13.7307C144.678 13.296 145.123 12.6403 145.579 11.7637H146L144.769 15.3401H133.777V14.9509H134.282C134.619 14.9509 134.938 14.8702 135.239 14.709C135.464 14.5968 135.615 14.4285 135.692 14.2041C135.776 13.9797 135.818 13.5204 135.818 12.8261V3.55921C135.818 2.65461 135.727 2.09712 135.544 1.88675C135.292 1.60625 134.871 1.466 134.282 1.466H133.777V1.07681H144.769L144.927 4.20085H144.517C144.37 3.45052 144.205 2.9351 144.022 2.65461C143.847 2.37411 143.584 2.16023 143.234 2.01297C142.953 1.90778 142.459 1.85519 141.75 1.85519H137.838Z" fill="white"/>
<path d="M110.18 1.07681H114.05L122.77 11.7743V3.54869C122.77 2.67214 122.672 2.12517 122.476 1.90778C122.216 1.61326 121.806 1.466 121.245 1.466H120.751V1.07681H125.716V1.466H125.211C124.608 1.466 124.18 1.64833 123.927 2.01297C123.773 2.23737 123.696 2.74927 123.696 3.54869V15.5715H123.317L113.914 4.08514V12.8682C113.914 13.7448 114.008 14.2917 114.198 14.5091C114.464 14.8036 114.874 14.9509 115.428 14.9509H115.933V15.3401H110.968V14.9509H111.463C112.073 14.9509 112.504 14.7686 112.757 14.4039C112.911 14.1795 112.988 13.6676 112.988 12.8682V2.94913C112.574 2.46527 112.259 2.14621 112.041 1.99193C111.831 1.83766 111.519 1.69391 111.105 1.56067C110.902 1.49756 110.593 1.466 110.18 1.466V1.07681Z" fill="white"/>
<path d="M93.7515 0.750732C95.6028 0.750732 97.2051 1.45548 98.5585 2.86498C99.9189 4.26746 100.599 6.02057 100.599 8.12429C100.599 10.2911 99.9154 12.0898 98.548 13.5204C97.1806 14.9509 95.5256 15.6662 93.5832 15.6662C91.6197 15.6662 89.9683 14.9684 88.6289 13.5729C87.2966 12.1775 86.6304 10.3718 86.6304 8.15585C86.6304 5.89084 87.4017 4.04306 88.9445 2.61253C90.2838 1.37133 91.8862 0.750732 93.7515 0.750732ZM93.5516 1.51859C92.2754 1.51859 91.2516 1.99193 90.4802 2.93861C89.5195 4.11669 89.0391 5.84175 89.0391 8.11377C89.0391 10.4419 89.537 12.2336 90.5328 13.4888C91.2971 14.4425 92.3069 14.9193 93.5621 14.9193C94.9015 14.9193 96.006 14.3969 96.8755 13.3521C97.7521 12.3072 98.1903 10.6593 98.1903 8.4083C98.1903 5.96797 97.71 4.14825 96.7493 2.94913C95.9779 1.99544 94.912 1.51859 93.5516 1.51859Z" fill="white"/>
<path d="M76.0297 11.3956L76.3768 11.4692L75.1566 15.3401H64.1121V14.9509H64.6485C65.2516 14.9509 65.6828 14.7545 65.9423 14.3618C66.0896 14.1374 66.1632 13.6185 66.1632 12.8051V3.60128C66.1632 2.71071 66.065 2.15322 65.8687 1.92882C65.5952 1.62028 65.1885 1.466 64.6485 1.466H64.1121V1.07681H70.5705V1.466C69.8132 1.45899 69.2802 1.52911 68.9717 1.67637C68.6701 1.82364 68.4633 2.00946 68.3511 2.23386C68.2389 2.45826 68.1828 2.99471 68.1828 3.84321V12.8051C68.1828 13.3871 68.2389 13.7868 68.3511 14.0042C68.4352 14.1515 68.5649 14.2602 68.7403 14.3303C68.9156 14.4004 69.4625 14.4355 70.3812 14.4355H71.4225C72.5164 14.4355 73.2843 14.3548 73.7261 14.1935C74.1679 14.0323 74.5711 13.7483 74.9357 13.3415C75.3004 12.9278 75.665 12.2792 76.0297 11.3956Z" fill="white"/>
<path d="M56.5656 15.3401H52.7579L47.9298 8.67126C47.5722 8.68529 47.2812 8.6923 47.0568 8.6923C46.9656 8.6923 46.8674 8.6923 46.7622 8.6923C46.6571 8.68529 46.5484 8.67828 46.4362 8.67126V12.8156C46.4362 13.7132 46.5343 14.2707 46.7307 14.4881C46.9972 14.7966 47.3969 14.9509 47.9298 14.9509H48.4873V15.3401H42.376V14.9509H42.9124C43.5155 14.9509 43.9468 14.7545 44.2062 14.3618C44.3535 14.1445 44.4271 13.629 44.4271 12.8156V3.60128C44.4271 2.70369 44.3289 2.14621 44.1326 1.92882C43.8591 1.62028 43.4524 1.466 42.9124 1.466H42.376V1.07681H47.5722C49.0869 1.07681 50.2018 1.18901 50.9171 1.41341C51.6394 1.63079 52.2495 2.03751 52.7473 2.63357C53.2522 3.22261 53.5047 3.92736 53.5047 4.74782C53.5047 5.62437 53.2172 6.38522 52.6422 7.03036C52.0742 7.6755 51.1906 8.13131 49.9915 8.39778L52.9367 12.4895C53.6099 13.4292 54.1884 14.0533 54.6723 14.3618C55.1561 14.6704 55.7872 14.8667 56.5656 14.9509V15.3401ZM46.4362 8.00859C46.5694 8.00859 46.6851 8.0121 46.7833 8.01911C46.8815 8.01911 46.9621 8.01911 47.0252 8.01911C48.3856 8.01911 49.4094 7.72459 50.0967 7.13554C50.7909 6.5465 51.138 5.79617 51.138 4.88456C51.138 3.99398 50.8575 3.2717 50.2965 2.71772C49.7425 2.15673 49.0062 1.87623 48.0876 1.87623C47.6809 1.87623 47.1304 1.94285 46.4362 2.07608V8.00859Z" fill="white"/>
<path d="M26.0359 1.85519V7.49318H29.1705C29.9839 7.49318 30.5274 7.37046 30.8008 7.12503C31.1655 6.80245 31.3688 6.23445 31.4109 5.42101H31.8001V10.3858H31.4109C31.3127 9.69157 31.2146 9.24628 31.1164 9.04994C30.9902 8.8045 30.7833 8.61166 30.4958 8.47141C30.2083 8.33116 29.7665 8.26104 29.1705 8.26104H26.0359V12.9629C26.0359 13.594 26.0639 13.9797 26.12 14.1199C26.1761 14.2532 26.2743 14.3618 26.4146 14.446C26.5548 14.5231 26.8213 14.5617 27.214 14.5617H29.6333C30.4397 14.5617 31.0252 14.5056 31.3899 14.3934C31.7545 14.2812 32.1051 14.0603 32.4417 13.7307C32.8765 13.296 33.3218 12.6403 33.7776 11.7637H34.1984L32.9677 15.3401H21.9757V14.9509H22.4806C22.8172 14.9509 23.1363 14.8702 23.4378 14.709C23.6622 14.5968 23.813 14.4285 23.8901 14.2041C23.9742 13.9797 24.0163 13.5204 24.0163 12.8261V3.55921C24.0163 2.65461 23.9252 2.09712 23.7428 1.88675C23.4904 1.60625 23.0696 1.466 22.4806 1.466H21.9757V1.07681H32.9677L33.1255 4.20085H32.7152C32.568 3.45052 32.4032 2.9351 32.2209 2.65461C32.0455 2.37411 31.7826 2.16023 31.432 2.01297C31.1515 1.90778 30.6571 1.85519 29.9488 1.85519H26.0359Z" fill="white"/>
<path d="M4.93763 8.66075V12.8156C4.93763 13.7132 5.03581 14.2707 5.23216 14.4881C5.49863 14.7966 5.90184 14.9509 6.4418 14.9509H6.98877V15.3401H0.877441V14.9509H1.41389C2.01696 14.9509 2.44822 14.7545 2.70768 14.3618C2.84793 14.1445 2.91806 13.629 2.91806 12.8156V3.60128C2.91806 2.70369 2.82339 2.14621 2.63405 1.92882C2.36057 1.62028 1.95385 1.466 1.41389 1.466H0.877441V1.07681H6.1052C7.38146 1.07681 8.38775 1.21005 9.12405 1.47652C9.86035 1.73598 10.481 2.17776 10.9858 2.80187C11.4907 3.42597 11.7432 4.16578 11.7432 5.0213C11.7432 6.18536 11.3575 7.13204 10.5861 7.86133C9.82179 8.59062 8.73837 8.95527 7.33588 8.95527C6.99227 8.95527 6.62061 8.93072 6.22091 8.88164C5.8212 8.83255 5.39344 8.75892 4.93763 8.66075ZM4.93763 8.06118C5.30929 8.13131 5.63888 8.1839 5.92638 8.21896C6.21389 8.25403 6.45933 8.27156 6.66269 8.27156C7.39198 8.27156 8.01959 7.99106 8.54552 7.43007C9.07847 6.86206 9.34494 6.12926 9.34494 5.23167C9.34494 4.61458 9.21872 4.04307 8.96627 3.51714C8.71382 2.98419 8.35619 2.58799 7.89337 2.32853C7.43055 2.06206 6.90462 1.92882 6.31557 1.92882C5.95794 1.92882 5.49863 1.99544 4.93763 2.12868V8.06118Z" fill="white"/>
<path d="M140.109 34.9897L140.456 35.0633L139.236 38.9342H128.192V38.545H128.728C129.331 38.545 129.762 38.3487 130.022 37.956C130.169 37.7316 130.243 37.2126 130.243 36.3992V27.1954C130.243 26.3048 130.144 25.7473 129.948 25.5229C129.675 25.2144 129.268 25.0601 128.728 25.0601H128.192V24.6709H134.65V25.0601C133.893 25.0531 133.36 25.1232 133.051 25.2705C132.75 25.4178 132.543 25.6036 132.431 25.828C132.318 26.0524 132.262 26.5888 132.262 27.4373V36.3992C132.262 36.9812 132.318 37.3809 132.431 37.5983C132.515 37.7456 132.644 37.8543 132.82 37.9244C132.995 37.9945 133.542 38.0296 134.461 38.0296H135.502C136.596 38.0296 137.364 37.9489 137.806 37.7877C138.247 37.6264 138.651 37.3424 139.015 36.9357C139.38 36.5219 139.744 35.8733 140.109 34.9897Z" fill="white"/>
<path d="M114.744 34.1587H109.222L108.254 36.4097C108.016 36.9637 107.896 37.3774 107.896 37.6509C107.896 37.8683 107.998 38.0611 108.201 38.2294C108.412 38.3907 108.861 38.4959 109.548 38.545V38.9342H105.056V38.545C105.652 38.4398 106.038 38.3031 106.213 38.1348C106.571 37.7982 106.967 37.1145 107.402 36.0836L112.419 24.3448H112.788L117.752 36.2099C118.152 37.1636 118.513 37.7842 118.836 38.0717C119.165 38.3522 119.621 38.5099 120.203 38.545V38.9342H114.576V38.545C115.144 38.517 115.526 38.4223 115.722 38.261C115.926 38.0997 116.027 37.9034 116.027 37.672C116.027 37.3634 115.887 36.876 115.607 36.2099L114.744 34.1587ZM114.45 33.3804L112.03 27.6161L109.548 33.3804H114.45Z" fill="white"/>
<path d="M95.1604 24.6709L95.3182 28.0159H94.9185C94.8414 27.4268 94.7362 27.0061 94.603 26.7536C94.3856 26.3469 94.0946 26.0489 93.7299 25.8595C93.3723 25.6632 92.8989 25.565 92.3099 25.565H90.3008V36.4623C90.3008 37.3389 90.3955 37.8858 90.5848 38.1032C90.8513 38.3977 91.2615 38.545 91.8155 38.545H92.3099V38.9342H86.2617V38.545H86.7666C87.3696 38.545 87.7974 38.3627 88.0499 37.998C88.2041 37.7736 88.2813 37.2617 88.2813 36.4623V25.565H86.5667C85.9005 25.565 85.4272 25.6141 85.1467 25.7123C84.7821 25.8455 84.47 26.1015 84.2106 26.4801C83.9511 26.8588 83.7968 27.3707 83.7477 28.0159H83.348L83.5163 24.6709H95.1604Z" fill="white"/>
<path d="M73.147 38.545V38.9342H67.0356V38.545H67.5405C68.1296 38.545 68.5573 38.3732 68.8238 38.0296C68.9921 37.8052 69.0763 37.2652 69.0763 36.4097V27.1954C69.0763 26.4731 69.0307 25.9963 68.9395 25.7649C68.8694 25.5896 68.7256 25.4388 68.5083 25.3126C68.1997 25.1443 67.8771 25.0601 67.5405 25.0601H67.0356V24.6709H73.147V25.0601H72.6316C72.0495 25.0601 71.6253 25.2319 71.3588 25.5755C71.1835 25.7999 71.0958 26.3399 71.0958 27.1954V36.4097C71.0958 37.132 71.1414 37.6088 71.2326 37.8403C71.3027 38.0156 71.45 38.1663 71.6744 38.2926C71.9759 38.4609 72.295 38.545 72.6316 38.545H73.147Z" fill="white"/>
<path d="M51.6213 32.2549V36.4097C51.6213 37.3073 51.7195 37.8648 51.9159 38.0822C52.1823 38.3907 52.5856 38.545 53.1255 38.545H53.6725V38.9342H47.5612V38.545H48.0976C48.7007 38.545 49.1319 38.3487 49.3914 37.956C49.5316 37.7386 49.6018 37.2232 49.6018 36.4097V27.1954C49.6018 26.2978 49.5071 25.7403 49.3178 25.5229C49.0443 25.2144 48.6376 25.0601 48.0976 25.0601H47.5612V24.6709H52.7889C54.0652 24.6709 55.0715 24.8042 55.8078 25.0706C56.5441 25.3301 57.1647 25.7719 57.6696 26.396C58.1745 27.0201 58.4269 27.7599 58.4269 28.6154C58.4269 29.7795 58.0412 30.7262 57.2699 31.4554C56.5055 32.1847 55.4221 32.5494 54.0196 32.5494C53.676 32.5494 53.3043 32.5248 52.9046 32.4758C52.5049 32.4267 52.0772 32.353 51.6213 32.2549ZM51.6213 31.6553C51.993 31.7254 52.3226 31.778 52.6101 31.8131C52.8976 31.8481 53.143 31.8657 53.3464 31.8657C54.0757 31.8657 54.7033 31.5852 55.2292 31.0242C55.7622 30.4562 56.0287 29.7234 56.0287 28.8258C56.0287 28.2087 55.9024 27.6372 55.65 27.1113C55.3975 26.5783 55.0399 26.1821 54.5771 25.9226C54.1143 25.6562 53.5883 25.5229 52.9993 25.5229C52.6417 25.5229 52.1823 25.5896 51.6213 25.7228V31.6553Z" fill="white"/>
<path d="M32.4689 34.1587H26.9466L25.9789 36.4097C25.7405 36.9637 25.6213 37.3774 25.6213 37.6509C25.6213 37.8683 25.723 38.0611 25.9263 38.2294C26.1367 38.3907 26.5855 38.4959 27.2727 38.545V38.9342H22.7812V38.545C23.3773 38.4398 23.763 38.3031 23.9383 38.1348C24.2959 37.7982 24.6921 37.1145 25.1269 36.0836L30.1443 24.3448H30.5124L35.4772 36.2099C35.8769 37.1636 36.2381 37.7842 36.5607 38.0717C36.8902 38.3522 37.346 38.5099 37.9281 38.545V38.9342H32.3006V38.545C32.8686 38.517 33.2508 38.4223 33.4471 38.261C33.6505 38.0997 33.7522 37.9034 33.7522 37.672C33.7522 37.3634 33.6119 36.876 33.3314 36.2099L32.4689 34.1587ZM32.1744 33.3804L29.7551 27.6161L27.2727 33.3804H32.1744Z" fill="white"/>
<path d="M12.1911 24.3448L12.5172 29.1939H12.1911C11.7563 27.7424 11.1357 26.6975 10.3293 26.0594C9.52287 25.4213 8.55515 25.1022 7.42615 25.1022C6.47948 25.1022 5.62396 25.3441 4.85961 25.828C4.09525 26.3048 3.49219 27.0692 3.0504 28.121C2.61563 29.1729 2.39825 30.4807 2.39825 32.0445C2.39825 33.3348 2.60511 34.4533 3.01885 35.3999C3.43258 36.3466 4.05318 37.0724 4.88064 37.5773C5.71512 38.0822 6.66531 38.3346 7.73119 38.3346C8.65683 38.3346 9.47378 38.1383 10.182 37.7456C10.8903 37.3459 11.6687 36.557 12.5172 35.3789L12.8432 35.5893C12.128 36.8585 11.2935 37.7877 10.3398 38.3767C9.38612 38.9657 8.25362 39.2603 6.9423 39.2603C4.57911 39.2603 2.74887 38.3837 1.45157 36.6306C0.483857 35.3263 0 33.7906 0 32.0234C0 30.5999 0.319065 29.2921 0.957195 28.1C1.59533 26.9079 2.47188 25.9858 3.58685 25.3336C4.70884 24.6744 5.93251 24.3448 7.25786 24.3448C8.28868 24.3448 9.30548 24.5973 10.3083 25.1022C10.6028 25.2565 10.8132 25.3336 10.9394 25.3336C11.1287 25.3336 11.2935 25.267 11.4338 25.1337C11.6161 24.9444 11.7458 24.6814 11.8229 24.3448H12.1911Z" fill="white"/>
</svg>
