<svg width="303" height="177" viewBox="0 0 303 177" fill="none" xmlns="http://www.w3.org/2000/svg">
<path d="M54.17 176.735C53.145 176.415 52.095 176.16 51.105 175.755C47.37 174.225 45.31 171.245 44.35 167.475C42.995 162.155 43.055 156.935 46.505 152.33C51.135 146.15 63.06 145.455 67.025 153.555C67.37 154.26 67.615 155.01 67.975 155.91C66.82 156.19 65.795 156.505 64.75 156.65C64.495 156.685 64.03 156.22 63.885 155.89C61.47 150.36 54.11 149.155 50.06 153.66C48.365 155.545 47.8 157.89 47.545 160.32C47.275 162.87 47.5 165.395 48.36 167.825C49.675 171.535 52.765 173.575 56.855 173.48C60.43 173.395 63.145 171.24 64.32 167.545C64.42 167.23 64.505 166.91 64.655 166.39C65.9 166.695 67.11 166.99 68.42 167.31C67.255 171.74 64.94 174.905 60.585 176.29C60.115 176.44 59.64 176.585 59.17 176.735H54.17Z" fill="white"/>
<path d="M222.705 116.67C224.265 122.82 230.87 126.65 236.895 124.865C250.055 120.97 258.455 111.35 259.745 97.6051C260.475 89.8551 258.63 82.8301 254.02 76.4201C243.975 62.4551 230.43 54.3051 213.565 51.5051C212.27 51.2901 210.895 51.2301 209.595 51.4001C206.345 51.8251 204.585 54.6951 205.57 57.8251C205.865 58.7701 206.435 59.6251 206.765 60.5601C207.55 62.7851 208.375 65.0051 208.98 67.2801C209.47 69.1251 208.78 70.6901 207.275 71.9251C206.055 72.9251 204.805 73.9251 203.76 75.1001C201.8 77.3101 200.805 79.8951 201.34 82.9201C201.765 85.3051 202.82 86.2651 205.26 86.1951C210.215 86.0551 215.165 85.8001 220.115 85.6501C225.725 85.4851 231.315 85.6001 236.46 88.2701C237.965 89.0501 239.44 89.9601 240.76 91.0251C245.03 94.4501 246.2 98.5251 244.41 103.705C243.85 105.325 242.99 106.835 242.02 108.28C242.135 106.125 242.355 103.975 242.335 101.82C242.29 97.0101 239.38 93.6051 234.81 92.7501C232.985 92.4101 231.4 92.7251 229.865 93.8351C225.64 96.8901 221.23 99.6401 216.45 101.78C210.84 104.29 204.98 105.92 198.855 106.09C192.465 106.265 186.41 104.64 180.825 101.43C173.865 97.4301 168.675 91.6451 164.22 85.1051C163.98 84.7501 163.71 84.4101 163.46 84.0651C163.35 84.0951 163.24 84.1251 163.13 84.1551C163.055 86.2101 162.96 88.2651 162.91 90.3201C162.815 94.2351 162.71 98.1451 162.68 102.06C162.67 103.235 162.215 103.72 161.065 103.75C153.655 103.92 146.245 104.09 138.84 104.32C137.645 104.355 137.395 103.915 137.405 102.815C137.455 97.2301 137.425 91.6501 137.425 86.0651V84.7201C137.32 84.6801 137.215 84.6401 137.115 84.6001C136.9 84.9351 136.625 85.2451 136.485 85.6051C132.365 95.9351 124.575 102.14 114.02 104.72C107.215 106.385 100.61 104.72 94.47 101.495C92.305 100.36 90.325 98.8701 88.265 97.5451C87.995 97.3701 87.72 97.1901 87.24 96.8801C87.19 97.5701 87.12 98.0751 87.125 98.5851C87.14 108.21 87.165 117.835 87.18 127.455C87.18 129.725 87.43 129.565 85.13 129.57C78.255 129.575 71.38 129.57 64.505 129.57C61.4 129.57 61.385 129.58 61.425 126.445C61.545 117.2 61.67 107.955 61.805 98.7101C61.83 97.0851 61.905 95.4651 61.91 93.8401C61.91 93.4001 61.735 92.9601 61.65 92.5751C60 94.1351 58.52 95.6451 56.93 97.0151C49.275 103.615 40.345 106.44 30.285 106C19.6 105.53 9.985 101.835 0.915 96.4451C0.7 96.3201 0.5 96.1701 0.305 96.0101C0.21 95.9351 0.15 95.8251 0 95.6401C2.655 90.5551 5.32 85.4401 8.045 80.2151C10.06 81.1801 11.97 82.0901 13.88 83.0001C18.855 85.3601 23.855 87.6651 29.405 88.3501C30.68 88.5051 31.99 88.6201 33.265 88.5101C34.405 88.4101 35.57 88.1101 36.62 87.6551C37.93 87.0901 39.2 86.2751 39.2 84.5951C39.2 82.9851 38 82.1101 36.72 81.5951C35.035 80.9151 33.255 80.4301 31.485 79.9901C24.29 78.2051 17.34 75.8401 11.16 71.6101C7.765 69.2851 4.915 66.4851 3.38 62.5601C1.435 57.5901 1.74 52.7701 4.505 48.1851C10.4 38.4001 19.335 33.9851 30.505 33.5201C39.915 33.1301 48.735 35.5451 57.325 39.0801C58.52 39.5701 59.71 40.0651 60.905 40.5501C60.965 40.5751 61.06 40.5201 61.365 40.4601C61.365 39.1951 61.44 37.8701 61.35 36.5601C61.205 34.4651 61.39 34.2151 63.43 34.2001C70.845 34.1351 78.26 34.0701 85.675 34.0001C87.08 33.9851 87.33 34.2201 87.335 35.6651C87.345 37.4151 87.335 39.1651 87.34 40.9151C87.34 41.3101 87.385 41.7051 87.425 42.3701C87.97 42.0251 88.355 41.8701 88.615 41.6001C94.535 35.4751 101.855 33.3751 110.14 34.1901C115.205 34.6851 120.08 35.9151 124.47 38.6051C130.38 42.2251 134.26 47.4051 136.14 54.0851C136.315 54.7051 136.56 55.3001 136.77 55.9101C136.94 55.9051 137.11 55.9001 137.285 55.8901C137.395 54.7551 137.595 53.6201 137.605 52.4801C137.645 46.6901 137.645 40.9051 137.64 35.1151C137.64 34.3901 137.97 34.1901 138.63 34.1951C146.505 34.2051 154.38 34.2101 162.255 34.1901C163.215 34.1901 163.19 34.7501 163.18 35.4101C163.095 40.5751 162.985 45.7351 162.965 50.9001C162.96 52.3301 162.41 53.9301 163.975 55.2751C164.365 54.7951 164.82 54.3851 165.085 53.8751C165.715 52.6551 166.24 51.3801 166.83 50.1401C168.675 46.2451 171.61 43.3601 175.255 41.1601C182.865 36.5651 190.96 33.5101 199.985 33.3951C209.17 33.2801 217.405 36.2701 225.095 41.0401C226.615 41.9851 228.055 43.0601 229.535 44.0651C229.9 44.3101 230.295 44.5151 230.675 44.7351C230.775 44.6701 230.88 44.6051 230.98 44.5401C229.785 41.2601 228.59 37.9801 227.335 34.5201C228.04 34.4751 228.56 34.4051 229.075 34.4101C236.655 34.4451 244.24 34.5101 251.82 34.5201C253.235 34.5201 254.005 35.0951 254.515 36.4151C258.115 45.7751 261.77 55.1151 265.415 64.4601C265.58 64.8801 265.785 65.2801 266.115 66.0001C266.44 65.2751 266.695 64.8301 266.84 64.3551C269.21 56.5851 271.57 48.8151 273.93 41.0401C274.45 39.3251 274.995 37.6201 275.5 35.9001C275.73 35.1151 276.16 34.7451 277.02 34.7301C285.055 34.6151 293.095 34.4651 301.13 34.3351C301.495 34.3301 301.86 34.3801 302.4 34.4151C302.175 35.0651 302.01 35.6001 301.81 36.1201C292.4 60.4301 282.995 84.7401 273.565 109.04C271.41 114.595 268.355 119.625 263.79 123.495C257.365 128.94 250.12 132.615 241.465 133.005C237.015 133.205 232.605 133.22 228.44 131.45C226.385 130.58 224.365 129.5 222.56 128.195C216.2 123.58 215.94 112.91 222.015 107.925C223.975 106.32 226.225 105.365 228.85 106.02C231.685 106.725 233.46 109.955 232.815 113.175C232.25 116.005 229.605 117.795 226.645 117.34C225.385 117.145 224.13 116.915 222.725 116.675L222.705 116.67ZM205.91 51.5001C205.85 51.3751 205.79 51.2501 205.725 51.1251C204.95 51.1651 204.17 51.1751 203.4 51.2551C197.185 51.8951 192.24 55.0701 188.1 59.4501C185.595 62.1001 182.875 63.2001 179.265 63.0301C170.35 62.6101 162.31 59.9201 155.17 54.5451C154.245 53.8451 153.295 53.1301 152.25 52.6551C150.2 51.7201 148.475 52.5201 147.865 54.6801C146.345 60.0951 147.415 62.4251 152.48 64.1351C152.635 64.1901 152.795 64.2401 152.95 64.2951C159.13 66.4451 165.55 67.2701 172.03 67.8051C175.07 68.0551 178.045 68.6101 180.855 69.8701C183.785 71.1851 185.815 73.2101 186.645 76.4501C187.005 77.8551 187.755 79.2601 188.65 80.4151C191.875 84.5851 196.465 86.3201 201.47 87.1901C201.6 87.2151 201.755 87.1001 202.065 86.9951C201.705 86.4651 201.375 86.0551 201.12 85.6001C200.46 84.4101 199.535 83.2651 199.25 81.9801C198.415 78.2201 200.135 75.3801 202.985 73.0901C203.535 72.6451 204.125 72.2551 204.665 71.7951C205.975 70.6901 206.61 69.2501 206.245 67.5751C205.945 66.2101 205.415 64.8851 204.925 63.5701C204.375 62.0951 203.645 60.6751 203.185 59.1751C202.455 56.8101 202.93 54.6551 204.715 52.8501C205.135 52.4251 205.51 51.9501 205.9 51.4951L205.91 51.5001ZM113.295 70.4701C113.3 65.9801 112.485 62.7601 110.695 59.7901C106.13 52.2151 97.255 51.1151 91.155 57.3901C85.405 63.3051 85.27 75.0051 90.89 81.0251C96.6 87.1451 104.285 86.8951 109.585 80.4351C112.215 77.2251 113.255 73.4951 113.3 70.4651L113.295 70.4701ZM61.18 46.8601C61.07 46.8201 60.96 46.7801 60.85 46.7401C60.64 47.0301 60.42 47.3101 60.225 47.6101C58.37 50.4801 56.475 53.3201 54.7 56.2351C54.045 57.3101 53.525 57.5051 52.37 56.9051C46.69 53.9401 40.78 51.5851 34.32 51.0601C32.395 50.9051 30.41 51.0001 28.5 51.2801C27.14 51.4801 26.295 52.5851 26.125 54.0151C25.955 55.4251 26.74 56.3401 27.92 56.8651C29.965 57.7751 32.035 58.6351 34.135 59.4101C35.85 60.0401 37.645 60.4501 39.365 61.0651C45.22 63.1651 50.845 65.7151 55.915 69.3901C57.55 70.5751 59.315 71.5801 61.18 72.7701V46.8551V46.8601Z" fill="white"/>
<path d="M150.44 7.32785e-05C158.47 0.0250733 164.92 6.49007 164.87 14.4651C164.825 22.6251 158.39 28.9401 150.17 28.9051C142.21 28.8701 135.935 22.4051 135.96 14.2551C135.98 6.35007 142.455 -0.0249267 150.44 7.32785e-05Z" fill="white"/>
<path d="M120.49 164.735V176.19H116.775V148.385C116.875 148.315 116.945 148.225 117.01 148.225C121.83 148.28 126.67 148.075 131.46 148.475C135.845 148.84 138.235 151.945 138.225 156.295C138.215 160.75 135.6 163.985 131.25 164.44C128.16 164.765 125.025 164.65 121.91 164.73C121.5 164.74 121.085 164.73 120.495 164.73L120.49 164.735ZM120.595 151.56V161.455C123.105 161.455 125.515 161.48 127.925 161.445C128.795 161.43 129.675 161.355 130.525 161.18C133.045 160.665 134.385 158.8 134.275 156.065C134.175 153.535 132.68 151.74 130.14 151.6C126.995 151.43 123.83 151.56 120.595 151.56Z" fill="white"/>
<path d="M229.42 176.27C228.055 176.27 226.855 176.33 225.665 176.23C225.355 176.205 224.965 175.72 224.82 175.365C223.895 173.09 223 170.805 222.15 168.5C221.88 167.775 221.53 167.475 220.715 167.485C217.55 167.535 214.385 167.53 211.22 167.485C210.47 167.475 210.13 167.725 209.895 168.425C209.1 170.75 208.21 173.035 207.42 175.36C207.175 176.075 206.815 176.34 206.075 176.29C205.13 176.23 204.18 176.275 203.055 176.275C203.47 175.15 203.815 174.18 204.185 173.225C207.275 165.235 210.385 157.25 213.44 149.25C213.765 148.4 214.19 148.13 215.07 148.14C217.93 148.17 217.925 148.14 219.02 150.81C222.3 158.825 225.59 166.835 228.87 174.845C229.04 175.26 229.195 175.68 229.42 176.27ZM220.46 164.185C218.91 160.035 217.39 155.97 215.865 151.9C214.41 156.005 212.975 160.055 211.51 164.185H220.455H220.46Z" fill="white"/>
<path d="M105.05 176.245C103.765 176.245 102.635 176.365 101.55 176.19C101.085 176.115 100.555 175.485 100.345 174.985C99.475 172.915 98.665 170.82 97.945 168.695C97.61 167.7 97.005 167.285 96.04 167.28C93.085 167.27 90.125 167.26 87.17 167.285C86.325 167.29 85.77 167.625 85.47 168.57C84.765 170.785 83.86 172.94 83.1 175.14C82.81 175.975 82.38 176.36 81.47 176.29C80.615 176.22 79.745 176.275 78.72 176.275C79.1 175.25 79.4 174.395 79.725 173.55C82.855 165.435 86.005 157.325 89.105 149.2C89.41 148.405 89.78 148.13 90.63 148.135C93.56 148.16 93.555 148.125 94.67 150.845C97.95 158.85 101.235 166.85 104.51 174.85C104.68 175.26 104.83 175.68 105.04 176.24L105.05 176.245ZM91.54 151.865C90.075 155.98 88.63 160.055 87.17 164.16H96.075C94.545 160.01 93.05 155.965 91.535 151.865H91.54Z" fill="white"/>
<path d="M181.42 151.43H172.25V148.285H194.34V151.43H185.145V176.2H181.42V151.435V151.43Z" fill="white"/>
<path d="M241.015 148.225H244.67V172.985H258.415V176.18H241.015V148.225Z" fill="white"/>
<path d="M157.495 176.22H153.87V148.265H157.495V176.22Z" fill="white"/>
</svg>
