<svg width="71" height="40" viewBox="0 0 71 40" fill="none" xmlns="http://www.w3.org/2000/svg">
<g clip-path="url(#clip0_3438_20969)">
<path d="M41.5274 15.6269C41.5274 15.5515 41.5023 15.5095 41.4268 15.5095C40.9151 15.5095 40.4035 15.5095 39.8918 15.5095C39.8164 15.5095 39.7829 15.543 39.7829 15.6185C39.7829 15.7863 39.7829 15.9456 39.7829 16.1637C39.3215 15.7359 39.0531 15.5598 38.6505 15.4591C37.6441 15.2076 36.755 15.4424 36.0002 16.1302C35.0523 17.0108 34.7671 18.1179 35.0356 19.3592C35.3543 20.8103 36.6628 21.9175 38.2479 21.7497C38.7679 21.691 39.2377 21.4981 39.6151 21.129C39.657 21.0871 39.6822 21.0199 39.7744 21.0368C39.7661 21.389 39.7996 21.7329 39.7325 22.0852C39.6067 22.6806 39.1705 23.0917 38.5499 23.1588C37.9041 23.2343 37.2918 23.0497 37.0066 22.4458C36.9228 22.2697 36.8304 22.2193 36.6543 22.2278C36.3272 22.2445 36.0001 22.2278 35.673 22.2362C35.5221 22.2362 35.3795 22.211 35.2285 22.2529C35.2117 22.3704 35.2285 22.471 35.2536 22.5717C35.4801 23.4859 36.0756 24.073 36.9395 24.3917C37.7783 24.7021 38.6337 24.7104 39.4809 24.4504C40.4957 24.1485 41.1332 23.4775 41.3932 22.4543C41.4771 22.1271 41.5106 21.8001 41.5106 21.4562C41.5106 19.5605 41.5106 17.665 41.5106 15.7695C41.5274 15.7276 41.5274 15.6772 41.5274 15.6269ZM38.3235 20.1981C37.3169 20.1896 36.7046 19.4264 36.7046 18.5709C36.713 17.6483 37.3924 16.9605 38.2983 16.9521C39.2209 16.9437 39.9087 17.6398 39.9087 18.5792C39.917 19.4935 39.2292 20.2064 38.3235 20.1981Z" fill="white"/>
<path d="M62.0936 16.1553C61.0116 15.1069 59.3341 15.0985 58.3863 16.1133C58.3696 16.1301 58.3528 16.1301 58.3193 16.105C58.3193 15.9792 58.3109 15.8283 58.3193 15.6857C58.3276 15.5431 58.2689 15.5094 58.1348 15.5094C57.7154 15.5179 57.2876 15.5094 56.8682 15.5094C56.5328 15.5094 56.5747 15.4759 56.5747 15.8031C56.5747 18.6044 56.5747 21.4143 56.5747 24.2156C56.5747 24.2491 56.5747 24.2827 56.5747 24.3246C56.583 24.5007 56.583 24.5092 56.7676 24.5092C57.2206 24.5092 57.665 24.5092 58.118 24.5092C58.3109 24.5092 58.3193 24.5092 58.3193 24.2994C58.3193 23.3685 58.3193 22.4291 58.3193 21.498V21.171C58.6044 21.4813 58.8896 21.6826 59.2251 21.8169C60.2483 22.2194 61.4562 21.9258 62.2446 21.0619C62.7394 20.5251 63.0246 19.8877 63.1168 19.1747C63.2427 18.009 62.9491 16.9773 62.0936 16.1553ZM61.28 19.3006C61.0703 19.9716 60.5 20.391 59.7955 20.391C58.9902 20.391 58.3611 19.871 58.2187 19.0658C58.1598 18.7386 58.1683 18.4199 58.2689 18.1012C58.487 17.3714 59.1077 16.9186 59.8457 16.9521C60.6007 16.9857 61.1877 17.5057 61.3387 18.2521C61.3974 18.6129 61.389 18.9567 61.28 19.3006Z" fill="white"/>
<path d="M42.7696 7.47426C43.4322 6.71101 44.2374 6.53487 45.1181 6.69424C46.1245 6.87875 46.6864 7.54137 46.9297 8.50591C47.0051 8.80786 47.0388 9.1098 47.0388 9.42013C47.0388 10.5776 47.0388 11.7267 47.0388 12.8841C47.0388 12.9093 47.0388 12.9344 47.0388 12.9596C47.0555 13.0854 47.0052 13.1441 46.8794 13.1274C46.8542 13.1274 46.829 13.1274 46.8038 13.1274C46.3845 13.1274 45.9568 13.1274 45.5374 13.1274C45.3025 13.1274 45.3025 13.1441 45.3025 12.9009C45.3025 12.6326 45.3025 12.3726 45.3025 12.1041C45.3025 11.3157 45.3025 10.5357 45.3025 9.74725C45.3025 9.55433 45.2857 9.36143 45.2438 9.16852C45.0844 8.36333 44.3631 8.00267 43.6083 8.33817C43.3063 8.47237 43.0967 8.7072 42.9624 9.00915C42.8115 9.34465 42.7696 9.70531 42.7696 10.066C42.7696 10.9634 42.7696 11.8609 42.7696 12.7667C42.7696 12.8087 42.7696 12.8589 42.7696 12.9009C42.7696 13.119 42.7696 13.119 42.5598 13.119C42.1154 13.119 41.6792 13.119 41.2347 13.119C41.2263 13.119 41.2178 13.119 41.2095 13.119C41.0334 13.1106 41.0334 13.1106 41.025 12.9177C41.025 12.8841 41.025 12.8506 41.025 12.8087C41.025 9.83951 41.025 6.87037 41.025 3.89285C41.025 3.85091 41.0334 3.80059 41.025 3.75865C41.0082 3.61606 41.0752 3.58252 41.2095 3.58252C41.6624 3.59091 42.107 3.58252 42.5598 3.58252C42.7696 3.58252 42.7779 3.58252 42.7779 3.80059C42.7779 4.90772 42.7779 6.02325 42.7779 7.13038C42.7696 7.23941 42.7696 7.32328 42.7696 7.47426Z" fill="white"/>
<path d="M66.43 16.1385C67.21 15.325 68.1409 15.1824 69.139 15.5263C69.9946 15.8198 70.414 16.5076 70.5984 17.3631C70.6572 17.6315 70.6656 17.9083 70.6656 18.1766C70.6656 19.3173 70.6656 20.4496 70.6656 21.5903C70.6656 21.6323 70.6656 21.6825 70.6656 21.7245C70.6656 21.8084 70.6404 21.8588 70.5482 21.8588C70.0449 21.8588 69.5416 21.8588 69.0384 21.8588C68.9629 21.8588 68.921 21.8251 68.921 21.7497C68.921 21.691 68.921 21.6238 68.921 21.5651C68.921 20.5419 68.921 19.5186 68.921 18.4953C68.921 18.2857 68.9126 18.0761 68.8623 17.8663C68.7616 17.4553 68.5603 17.1198 68.1326 17.0024C67.6796 16.8766 67.2519 16.9772 66.908 17.3044C66.5726 17.6146 66.4552 18.0341 66.4216 18.4702C66.4048 18.6631 66.4132 18.8561 66.4132 19.049C66.4132 19.9044 66.4132 20.7599 66.4132 21.6155C66.4132 21.8503 66.4132 21.8503 66.1867 21.8503C65.7422 21.8503 65.3061 21.8503 64.8615 21.8503C64.6686 21.8503 64.6686 21.8503 64.6602 21.6406C64.6602 21.6071 64.6602 21.5736 64.6602 21.5316C64.6602 18.5625 64.6602 15.5933 64.6602 12.6158C64.6602 12.2719 64.6267 12.3223 64.9537 12.3223C65.348 12.3223 65.7506 12.3223 66.1448 12.3223C66.43 12.3223 66.4048 12.3055 66.4048 12.5739C66.4048 13.6643 66.4048 14.763 66.4048 15.8533C66.4132 15.9456 66.3964 16.0378 66.43 16.1385Z" fill="white"/>
<path d="M54.4952 15.5011C54.0087 15.5011 53.5222 15.5094 53.0357 15.5011C52.9099 15.5011 52.8847 15.5514 52.8932 15.6605C52.9015 15.8114 52.8932 15.954 52.8932 16.1553C52.826 16.1049 52.8093 16.0882 52.7841 16.0714C52.2976 15.5598 51.6853 15.3416 50.9975 15.3668C50.1085 15.392 49.3788 15.7779 48.8336 16.474C48.1207 17.3799 47.9277 18.4115 48.1794 19.5186C48.389 20.458 48.9007 21.1961 49.7562 21.6658C50.7292 22.2026 52.0628 22.0852 52.8008 21.2632C52.8176 21.2465 52.8428 21.2296 52.8847 21.2715C52.8847 21.3974 52.8932 21.5483 52.8847 21.6993C52.8763 21.8252 52.935 21.8671 53.0609 21.8587C53.4802 21.8503 53.908 21.8587 54.3274 21.8587C54.6461 21.8587 54.6293 21.9091 54.6293 21.5652C54.6293 19.6445 54.6293 17.7238 54.6293 15.8031C54.6293 15.7527 54.6293 15.694 54.6293 15.6436C54.6461 15.5346 54.5958 15.5011 54.4952 15.5011ZM52.9519 19.2669C52.7337 19.9883 52.1467 20.4076 51.3834 20.3909C50.6621 20.3741 50.0834 19.9045 49.9072 19.1832C49.8149 18.8056 49.8234 18.4367 49.9408 18.0592C50.1673 17.3547 50.7712 16.9186 51.5008 16.9521C52.2306 16.9773 52.8008 17.4469 52.977 18.1682C53.0189 18.3276 53.0441 18.4954 53.0357 18.6631C53.0441 18.8728 53.0106 19.0741 52.9519 19.2669Z" fill="white"/>
<path d="M55.0314 9.1854C54.7547 8.01116 54.0669 7.1892 52.9011 6.80337C52.3978 6.63563 51.8862 6.59369 51.3578 6.66917C50.1248 6.83693 49.2274 7.46599 48.7325 8.61506C48.4641 9.2441 48.4054 9.90672 48.5312 10.5861C48.7241 11.6429 49.2609 12.4649 50.2506 12.9178C51.492 13.4882 52.7166 13.3958 53.874 12.6578C54.3688 12.3391 54.7295 11.8945 54.956 11.3577C54.9895 11.2739 55.0482 11.19 55.0314 11.0642C54.4695 11.0642 53.9075 11.0642 53.3455 11.0642C53.2618 11.0642 53.2198 11.1145 53.1862 11.1732C53.0855 11.3326 52.9429 11.45 52.7836 11.5422C52.4314 11.7352 52.0539 11.7939 51.6598 11.7519C50.8461 11.6681 50.3094 11.1732 50.2171 10.4016C50.3261 10.3596 50.4268 10.3764 50.5191 10.3764C51.7016 10.3764 52.8842 10.3764 54.0669 10.3764C54.3688 10.3764 54.6708 10.3764 54.9643 10.3764C55.1488 10.3764 55.1488 10.368 55.1573 10.1919C55.1488 9.848 55.1069 9.5125 55.0314 9.1854ZM50.2842 9.20217C50.3681 8.5228 51.0307 8.03633 51.8107 8.0531C52.5153 8.06987 53.1359 8.58989 53.1862 9.20217H50.2842Z" fill="white"/>
<path d="M39.5314 11.5674C39.5314 12.0203 39.5314 12.49 39.5314 12.9513C39.5314 13.0771 39.4475 13.0939 39.3636 13.1106C39.07 13.1862 38.7681 13.203 38.4746 13.203C38.0468 13.203 37.6274 13.1526 37.2416 12.968C36.5622 12.6578 36.1763 12.1293 36.0422 11.3996C36.0087 11.2067 36.0002 11.0138 36.0002 10.8209C36.0002 10.0577 36.0002 9.28602 36.0002 8.52278C36.0002 8.31309 36.0002 8.30471 35.7822 8.30471C35.4802 8.30471 35.1867 8.29632 34.8847 8.30471C34.7589 8.30471 34.7169 8.27115 34.7169 8.13695C34.7254 7.73436 34.7254 7.32338 34.7169 6.92079C34.7169 6.80336 34.7589 6.76981 34.868 6.76981C35.1867 6.7782 35.5054 6.76142 35.8157 6.7782C35.9583 6.7782 36.0002 6.73626 36.0002 6.60207C35.9919 6.14076 36.0002 5.68783 36.0002 5.22653C36.0002 5.02523 36.0002 5.01685 36.2015 5.01685C36.6628 5.01685 37.1157 5.01685 37.577 5.01685C37.7029 5.01685 37.7448 5.0504 37.7448 5.1846C37.7365 5.62913 37.7448 6.06527 37.7448 6.5098C37.7448 6.81175 37.7196 6.78659 38.0383 6.78659C38.4829 6.78659 38.919 6.78659 39.3636 6.78659C39.4894 6.78659 39.5564 6.81175 39.5481 6.96272C39.5397 7.35693 39.5397 7.75953 39.5481 8.15373C39.5481 8.30471 39.4894 8.32987 39.3636 8.32148C38.8939 8.31309 38.4326 8.32148 37.9629 8.32148C37.7616 8.32148 37.7532 8.32148 37.7532 8.52278C37.7532 9.19376 37.7532 9.86475 37.7532 10.5274C37.7532 10.67 37.77 10.8125 37.7952 10.9467C37.8622 11.3074 38.072 11.5255 38.4242 11.6093C38.7513 11.6848 39.07 11.6597 39.3888 11.5842C39.4223 11.559 39.4642 11.5422 39.5314 11.5674Z" fill="white"/>
<path d="M45.1929 16.3817C45.2935 16.323 45.3103 16.2391 45.3522 16.1804C45.7716 15.5849 46.451 15.3165 47.2142 15.4675C47.2981 15.4843 47.3568 15.5178 47.3568 15.6269C47.3568 16.1636 47.3568 16.7004 47.3568 17.2456C47.2142 17.2539 47.1051 17.2037 46.9877 17.1785C46.0819 16.9856 45.4025 17.4469 45.2348 18.3611C45.2012 18.5289 45.1929 18.6882 45.1929 18.8559C45.1929 19.745 45.1929 20.634 45.1929 21.5231C45.1929 21.5735 45.1844 21.6322 45.1929 21.6825C45.2096 21.8251 45.1342 21.8586 45.0083 21.8586C44.547 21.8503 44.0941 21.8586 43.6328 21.8586C43.4483 21.8586 43.4483 21.8503 43.4483 21.6657C43.4483 19.6779 43.4483 17.6817 43.4483 15.6939C43.4483 15.5597 43.4818 15.5093 43.6244 15.5093C44.0941 15.5178 44.5554 15.5178 45.0251 15.5093C45.1677 15.5093 45.2012 15.5682 45.2012 15.6939C45.1929 15.9036 45.1929 16.13 45.1929 16.3817Z" fill="white"/>
<path d="M13.1615 26.7568C11.3917 26.7568 9.6807 26.413 8.07033 25.7252C6.51028 25.0626 5.10958 24.1233 3.91018 22.9239C2.71078 21.7245 1.76302 20.3238 1.1088 18.7637C0.429419 17.145 0.0771484 15.4339 0.0771484 13.6726C0.0771484 11.9112 0.421032 10.1918 1.1088 8.58143C1.7714 7.02139 2.71078 5.62069 3.91018 4.42129C5.10958 3.22189 6.51028 2.27413 8.07033 1.6199C9.68909 0.940527 11.4001 0.588257 13.1615 0.588257C14.9228 0.588257 16.6422 0.93214 18.2526 1.6199C19.8127 2.2825 21.2134 3.22189 22.4128 4.42129C23.6122 5.62069 24.56 7.02139 25.2141 8.58143C25.8935 10.2002 26.2457 11.9112 26.2457 13.6726C26.2457 15.4339 25.9019 17.1533 25.2141 18.7637C24.5515 20.3238 23.6122 21.7245 22.4128 22.9239C21.2134 24.1233 19.8127 25.0711 18.2526 25.7252C16.6422 26.4046 14.9313 26.7568 13.1615 26.7568ZM13.1615 4.8155C8.28001 4.8155 4.31278 8.78274 4.31278 13.6641C4.31278 18.5457 8.2884 22.5213 13.1699 22.5213C18.0513 22.5213 22.0269 18.5457 22.0269 13.6641C22.0186 8.78274 18.0429 4.8155 13.1615 4.8155Z" fill="white"/>
<path d="M28.4433 4.75672C29.5828 4.75672 30.5066 3.83294 30.5066 2.69343C30.5066 1.5539 29.5828 0.630127 28.4433 0.630127C27.3038 0.630127 26.38 1.5539 26.38 2.69343C26.38 3.83294 27.3038 4.75672 28.4433 4.75672Z" fill="white"/>
<path d="M15.3345 39.8076C14.7893 39.8076 14.2525 39.5978 13.8415 39.1869C13.0112 38.3565 13.0112 37.0229 13.8415 36.1925L22.6482 27.3858C23.4786 26.5555 24.8122 26.5555 25.6426 27.3858C26.4729 28.2162 26.4729 29.5498 25.6426 30.3802L16.8358 39.1869C16.4165 39.6063 15.8713 39.8076 15.3345 39.8076Z" fill="white"/>
</g>
<defs>
<clipPath id="clip0_3438_20969">
<rect width="70.5882" height="40" fill="white" transform="translate(0.0771484)"/>
</clipPath>
</defs>
</svg>
