<svg width="157" height="32" viewBox="0 0 157 32" fill="none" xmlns="http://www.w3.org/2000/svg">
<path d="M30.935 31.976L38.576 14.5978L36.4209 0L39.923 23.6824C40.6332 28.4525 44.7966 32 49.7436 32L46.2415 8.31764C45.5068 3.5236 41.3434 0 36.4209 0L28.7769 17.3825C28.0339 12.5984 23.8752 9.08424 18.9592 9.08424L9.89706 22.2018C8.38524 18.6583 4.81353 16.2269 0.738281 16.2269L1.84035 23.6576C2.54382 28.3823 6.63507 31.9076 11.5201 31.9743C11.5587 31.9752 11.5976 31.9757 11.6366 31.9757C11.6446 31.9757 11.653 31.9752 11.661 31.9752L11.6567 31.9465L20.4531 19.2475L18.9592 9.08424L21.1144 23.682C21.8246 28.452 25.988 31.9996 30.935 31.9996L30.9315 31.976L30.935 31.976Z" fill="white"/>
<path d="M127.131 7.73843C127.131 7.20139 126.933 6.72875 126.559 6.36356C126.185 5.99836 125.702 5.80503 125.174 5.80503C124.646 5.80503 124.163 5.99836 123.789 6.36356C123.394 6.72875 123.196 7.20139 123.196 7.73843C123.196 8.25398 123.394 8.72661 123.789 9.09176C124.163 9.45697 124.646 9.6503 125.174 9.6503C125.716 9.6503 126.178 9.46414 126.559 9.09176C126.933 8.72661 127.131 8.25398 127.131 7.73843Z" fill="white"/>
<path d="M86.5296 15.7942C87.6732 16.8898 88.2444 18.3506 88.2444 20.1121C88.2444 22.1315 87.5188 23.7426 86.0899 24.9026C84.7056 26.0412 82.9908 26.6212 81.0124 26.6212C79.452 26.6212 78.0447 26.256 76.7918 25.5471C75.539 24.8167 74.6374 23.7641 74.1324 22.4107L73.9341 21.9381L76.6819 20.3699L76.924 21.0788C77.1877 21.8952 77.6711 22.4966 78.3529 22.9048C79.0778 23.3345 79.9793 23.5493 81.0124 23.5493C82.2437 23.5493 83.1884 23.2485 83.9578 22.6255C84.6833 22.0455 85.0353 21.2292 85.0353 20.1121C85.0353 19.0166 84.6833 18.2002 83.9578 17.5987C83.1884 16.9758 82.2437 16.675 81.0124 16.675H80.1331L78.8579 14.8061L83.2983 8.87708H74.6374V5.86957H87.4089V8.46887L83.2767 14.0542C84.5518 14.355 85.6287 14.935 86.5296 15.7942Z" fill="white"/>
<path d="M74.4176 11.3478L69.6918 26.2993H66.7682L63.6028 16.5894L60.4154 26.2993H57.4918L52.7877 11.3478H55.9971L59.0086 21.294L62.2179 11.3478H64.9657L68.1971 21.294L71.2085 11.3478H74.4176Z" fill="white"/>
<path d="M104.929 22.2179L102.335 20.7357L102.027 21.2728C101.631 22.0031 101.038 22.5832 100.313 23.0128C99.587 23.4424 98.7738 23.6573 97.8284 23.6573C96.4218 23.6573 95.2788 23.2061 94.3334 22.2609C93.3664 21.3157 92.9045 20.1986 92.9045 18.8238C92.9045 17.4489 93.3664 16.3319 94.3334 15.3866C95.2788 14.4415 96.4218 13.9903 97.8284 13.9903C98.7522 13.9903 99.6092 14.2051 100.335 14.6348C101.06 15.0644 101.565 15.6015 101.895 16.3319L102.181 16.9334L104.775 15.4726L104.533 14.9785C103.983 13.7755 103.083 12.8088 101.874 12.0784C100.686 11.391 99.3233 11.0258 97.8284 11.0258C95.5424 11.0258 93.6301 11.7777 92.1136 13.2815C90.5964 14.7637 89.827 16.6326 89.827 18.8238C89.827 21.015 90.5964 22.8839 92.1136 24.3661C93.6301 25.8699 95.5424 26.6218 97.8284 26.6218C99.3018 26.6218 100.665 26.2781 101.874 25.5906C103.104 24.8817 104.027 23.915 104.665 22.7335L104.929 22.2179Z" fill="white"/>
<path fill-rule="evenodd" clip-rule="evenodd" d="M119.437 13.2815C120.975 14.7637 121.767 16.6326 121.767 18.8238C121.767 21.015 120.975 22.8839 119.437 24.3661C117.898 25.8699 115.986 26.6218 113.766 26.6218C111.545 26.6218 109.633 25.8699 108.094 24.3661C106.534 22.8839 105.742 21.015 105.742 18.8238C105.742 16.6326 106.534 14.7637 108.094 13.2815C109.633 11.7777 111.545 11.0258 113.766 11.0258C115.986 11.0258 117.898 11.7777 119.437 13.2815ZM110.271 22.2609C111.215 23.2061 112.358 23.6573 113.766 23.6573C115.15 23.6573 116.294 23.2061 117.261 22.2609C118.206 21.3157 118.69 20.1986 118.69 18.8238C118.69 17.4489 118.206 16.3319 117.261 15.3866C116.294 14.4415 115.15 13.9903 113.766 13.9903C112.358 13.9903 111.215 14.4415 110.271 15.3866C109.303 16.3319 108.842 17.4489 108.842 18.8238C108.842 20.1986 109.303 21.3157 110.271 22.2609Z" fill="white"/>
<path d="M126.713 11.3478V26.2993H123.636V11.3478H126.713Z" fill="white"/>
<path d="M142.738 17.2556C142.738 15.3866 142.188 13.8614 141.089 12.7443C139.99 11.6058 138.473 11.0258 136.605 11.0258C134.956 11.0258 133.571 11.4984 132.494 12.4436V11.348H129.417V26.2995H132.494V18.5016C132.494 16.9334 132.868 15.7734 133.593 15.0644C134.319 14.3341 135.242 13.9903 136.451 13.9903C137.484 13.9903 138.276 14.2696 138.825 14.8281C139.375 15.3866 139.638 16.1815 139.638 17.2556V26.2995H142.738V17.2556Z" fill="white"/>
<path d="M156.564 22.0675C156.564 23.4209 155.993 24.538 154.916 25.3973C153.86 26.2136 152.498 26.6218 150.849 26.6218C149.398 26.6218 148.123 26.2995 147.09 25.6551C146.035 24.9891 145.288 24.1298 144.848 23.0772L144.672 22.6046L147.332 21.0794L147.596 21.7453C147.794 22.3469 148.189 22.798 148.739 23.1416C149.332 23.4854 150.036 23.6573 150.849 23.6573C151.662 23.6573 152.322 23.5069 152.85 23.2061C153.289 22.9698 153.465 22.6046 153.465 22.0675C153.465 21.6379 153.289 21.3372 152.893 21.0794C152.41 20.7571 151.772 20.4994 151.047 20.306C150.234 20.1127 149.398 19.8764 148.585 19.6401C147.684 19.3608 146.914 18.8882 146.277 18.2438C145.618 17.5563 145.266 16.6541 145.266 15.5585C145.266 14.2696 145.794 13.1526 146.848 12.2933C147.86 11.4554 149.156 11.0258 150.695 11.0258C151.948 11.0258 153.047 11.3051 154.015 11.8636C154.982 12.4436 155.707 13.217 156.169 14.1837L156.411 14.6778L153.75 16.1815L153.487 15.537C153.047 14.4845 152.146 13.9903 150.695 13.9903C149.992 13.9903 149.42 14.1407 148.937 14.463C148.541 14.7207 148.343 15.0644 148.343 15.5585C148.343 15.9882 148.519 16.2889 148.915 16.5467C149.42 16.8689 150.058 17.1267 150.783 17.2986C151.597 17.5134 152.431 17.7497 153.223 17.986C154.146 18.2653 154.916 18.7379 155.553 19.3823C156.212 20.0698 156.564 20.972 156.564 22.0675Z" fill="white"/>
</svg>
