<svg width="341" height="68" viewBox="0 0 341 68" fill="none" xmlns="http://www.w3.org/2000/svg">
<path d="M315.758 61.3987C312.207 61.3987 308.904 60.8144 305.848 59.6459C302.836 58.4324 300.207 56.7469 297.96 54.5896C295.758 52.3873 294.027 49.8479 292.769 46.9715C291.555 44.0501 290.949 40.859 290.949 37.3983C290.949 33.9376 291.555 30.769 292.769 27.8925C294.027 24.9711 295.758 22.4317 297.96 20.2744C300.207 18.0721 302.836 16.3867 305.848 15.2181C308.859 14.0046 312.162 13.3979 315.758 13.3979C319.309 13.3979 322.59 14.0046 325.601 15.2181C328.612 16.3867 331.219 18.0497 333.421 20.207C335.668 22.3643 337.399 24.9037 338.612 27.8251C339.871 30.7465 340.5 33.9376 340.5 37.3983C340.5 40.859 339.871 44.0501 338.612 46.9715C337.399 49.8929 335.668 52.4323 333.421 54.5896C331.219 56.7469 328.612 58.4324 325.601 59.6459C322.59 60.8144 319.309 61.3987 315.758 61.3987ZM315.758 56.9492C318.59 56.9492 321.196 56.4773 323.578 55.5334C326.005 54.5446 328.095 53.1738 329.848 51.421C331.646 49.6232 333.039 47.5558 334.028 45.2187C335.017 42.8366 335.511 40.2298 335.511 37.3983C335.511 34.5668 335.017 31.9825 334.028 29.6454C333.039 27.2633 331.646 25.1958 329.848 23.443C328.095 21.6452 326.005 20.2744 323.578 19.3306C321.196 18.3418 318.59 17.8474 315.758 17.8474C312.927 17.8474 310.297 18.3418 307.87 19.3306C305.443 20.2744 303.331 21.6452 301.533 23.443C299.78 25.1958 298.387 27.2633 297.353 29.6454C296.364 31.9825 295.87 34.5668 295.87 37.3983C295.87 40.1849 296.364 42.7692 297.353 45.1512C298.387 47.5333 299.78 49.6232 301.533 51.421C303.331 53.1738 305.443 54.5446 307.87 55.5334C310.297 56.4773 312.927 56.9492 315.758 56.9492Z" fill="white"/>
<path d="M238.894 60.9942L222.984 13.8024H228.107L243.006 58.2301H240.444L255.816 13.8024H260.4L275.569 58.2301H273.142L288.176 13.8024H292.962L277.052 60.9942H271.793L257.299 18.8587H258.647L244.085 60.9942H238.894Z" fill="white"/>
<path d="M199.1 60.9942V18.1171H182.515V13.8024H220.673V18.1171H204.089V60.9942H199.1Z" fill="white"/>
<path d="M157.377 60.9942V43.4658L158.523 46.567L138.5 13.8024H143.826L161.422 42.5894H158.59L176.186 13.8024H181.175L161.152 46.567L162.298 43.4658V60.9942H157.377Z" fill="white"/>
<path d="M27.0722 66.9495C24.7151 65.886 22.9157 64.2545 21.705 61.9928C21.1059 60.8775 20.6332 59.7124 20.5233 58.4333C20.4528 57.6165 20.3222 56.7935 20.3533 55.9788C20.4342 53.8809 21.1059 51.9446 22.2875 50.2177C24.0247 47.6824 25.8221 45.1843 27.5925 42.6697C29.7837 39.558 31.977 36.4463 34.1641 33.3326C35.9511 30.7889 37.7319 28.2411 39.5106 25.6913C41.4986 22.8387 43.4764 19.98 45.4665 17.1295C46.7041 15.357 47.9583 13.597 49.2022 11.8286C50.8751 9.44876 52.544 7.06681 54.2128 4.68485C55.2348 3.22541 56.2423 1.75767 57.283 0.310672C57.3949 0.155192 57.6707 0.0494655 57.8738 0.0432463C58.7549 0.0142233 59.6359 0.0328809 60.517 0.0328809C77.3773 0.0328809 94.2375 0.0308079 111.098 0.0287348C111.183 0.0287348 111.268 0.0287348 111.5 0.0287348C111.164 0.553221 110.888 1.00308 110.594 1.44049C109.182 3.54673 107.787 5.66334 106.344 7.74677C105.19 9.41559 103.68 10.705 101.864 11.6172C100.484 12.3117 99.047 12.8279 97.4819 12.9046C96.7812 12.9398 96.0805 13.0497 95.3798 13.0497C85.2217 13.06 75.0637 13.0559 64.9077 13.0559C63.7178 13.0559 63.724 13.06 63.0855 14.0033C61.0394 17.0258 58.9871 20.0442 56.9389 23.0668C55.0047 25.9214 53.0767 28.7801 51.1405 31.6306C49.7246 33.714 48.2942 35.785 46.8762 37.8643C45.0083 40.6028 43.1405 43.3393 41.281 46.084C39.3924 48.8702 37.5184 51.6668 35.6256 54.451C33.7702 57.1812 31.9045 59.901 30.0408 62.6251C29.0623 64.0576 28.0797 65.4859 27.0763 66.9495H27.0722Z" fill="white"/>
<path d="M32.4539 67.7932C32.6777 67.418 32.8291 67.1298 33.0136 66.8645C34.9664 64.0534 36.9296 61.2485 38.8824 58.4354C40.6466 55.8938 42.3963 53.3418 44.1584 50.7961C46.1465 47.9249 48.1428 45.062 50.1288 42.1908C52.5025 38.7578 54.8679 35.3207 57.2374 31.8856C58.9663 29.3813 60.6953 26.877 62.4221 24.3707C63.751 22.4407 65.0777 20.5065 66.4024 18.5723C66.7238 18.1038 67.0886 17.8592 67.7292 17.8592C78.1464 17.8861 88.5636 17.8758 98.9787 17.8799C99.1507 17.8799 99.3249 17.9463 99.4969 17.9815C99.4327 18.1432 99.3933 18.3215 99.2979 18.4625C98.1598 20.1251 97.0072 21.7773 95.8711 23.444C94.9527 24.7915 94.0821 26.1701 92.9004 27.3145C91.4451 28.7241 89.7887 29.8021 87.8815 30.5028C86.5485 30.9921 85.1927 31.3341 83.7644 31.3487C80.4019 31.3839 77.0373 31.415 73.6748 31.4751C73.4571 31.4793 73.1689 31.6534 73.0404 31.8358C71.3156 34.2883 69.6116 36.7531 67.9075 39.218C66.1247 41.7948 64.3522 44.3779 62.5673 46.9506C61.199 48.9241 59.8184 50.8853 58.446 52.8547C56.9886 54.9443 55.5499 57.0464 54.078 59.1257C52.7803 60.9604 51.5883 62.88 49.8054 64.3291C48.3543 65.5108 46.7746 66.4146 44.9918 66.9992C43.3022 67.5527 41.5837 67.8015 39.8133 67.7891C37.4126 67.7725 35.012 67.7849 32.4539 67.7849V67.7932Z" fill="white"/>
<path d="M0 0.0411964C3.67762 0.0411964 7.29098 -0.0728224 10.8919 0.0785117C13.5123 0.190457 15.9212 1.16895 18.0544 2.75277C19.7626 4.02149 20.9795 5.71726 22.1777 7.43169C23.1044 8.75431 24.0227 10.0831 24.9577 11.3995C26.0253 12.9025 27.1137 14.3931 28.1834 15.894C29.1598 17.2622 30.1279 18.6387 31.0981 20.0111C32.2673 21.6675 33.4365 23.3238 34.6285 25.0134C32.7752 27.4886 30.9157 29.9618 29.0686 32.4474C27.9844 33.9048 26.9229 35.3808 25.8532 36.8485C25.5796 37.2238 25.4262 37.2134 25.1546 36.8154C23.5273 34.4251 21.8978 32.0328 20.2622 29.6467C18.5436 27.1362 16.823 24.6257 15.0961 22.1194C13.4439 19.7208 11.7833 17.3285 10.129 14.9321C8.8831 13.1264 7.64548 11.3166 6.40371 9.5089C5.3651 8.00178 4.32857 6.49259 3.28374 4.98961C2.21611 3.4514 1.13604 1.91732 0.0663382 0.377034C0.0145115 0.302403 0.0248768 0.182165 0 0.0411964Z" fill="white"/>
</svg>
